<mxfile host="Electron" agent="Mozilla/5.0 (Windows NT 10.0; Win64; x64) AppleWebKit/537.36 (KHTML, like Gecko) draw.io/28.0.6 Chrome/138.0.7204.100 Electron/37.2.3 Safari/537.36" version="28.0.6">
  <diagram name="Page-1" id="rE8FA6YMhUyxy8p26El-">
    <mxGraphModel dx="1426" dy="1699" grid="1" gridSize="10" guides="1" tooltips="1" connect="1" arrows="1" fold="1" page="1" pageScale="1" pageWidth="1100" pageHeight="850" math="0" shadow="0">
      <root>
        <mxCell id="0" />
        <mxCell id="1" parent="0" />
        <mxCell id="nbEl6hGqwunhnrMHJr0G-1" value="" style="rounded=1;whiteSpace=wrap;html=1;fillColor=#FFFFFF;arcSize=0;strokeColor=light-dark(#fbfbfb, #ededed);" vertex="1" parent="1">
          <mxGeometry y="-20" width="1173" height="870" as="geometry" />
        </mxCell>
        <mxCell id="nbEl6hGqwunhnrMHJr0G-2" value="" style="rounded=0;whiteSpace=wrap;html=1;fillColor=none;dashed=1;strokeColor=#606060;strokeWidth=2;" vertex="1" parent="1">
          <mxGeometry x="250" y="241" width="670" height="609" as="geometry" />
        </mxCell>
        <mxCell id="nbEl6hGqwunhnrMHJr0G-3" value="" style="rounded=0;whiteSpace=wrap;html=1;fillColor=none;strokeColor=#FFD564;strokeWidth=1;" vertex="1" parent="1">
          <mxGeometry x="743.27" y="300" width="160" height="541" as="geometry" />
        </mxCell>
        <mxCell id="nbEl6hGqwunhnrMHJr0G-4" value="" style="rounded=0;whiteSpace=wrap;html=1;fillColor=none;strokeColor=#FFA571;strokeWidth=1;" vertex="1" parent="1">
          <mxGeometry x="263.27" y="300" width="160" height="541" as="geometry" />
        </mxCell>
        <mxCell id="nbEl6hGqwunhnrMHJr0G-5" value="" style="rounded=0;whiteSpace=wrap;html=1;fillColor=none;strokeColor=#B4B4B4;strokeWidth=1;" vertex="1" parent="1">
          <mxGeometry x="503.27" y="300" width="160" height="541" as="geometry" />
        </mxCell>
        <mxCell id="nbEl6hGqwunhnrMHJr0G-6" value="&lt;font style=&quot;font-size: 70px;&quot;&gt;&lt;b style=&quot;&quot;&gt;High Level Architecture&lt;/b&gt;&lt;/font&gt;" style="text;html=1;align=center;verticalAlign=middle;resizable=0;points=[];autosize=1;strokeColor=none;fillColor=none;" vertex="1" parent="1">
          <mxGeometry x="188.99999999999997" y="-10" width="810" height="100" as="geometry" />
        </mxCell>
        <mxCell id="nbEl6hGqwunhnrMHJr0G-7" value="" style="rounded=0;whiteSpace=wrap;html=1;fillColor=none;dashed=1;strokeColor=#606060;strokeWidth=2;" vertex="1" parent="1">
          <mxGeometry x="23" y="241" width="160" height="609" as="geometry" />
        </mxCell>
        <mxCell id="nbEl6hGqwunhnrMHJr0G-8" value="" style="group" vertex="1" connectable="0" parent="1">
          <mxGeometry x="53.269999999999996" y="486.38" width="120" height="90.25" as="geometry" />
        </mxCell>
        <mxCell id="nbEl6hGqwunhnrMHJr0G-9" value="" style="image;aspect=fixed;html=1;points=[];align=center;fontSize=12;image=img/lib/azure2/general/Folder_Blank.svg;" vertex="1" parent="nbEl6hGqwunhnrMHJr0G-8">
          <mxGeometry width="87.97349647058826" height="71.40705882352943" as="geometry" />
        </mxCell>
        <mxCell id="nbEl6hGqwunhnrMHJr0G-10" value="" style="image;aspect=fixed;html=1;points=[];align=center;fontSize=12;image=img/lib/azure2/general/File.svg;" vertex="1" parent="nbEl6hGqwunhnrMHJr0G-8">
          <mxGeometry x="77.22725012431626" y="40.436540880503145" width="37.420716981132074" height="46.105207547169805" as="geometry" />
        </mxCell>
        <mxCell id="nbEl6hGqwunhnrMHJr0G-11" value="" style="endArrow=none;html=1;rounded=0;strokeColor=#606060;entryX=0.938;entryY=0.707;entryDx=0;entryDy=0;entryPerimeter=0;" edge="1" parent="1">
          <mxGeometry width="50" height="50" relative="1" as="geometry">
            <mxPoint x="33.27" y="611" as="sourcePoint" />
            <mxPoint x="173.34999999999994" y="611.067" as="targetPoint" />
            <Array as="points">
              <mxPoint x="103.26999999999998" y="611" />
              <mxPoint x="153.27" y="611" />
            </Array>
          </mxGeometry>
        </mxCell>
        <mxCell id="nbEl6hGqwunhnrMHJr0G-12" value="&lt;font&gt;&lt;b style=&quot;&quot;&gt;Object Type&lt;/b&gt;: CSV&lt;/font&gt;&lt;div&gt;&lt;font&gt;&lt;br&gt;&lt;/font&gt;&lt;div&gt;&lt;font&gt;&lt;b style=&quot;&quot;&gt;Interface&lt;/b&gt;: Files in Folder&lt;/font&gt;&lt;/div&gt;&lt;/div&gt;" style="text;html=1;align=left;verticalAlign=middle;whiteSpace=wrap;rounded=0;" vertex="1" parent="1">
          <mxGeometry x="33.27" y="621" width="140" height="60" as="geometry" />
        </mxCell>
        <mxCell id="nbEl6hGqwunhnrMHJr0G-13" value="" style="group" vertex="1" connectable="0" parent="1">
          <mxGeometry x="53.269999999999996" y="381" width="120" height="80" as="geometry" />
        </mxCell>
        <mxCell id="nbEl6hGqwunhnrMHJr0G-14" value="" style="image;aspect=fixed;html=1;points=[];align=center;fontSize=12;image=img/lib/azure2/general/Folder_Blank.svg;" vertex="1" parent="nbEl6hGqwunhnrMHJr0G-13">
          <mxGeometry width="83.48611764705885" height="67.76470588235296" as="geometry" />
        </mxCell>
        <mxCell id="nbEl6hGqwunhnrMHJr0G-15" value="" style="image;aspect=fixed;html=1;points=[];align=center;fontSize=12;image=img/lib/azure2/general/File.svg;" vertex="1" parent="nbEl6hGqwunhnrMHJr0G-13">
          <mxGeometry x="77.22725012431626" y="35.84" width="35.84" height="44.16" as="geometry" />
        </mxCell>
        <mxCell id="nbEl6hGqwunhnrMHJr0G-16" value="" style="group;fillColor=default;" vertex="1" connectable="0" parent="1">
          <mxGeometry x="983" y="221" width="160" height="629" as="geometry" />
        </mxCell>
        <mxCell id="nbEl6hGqwunhnrMHJr0G-17" value="" style="rounded=0;whiteSpace=wrap;html=1;fillColor=none;dashed=1;strokeColor=#606060;strokeWidth=2;" vertex="1" parent="nbEl6hGqwunhnrMHJr0G-16">
          <mxGeometry y="20.323101777059772" width="160" height="608.6768982229402" as="geometry" />
        </mxCell>
        <mxCell id="nbEl6hGqwunhnrMHJr0G-18" value="&lt;font style=&quot;font-size: 24px;&quot;&gt;&lt;b&gt;Consume&lt;/b&gt;&lt;/font&gt;" style="rounded=0;whiteSpace=wrap;html=1;strokeColor=none;fillColor=default;" vertex="1" parent="nbEl6hGqwunhnrMHJr0G-16">
          <mxGeometry x="25" y="-10.161550888529886" width="110" height="60.48155088852989" as="geometry" />
        </mxCell>
        <mxCell id="nbEl6hGqwunhnrMHJr0G-19" value="" style="image;aspect=fixed;html=1;points=[];align=center;fontSize=12;image=img/lib/azure2/analytics/Power_BI_Embedded.svg;" vertex="1" parent="nbEl6hGqwunhnrMHJr0G-16">
          <mxGeometry x="25" y="141.24555735056543" width="53.25" height="71" as="geometry" />
        </mxCell>
        <mxCell id="nbEl6hGqwunhnrMHJr0G-20" value="" style="shape=image;verticalLabelPosition=bottom;labelBackgroundColor=default;verticalAlign=top;aspect=fixed;imageAspect=0;image=data:image/png,iVBORw0KGgoAAAANSUhEUgAAAeAAAAHgCAYAAAB91L6VAAAACXBIWXMAAAsTAAALEwEAmpwYAAAQwklEQVR4nO3dMY6lVxWF0TsB5uGEcTAIOyDvHDtB6pwAcghgJK6IsTCLQhW9oJH8uqrQvufstaQdIrX57ztfWOcAAAAAAAAAAAAAAAAAAAAAAAAAUOznv/796y9/+8fre/b2v03/+wFgJAEGgAABBoAAAQaAAAEGgAABBoAAAQaAAAEGgAABBoAAAQaAAAEGgAABBoAAAQaAAAEGgAABBoAAAQaAAAEGgAABBoAAAQaAAAEGgAABBoAAAQaAAAEGgAABBoAAAQaAAAEGgAABBoAAAQaAAAEGgAABBoAAAQaAAAEGgAABBoAAAQaAAAEGgAABBoAAAQZgvbdgXbiXDwT45YJ//zdLf2cALvPe0Nn3Lf2dAbhMOkwtS39nAC6TDlPL0t8ZgMukw9Sy9HcG4DLpMLUs/Z0BuEw6TC1Lf2cALpMOU8vS3xmAy6TD1LL0dwbgMukwtSz9nQG4TDpMLUt/ZwAukw5Ty9LfGYDLpMPUsvR3Bvh0r/88r5+5UyYdppadMn/8819eP3Pp/x7gfxDgj0mHqWWnjABDAQH+mPSf6fPnCHcSYCggwPu8BesDAa6L3Y0EGAoI8D4CPJ8AQwEB3keA5xNgKCDA+wjwfAIMBQR4HwGeT4ChgADvI8DzCTAUEOB9BHg+AYYCAryPAM8nwFBAgPcR4PkEGAoI8D4CPJ8AQwEB3keA5xNgKCDA+wjwfAIMBQR4HwGeT4ChgADvI8DzCTAUEOB9BHg+AYYCAryPAM8nwFBAgPcR4PkEGAoI8D4CPJ8AQwEB3keA5xNgKCDA+wjwfAIMBQR4HwGeT4ChgADvI8DzCTAUEOB9BHg+AYYCAryPAM8nwFBAgPcR4PkEGAoI8D4CPJ8AQwEB3keA5xNgKCDA+wjwfAIMBQR4HwGeT4ChgADvI8DzCTAUEOB9BHg+AYYCAryPAM8nwFBAgPcR4PkEGAoI8D4CPJ8AQwEB3keA5xNgKCDA+wjwfAIMBQR4HwGeT4ChgADDfQQYCggw3EeAoYAAw30EGAoIMNxHgKGAAMN9BBgKCDDcR4ChgADDfQQYCggw3EeAoYAAw30EGAoIMNxHgKGAAMN9BBgKCDDcR4ChgADDfQQYCggw3EeAoYAAw30EGAoIMNxHgKGAAMN9BBgKCDDcR4ChgADDfQQYCggw3EeAqfTZQbLdS7/XFp8dJNu9w0zpg26zln6vLdIH3WbtMFP6oNuspd9ri/RBt1k7zJQ+6DZr6ffaIn3QbdYOM6UPus1a+r22SB90m7XDTOmDbrOWfq8t0gfdZu0wU/qg26yl32uL9EG3WTvMlD7oNmvp99oifdBt1g4zpQ+6zVr6vbZIH3SbtcNM6YNus5Z+ry3SB91m7TBT+qDbrKXfa4v0QbdZO8yUPug2a+n32iJ90G3WDjOlD7rNWvq9tkgfdJu1w0zpg26zln6vLdIH3WbtMFP6oNuspd9ri/RBt1k7zJQ+6DZr6ffaIn3QbdYOM6UPus1a+r22SB90m7XDTOmDbrOWfq8t0gfdZu0wU/qg26yl32uL9EG3WTvMlD7oNmvp99oifdBt1g5MIEhwH0GCAgIM9xFgKCDAcB8BhgICDPcRYCggwHAfAYYCAgz3EWAoIMBwHwGGAgIM9xFgKCDAcB8BhgICDPcRYCggwDP950+/f00s/d/dQoChgADPJMC7CTAUEOCZBHg3AYYCAjyTAO8mwFBAgGcS4N0EGAoI8EwCvJsAQwEBnkmAdxNgKCDAMwnwbgIMBQR4JgHeTYChgADPJMC7CTAUEOCZBHg3AYYCAjyTAO8mwFBAgGcS4N0EGAoI8EwCvJsAQwEBnkmAdxNgKCDAMwnwbgIMBQR4JgHeTYChgADPJMC7CTAUEOCZBHg3AYYCAjyTAO8mwFBAgGcS4N0EGAoI8EwCvJsAQwEBnkmAdxNgKCDAMwnwbgIMBQR4JgHeTYChgADPJMC7CTAUEOCZBHg3AYYCAjyTAO8mwFBAgGcS4N0EGAoI8EwCvJsAQwEBnkmAdxNgKCDAMwnwbgIMBQR4JgHeTYChgADPJMC7CTAUEOCZBHg3AYYCAjyTAO8mwFBAgGcS4N0EGAoI8EwCvJsAQwEBnkmAdxNgKCDAMwnwbgJMjZ//+vevv/ztH6/v2dv/9gwmwDMJ8G4C/PDjl1+//vTl5fU9+/HLr6PvcwUBFuBpBHg3AX4Q4OUEWICnEeDdBPhBgJcTYAGeRoB3E+AHAV5OgAV4GgHeTYAfBHg5ARbgaQR4NwF+EODlBFiApxHg3QT4QYCXE2ABnkaAdxPgBwFeToAFeBoB3k2AHwR4OQEW4GkEeDcBfhDg5ZoDzEwCTAsBXk6AmUaAaSHAywkw0wgwLQR4OQFmGgGmhQAvJ8BMI8C0EODlBJhpBJgWArycADONANNCgJcTYKYRYFoI8HICzDQCTAsBXk6AmUaAaSHAywkw0wgwLQR4OQFmGgGmhQAvJ8BMI8C0EODlBJhpBJgWArycADONANNCgJcTYKYRYFoI8HICzDQCTAsBXk6AmUaAaSHAywkw0wgwLQR4OQFmGgGmhQAvJ8D3SoXG7HuW/p1sJsDLCfC90ofV7JmlfyebCfByAnyv9GE1e2bp38lmArycAN8rfVjNnln6d7KZAC8nwPdKH1azZ5b+nWwmwMsJ8L3Sh9XsmaV/J5sJ8HICfK/0YTV7ZunfyWYC/InegnXhXj4Q4JcL/v3f7CyRPqxmz+ws8RasC/fygQC/XPDv/2axD/ze0Nn37SyRPqxmz+ws8d7Q2ct3LfaB02Fq2VkifVjNntlZIh2mlp2UdJhadpZIH1azZ3aWSIepZSclHaaWnSXSh9XsmZ0l0mFq2UlJh6llZ4n0YTV7ZmeJdJhadlLSYWrZWSJ9WM2e2VkiHaaWnZR0mFp2lkgfVrNndpZIh6llJyUdppadJdKH1eyZnSXSYWrZSUmHqWVnifRhNXtmZ4l0mFp2UtJhatlZIn1YzZ7ZWSIdppadlHSYWnaWSB9Ws2eW/p18lnSYWnZS0mFq2VkifVjNntlZIh2mlp2UdJhadpZIH1azZ3aWSIepZSclHaaWnSXSh9XsmZ0l0mFq2UlJ/5k+f45wlvRhNXtmZ4n0n+nz5wgLvQXrAwH2f+b/Ufqwmj2z9O9ks7dgfSDAX9P/fn6DAN8rfVjNnln6d7KZAC8nwPdKH1azZ5b+nWwmwMsJ8L3Sh9XsmaV/J5sJ8HICfK/0YTV7ZunfyWYCvJwA3yt9WM2eWfp3spkALyfA90ofVrNnlv6dbCbAywkw0wgNLQR4OQFmGgGmhQAvJ8BMI8C0EODlBJhpBJgWArycADONANNCgJcTYKYRYFoI8HICzDQCTAsBXk6AmUaAaSHAywkw0wgwLQR4OQFmGgGmhQAvJ8BMI8C0EODlBJhpBJgWArycADONANNCgJcTYKYRYFoI8HICzDQCTAsBXk6AmUaAaSHAywkw0wgwLQR4OQFmGgGmhQAvJ8BMI8C0EODlBJhpBJgWArxcc4D//cMPr5+59H9PCwHe7Xd/+NfrZ+4MJsDLCbAATyPAuwnwgwAvJ8ACPI0A7ybADwK8nAAL8DQCvJsAPwjwcgIswNMI8G4C/CDAywmwAE8jwLsJ8IMALyfAAjyNAO8mwA8CvJwAC/A0ArybAD8I8HICLMDTCPBuAvwgwMsJsABPI8C7CfCDALOWAM8kwLsJMBQQ4JkEeDcBhgICPJMA7ybAUECAZxLg3QQYCgjwTAK8mwBDAQGeSYB3E2AoIMAzCfBuAgwFBHgmAd5NgKGAAM8kwLsJMBQQ4JkEeDcBhgICPJMA7ybAUECAZxLg3QQYCgjwTAK8mwBDAQGeSYB3E2AoIMAzCfBuAgwFBHgmAd5NgKGAAM8kwLsJMBQQ4JkEeDcBhgICPJMA7ybAUECAZxLg3QQYCgjwTAK8mwBDAQGeSYB3E2AoIMAzCfBuAgwFBHgmAd5NgKGAAM8kwLsJMBQQ4JkEeDcBhgICPJMA7ybAUECAZxLg3QQYCgjwTAK8mwBDAQGeSYB3E2AoIMAzCfBuAgwFBHgmAd5NgKGAAM8kwLsJMBQQ4JkEeDcBhgICPJMA7ybAUECAZxLg3QQYCgjwTAK8mwBDAQGeSYB3E2AoIMAzCfBuAgwFBHgmAd5NgKGAAMN9BBgKCDDcR4ChgADDfQQYCggw3EeAoYAAw30EGAoIMNxHgKGAAMN9BBgKCDDcR4ChgADDfQQYCggw3EeAqfTZQbLdS7/XFp8dJNu9w0zpg26zln6vLdIH3WbtMFP6oNuspd9ri/RBt1k7zJQ+6DZr6ffaIn3QbdYOM6UPus1a+r22SB90m7XDTOmDbrOWfq8t0gfdZu0wU/qg26yl32uL9EG3WTvMlD7oNmvp99oifdBt1g4zpQ+6zVr6vbZIH3SbtcNM6YNus5Z+ry3SB91m7TBT+qDbrKXfa4v0QbdZO8yUPug2a+n32iJ90G3WDjOlD7rNWvq9tkgfdJu1w0zpg26zln6vLdIH3WbtMFP6oNuspd9ri/RBt1k7zJQ+6DZr6ffaIn3QbdYOM6UPus1a+r22SB90m7XDTOmDbrOWfq8t0gfdZu0wU/qg26yl32uL9EG3WTvMlD7oNmvp99oifdBt1g5MIEhwH0GCAgIM9xFgKCDAcB8BhgICDPcRYCggwHAfAYYCAgz3EWAoIMBwHwGGAgIM9xFgKCDAcB8BhgICDPcRYCggwHAfAYYCAgz3EWAoIMBwHwGGAgIM9xFgKCDAcB8BhgICDPcRYCggwHAfAYYCAgz3EWAoIMBwHwGGAgIM9xFgKCDA+/z45devP315eX3P3v636X8/AgwVBHgfAZ5PgKGAAO8jwPMJMBQQ4H0EeD4BhgICvI8AzyfAUECA9xHg+QQYCgjwPgI8nwBDAQHeR4DnE2AoIMD7CPB8AgwFBHgfAZ5PgKGAAO8jwPMJMBQQ4H0EeD4BhgICvI8AzyfAUECA9xHg+QQYCgjwPgI8nwBDAQHeR4DnE2AoIMD7CPB8AgwFBHgfAZ5PgKGAAO8jwPMJMBQQ4H0EeD4BhgICvI8AzyfAUECA9xHg+QQYCgjwPgI8nwBDAQHeR4DnE2AoIMD7CPB8AgwFBHgfAZ5PgKGAAO8jwPMJMBQQ4H0EeD4BhgICvI8AzyfAUECA9xHg+QQYCgjwPgI8nwBDAQHeR4DnE2AoIMD7CPB8AgwFBHgfAZ5PgKGAAO8jwPMJMBQQ4H0EeD4BhgICvI8AzyfAUECAP+YtWBfu5QMBfrng3//NThkBhgIC/DHvDZ19304ZAYYCAvwx6TC17JQRYIDfkA5Ty9LfGYDLpMPUsvR3BuAy6TC1LP2dAbhMOkwtS39nAC6TDlPL0t8ZgMukw9Sy9HcG4DLpMLUs/Z0BuEw6TC1Lf2cALpMOU8vS3xmAy6TD1LL0dwbgMukwtSz9nQG4TDpMLUt/ZwAuk/4zff4cIQBc4i1YHwiw2AHAewgwAAQIMAAECDAABAgwAAQIMAAECDAABAgwAAQIMAAECDAABAgwAAQIMAAECDAABAgwAAQIMAAECDAABAgwAAQIMAAECDAABAgwAAQIMAAECDAABAgwAAQIMAAECDAABAgwAAQIMAAECDAABAgwAAQIMAAECDAABAgwAAQIMAAECDAABAgwAAQIMAAECDAAAAAAAAAAAAAAAAAAAAAAAAAAAAAAAAAAAAAAAAAAAAAAAAAAcJb6L/4lrVYB0HUEAAAAAElFTkSuQmCC;" vertex="1" parent="nbEl6hGqwunhnrMHJr0G-16">
          <mxGeometry x="78.25" y="141.24555735056543" width="71" height="71" as="geometry" />
        </mxCell>
        <mxCell id="nbEl6hGqwunhnrMHJr0G-21" value="" style="sketch=0;html=1;aspect=fixed;strokeColor=none;shadow=0;fillColor=#3B8DF1;verticalAlign=top;labelPosition=center;verticalLabelPosition=bottom;shape=mxgraph.gcp2.big_query" vertex="1" parent="nbEl6hGqwunhnrMHJr0G-16">
          <mxGeometry x="47.45" y="293.6688206785137" width="75.09" height="75.85" as="geometry" />
        </mxCell>
        <mxCell id="nbEl6hGqwunhnrMHJr0G-22" value="" style="shape=image;verticalLabelPosition=bottom;labelBackgroundColor=default;verticalAlign=top;aspect=fixed;imageAspect=0;image=data:image/png,iVBORw0KGgoAAAANSUhEUgAAAgAAAAIACAYAAAD0eNT6AAAACXBIWXMAAOw4AADsOAFxK8o4AAAAGXRFWHRTb2Z0d2FyZQB3d3cuaW5rc2NhcGUub3Jnm+48GgAAIABJREFUeJzt3WmwblV95/HvHSHcATAaVLhU0HjBhFxlEgETBsEATikHyllBK52husWh2i67U9JWRyBWWc2LdNohFaWNdtmV2KXRWAmDtgwiF+GiMiMqM6aY7sCd6RfrObmHyznnmfbe/7X2+n6qfgWl1NnrWXuf9ezzPHv/NkiSJEmSJEmSJEmSJEmSJEmSJEmSJEmSJEmSJEmSJEmSJEmSJEmSJEmSJEmSJEmSJEmSJEmSJEmSJEmSJEmSJEmSJEmSJEmSJEmSJEmSJEmSJEmSJEmSJEmSJEmSJEmSNNyi6AFkbDWwFjgcOGLw72uAlcAK4MDBPwE2A48Bmwb/fi9wO3AbcMcgT3Y4dkkqmetvBzwB2GMFcAJw+iBHAYsb/Pk/Ay4b5F+Axxv82ZJUMtdfdW5/4P3Ad4EdwNMdZQdwJXAe6UxXkmrj+qvOLQLOBL4KbKG7g26+bAG+MhiTn8hI6jPXX4VYDLweWE/8QTdffgy8B1ja0hxIUgTXX4VYApxLuhAk+gAbNbcD7xuMXZJK5fqrMMcA1xF/QE2aG0kXxkhSaVx/FeJA4BJgJ/EH0bTZDVwKPLfRGZKkdrj+KsxrgUeIP3CaziPA2Q3OkyQ1zfVXIZYCFwC7iD9Y2spu0pn1smamTJIa4fqrMGuAq4g/QLrKdcBhjcycJE3H9VdhjgTuJ/6g6DoPktqyJCmK66/CnEKqdIw+GKKyEThj2kmUpAmcguuv62+QNwJPEX8QRGcrcM6UcylJ43D9df0N82b6cYtJU9kJvGmqGZWk0bj+uv6GOQXPPOfKNvw4SlK7TsH11/U3yDrSc5+jd3aueQIvTJHUDtdf198whwIPEb+Tc8+DwCETzrEkzcX11/U3zFLqus902lyLZRWSmuH629P1t5SnHV0MvC16EAU5hHQAXh49EEnFc/0dj+tvg84mVTBGn9WVlt3AGyaYb0ma4frr+hvm1+nngyW6ysPAc8aedUly/e39+pv7VwCXAL8XPYiCrQD2B74VPRBJxXH9nY7r7xSOo99Pluoqu4Djx5x7SXVz/XX9DbME+BHxO68vWU/+n/ZIyoPrr+tvqHOJ32l9y3vG2gOSauX6W8n6uyh6AHNYAtwCrI0eSM/cBvwO6epUSZqL6287slx/F0cPYA7n4MHXhiNID/GQpPm4/rbD9XcEi4Cbif+4pq+5iTw/9ZEUz/XX9TfUmcTvpL7nNSPvDUk1cf2tbP3N7SuA90YPoAJZXowiKZzrb/uyWn9z+jhiNelJSvtFD6TnngJeQHp0pSSB629Xslp/l0YPYJZzyPvg2wj8I3Al6bucnwOPD/6/A4DDgJcBpwGvBVZ1P8SR/Bp7xi1JJejT+vsm4G+jB5Kb7xL//cxceQD4Y8Y7OdkP+ABwZwbjN8aYUtPH9denBO5lNbCD+B0zO1uAPyf1OU9qGfAxYGsGr8cYY0pJn9ff7cDKKV5X77yO+J0yO3cC6xp8fScCD2XwuowxJvfUsP6e1eDrm1gudwGcFj2AWW4GXjX4Z1OuIT1c4ycN/kxJ6pta1t8s3vNyuQvgJtIFHNEeAl4B3NvSz38hcP3gn5KkPWpaf28Ajo0eRA4nAKuBx4j/NGIrcCrwg5a3cyJwBbBPy9uRpFLUtv7uBvYHNkUOIvpNF1LvdA7j+BTtH3yQPo66oIPtSFIpalt/F5PBMxdyeOM9PHoApAKMz3S4vc8Ad3e4PUnKVa3rb/h7nycAySeBzR1ubztwcYfbk6Rc1br+hr/35XACcETw9p8ELg3Y7lcI/v5HkoLVvP56AgAcHLz9b5FKJ7q2Gfh2wHYlKRc1r79rgrefxQlAdGfzFYHbthJSUs1qXn+j3/uyOAFYHbz9DYHbbrLsQpJKU/P66wkA8Z3I9wRu+2eB25akaDWvv+EnADkUAW0Dlgdufx/SVaFR294atG1Jilbz+rsN2Ddw+1l8AiBJkjqWwwnAxuDtR16DsH/gtiUpWs3rb/R7XxYnANH3Yh4WuO0XBW5bkqLVvP56AkAqgoj08sBt5/AEREmKUvP66wkA8ZMQ+VzmVwduW5Ki1bz+Rv/xm8UJwH3B238dMbcirgDOCtiuJOWi5vX33uDtZ3ECcHvw9lcCbwvY7juJ70CQpEg1r793BG/fE4CBjwHLOtze8sE2Jal2ta6/4e99ngAkvwV8qMPtfZT4K1AlKQe1rr/h7305NAGuAh4n/mRkG3AqcG3L2zmJ9BCKfVrejiSVorb1dzephyD0NvjoN11IdwFEP5QB0gHxddp9ROOhwN8Tf/BJUk5qW39vJL4DJ4sTAIh9JORsB5GeEd3GQXgo6dnXB7XwsyWpdDWtv1dGDwDyOQHIYjIGjgR+BJzc4M88Abhu8LMlSXOrZf29PHoAOVkN7ACezihbgU8w3a0iy4GPD35W9OsxxphS0uf1d/uUr6uXriR+x8yVh4A/JRVHjGol8Eek501Hj98YY0pNH9ffy8Z4La3K4S6AGecBfxM9iAVsIn0/dQVwE3AP6e4FgANID7U4ilRteTbjHbCSpPn1af09F/hi9CBysxrYTPzZmckru4FLgechleFA4BJgF/G/PyavbCbd+p6FXC4ChPRghG9ED0LZWQS8m1Sa8UHyOmal2RYB7yEdq/8Bj1U929eJfwBetv6A+DM0k3fWA8ch5WUdcDXxvx8m75yB5rUI2ED8TjJ5ZwfpI9bVSLFWABeQmuyify9M3rmJvK67y9LbiN9Rpow8QPrIVYrweuAXxP8emDLyFjTUEuA24neWKSdXAC9F6saLgX8i/rg35eQWMrwmZEn0AObwNOmWjz+MHoiKcRjpvt8VwFXAztjhqKeWk54k9zXgiOCxqCwfJn29rREsJlU3Rp+1mfJyF3AWUrNOA24l/vg25WU9ef6xnbVj8T5aM3m+SXoAiDSNF5J6KKKPZ1NmdgHHk6mcz0oeAA4GjokeiIq0Fvh3pI9tryH9IkqjWgr8e9LjY18RPBaV66+Bz0UPYj6535LwHNIFgbbAaRo3k/rEr44eiIpwLGnhPjZ6ICraI6RrRR6LHsh8srsqcS+PAu8l1cFKk1oHfB8rhbWwmQrf6/DNX9N5GvgAGb/5Q95fAcy4i3R190nRA1HRFgEvI/1SbgWuJ/2SSjMVvt8kXeyX+yejyt+FpE+R1IClpL/goi/oMP2JlcICK3xN87kWWIYatQZ4kPidm3ueymAMpcRK4XpZ4Tt+tmYwhtxzP+nidbXgd0nXBUTv5FzzBOmrkh9nMJaSYqVwXazwHT+3Aifg+rtQngBejlp1Mv6VO1e2AacP5ugw4FcZjKm0WCncb1b4TpZHgZcM5vBkXH/nyuz1Vy17M6nuNXqn55KdwJv2mqPTSR9xR4+ttGwHLgL2RX2xHPgYvnFNkp08u1nT9ffZc7T3+quWvRHYQvzOj85W4Jx55uj8DMZXau7GSuE+sMJ3upw/z7y6/qYstP6qZScDjxN/EERlI3DGkDn6XAbjLDlWCpfJCt/p86Uhc3wyrr/D1l+17EjgPuIPhq7zIKNdcLIM+F4G4y05m0lXjC8fYb4VaynwQdIFWdHHTcm5BthnhPl2/VW4Q6irJ+A64DfHmJ+DgF9mMO7SswELqXJ2LHsKnszkmXkOy6hcfxVuKemvtD4/QXA36b71SUomjiL9JRv9GkrPbqwUzs1MhW+ff/e7ylNM9vAj119l4WzgYeIPlqbzMHDmlHPzFtJBHP1a+pBHSR815/48jT6bqfB9hPjjoQ/ZDbxjrD3wbK6/CncA6UytD7eq7CL9xfnchubmwgxeU59ipXAMK3ybz4Vj7YH5uf4qC0eTepmjD6JJcwPwyobnZDHwjQxeW59ipXB3rPBtJ9+h+YfDuf4q3BLSx4Ql3Qt8C/Bu2vt4eRXWBbcRK4XbZYVvO7kN2H+M/TAO119lYTFpAcn5KuGbSb8sXTym2brg9mKlcLOs8G0vs2t+2+T6qywsAl4D/B15XBW/GfgyqVCi6+eQWxfcXqwUnp4Vvu1mrprftrn+KhurgHOBy+n2jXA7cBnw3sEYIlkX3G7uJl0ZrfGcSlkfG5eY+Wp+u+L6q2zsR/qL+CLgKpo9IHcBPwU+C7yV9r5vm5R1we3HSuHRvAArfLvIsJrfrtW8/obxI4/5rQTWAofPyprB/76KdKvLysF/u4nUib1xkPuA20kX19wxyKYOxz6uZaQz4t+PHkjPbQE+DXyK9FeI9lgK/BnwSbybom3Xkj5h2RY9kAXUtP5K4awL7i5WCj+TFb7dZdyaX0mVsC64u1gpbIVv15m05ldSJawL7jY1Vgpb4dt9mqj5lVQB64K7Ty2Vwlb4xqSpml9JPWddcEz6XClshW9c2qj5ldRj1gXHpW+Vwlb4xqXNml9JPWZdcGxKrxS2wjc2XdX8Suop64JjU2KlsBW+8Ymo+ZXUQ9YFx6eUSmErfPNIdM2vpB6xLjiP5FopbIVvPsmt5ldS4ZYB3yN+cTOprOkC0kft0ZaSegyeIH5eDFwD7LPgHpOkCVgXnFeiK4Wt8M0r1vxKapV1wXklolLYCt/8Ys2vpE6UUBe8PYMxdJkuKoWt8M0z1vxK6lQJdcH3UN93021VCr+M+ip8S2ktvGiB/SZJjSulLvhr1Hd1epOVwrVW+H4T+OcMxjEs1vxKClFKXfD5wGnUd3/6tJXCNVb43gWcCXw0g7EMizW/kkKVUBe8k1SiU2tD3biVwi8Gvp3BuLvMNvY0Lp5BOmaix7RQrPmVlIUS6oJnL5g1dtSPUilc6wnS5cARgzlYCzyWwZgWijW/krJSQl3wbcABs8Zc40fc81UK11jhez/P/IpkFfDTDMY1LNb8SspOCXXBe180VfNFbodSZ4XvXBdJLh7MSfTYhsWaX0lZKqUu+MI5xr6OOm9z25rBOLrM9aQGw719OoOxDYs1v5KyVkpd8FzFKRbd9DcLFSW9K4PxDYs1v5KKUEJd8ELVqVbd9ifDqpKPpuxjVZKyU0Jd8LC/qnzYTdnZAJz4rL26x/OBezMY50Kx5ldSkUqoCx72vaqPuy0vmxj+uOR9gR9kMNZhmet6FUnKXil1waNcWV3j1fIlZubuhmG+kMFYh8WaX0lFK6kueBQ1VgqXkJkK31GUUvM7u7NCkopUUl3wKGptzMsxsyt8R2HNryR1rLS64FHUWCmcU65gT4XvKEqp+R31RFSSilFiXfAoaqwUjswkTzm05leSgpVYFzyKWiuFu8xcFb6jsOZXkjJQcl3wKGqsFO4i81X4jsKaX0nKRMl1waOwUri5LFThOwprfiUpM6XXBY/CSuHJM6zCdxTW/EpSpvpQFzwKK4XHy7AK31GUUPP7NNb8SqpYH+qCR2Gl8PCMUuE7Cmt+JakAfaoLHoWVwnNn1ArfUVjzK0mF6Ftd8CisFE4Zp8J3FNb8SlJh+lYXPIqZSuGtGby2rrOd8Sp8R2HNrzSGSW+tkZp2D/B20gKeqyXAl3EBb8Kihn/eWuBr5P2x+i7SbYl3Rg9EknLU17rgvZ2KXwE8DdzN9J+qWPMrST3R17pg8CLA+TLpRYDW/EpSj/SxLtjbAIdnM+PfBmjNryT1TJ/qgi0CGi8bgJNGmFdrfiWpp0qvC7YKePLMVAH/xjxza82vJPVciXXBPgyoucz1MCBrfiWpEiXVBfs44HayHjgOa34lqSql1AXfBGzLYBx9zQ7gJxmMY1is+VURmi7jkNqyivRX9pHRA5EWcDvwSuDx6IFIw3gCoJIcBvwQeG70QKQ5PAYcj01/KoRVwCrJPeRfF6w6WfOr4vg9lUrzM2AjzT5BTprWR4D/FT0IaRyeAKhEPyDddndM9EAk0hv/x6IHIY3LawBUqmXAZcDvRw9EVbuW9GCnbdEDkcblCYBKdhCpYndN9EBUpQdJ3QT3Rw9EmoQXAapkDwNvBLZED0TV2Qr8Ib75q2CeAKh0NwLvJRWwSF15P+mWVKlYXgSoPriFVBH7quiBFGY76ZbKpdEDKcxFwH+PHoQkKSmlLjiXfBM4FHgB6al70eMpJdb8SlKGVgE/Jv5NIufcBZw1x9ydBtyawfhyzm3AAXPMnSQpA4cBvyL+zSK3bCN9dL3vAnO3nHQ/+1MZjDe3PAq8ZIG5kyRl4HTSk+Oi3zRyyRXAEWPM34uBf8pg3LlkJ3D2GPMnSQp0PvFvHNF5AHjPFHP4euAXGbyO6HxoijmUJAX4HPFvHhHZAVwCrJ5+ClkBXED6CiH6dUXk0qlnUMqUPQDqq6Wki7Z2RQ+kY+uBE4APAk828PM2k04AjgOuaeDnlWQ36ROQ5dEDkSSN5lhSRXD0X49d5lHSm36bJ/WLSF8pPJLB6+0yG4CTGpg/SVJLDiR99L2L+DeNrrKb9DH18xqYv1HVPM+/0cD8SZIaUvNfpic2MH+T8pMWSVKYdcDVxL8xdJlNpO/lc/hueinpDfEJ4uely6wnXRchSepYrVenz1T45qbGSuEm77aQJI2gxvvT56vwzU2NlcLT9i1IkoZ4MfBt4hf8LrOd4RW+uam1UvgK4KUNzJ8kaWAZdb6h7AD+oIH5i3I66QQmeh67zHbS1wIrGpg/SaraqdT3kfLslPoEulXAT4mfv6jcjc8PkKSJ1HhR2Xwp7Rn0i0kXK0bPWw7J9aJNScpOrbeVDcuF00xqxz5N/HzllJk65Rxu25SkLNVYLDNO3jH51HbmXcTPU665DXj15FMrSf1TY7XsJHkKeMWEc9yFo0l/7UbPU86xUliSqLfCd5o8ABw8yWS37PnAvcTPTymxUljhFkUPIGOrgbXA4cARg39fA6wk3eJzIHtu9dkMPEaqaN1MWghvJ33kd8cgTTyatU/WAX9NbJd9qa4l3R2xLXogA/sC3wWODx5HiW4A/oT01Zf2cP1Vp1aQ7lu+iNTz3fTH0XcDnwXeSpm3dTVlP+qs8G06Xxpz3tv0BeLno+TsIq0NNVcKu/6qc/sD7yf99bKD7n7hdwBXAudR1y99jRW+beb88aa/FR8lfh76ktoqhV1/1blFwJnAV4EtxP/SbwG+MhhTX7+SqbHCt4vsJLZs5ozBGKLnoW+5kv5WCrv+KsRi0l+g64k/6ObLj0l/ASxtaQ66VmuFb5d5FHjJqDukQWtJ37tGv/6+pm+Vwq6/CrEEOJd0IUj0ATZqbgfeR1ntb3urvcK3y3RdF1x7zW+XKb1S2PVXYY4BriP+gJo0NwInND4r7bLCNyZd1QVb8xuTEiuFXX8VYqZYpg/fT84Uhzy30RlqnhW+8emiLtia37iUUins+qswr6WfxTKPkO9HgVb45pM264Kt+c0jOVcKu/4qxFLS2XGf62R3k86slzUzZVOzwje/tFUXbM1vXsmtUtj1V2HWAFcRf4B0leuAwxqZucnUWuG7AfjPpIUgeiwLpem64FJqfv8L9X0SlUOlsOuvwhwJ3E/8QdF1HgSOamD+xrWOun7Zn+bZ371emMGYhuUaYJ859t+49iVVD0e/nmG5aDDeWq9FWQ8cN9cObJnrr8KcAjxO/MEQlY2kMpYu1FrhO9fV14uBb2QwtmFpoi64hJrfue6AqPFulK4rhU/B9ber9Vd7eSMWzDwNbAXOmXIuh6mxwvcu4KwF5mQVqTgkepzDMk1dcAk1v8M6EE6jvj6KLiqFXX9Tulh/tZc3049bTJrKTuBNU83o3Gqs8N1O+jh53xHm5zDgVxmMedixMcnVyyXU/I7agricOhspr6SdSmHX32emrfVXcziF+n6RR8k2mvs4qtYK3ytIjx4dx+l0+yCTSTJuXXAJNb+TnNi8GPinDMbeZZquFD6F+taFUdLk+qt5rCP/hSkyTzD9hSk1VvhO+5Hp+Rm8hmEZtS64lJrfD43wWuZT41daTVQKu/4unCbWX83jUOAh4ndy7nkQOGSC+a3xoqkdpL+Omrho6nMZvJ5hGVYXXErN76ULvIZRrcCLWsfh+jtaJl1/tYCl1Hfr2TS5ltHLKmq+berYEedoFMuA72XwuoZlobrgEmp+r6WZ2xtnrAOuzuB1dZlxK4Vdf8fLOOuvRlDCwpRbRumFPwaLU5p0EPDLDF7jsMxVF1xCzW/TBUczai22GrVS2PV3/HTxXI4qnE3+zWs5ZjfwhnnmtMYK35nq1OfNMydNOYr8K3P3rgsuoea3rYrj2Wr+vZivUtj1d/J5nW/91Yh+nfrOypvMw8BzZs1nrX/pbABOojtvIf9Fc+av6VJqft851h6YTo0Pt5rrkzHX3+my9/qrMZVwYVXu+evBXFrh260S6oJ/QBnPa5+p+e1SzdfGzFQKu/5On5n1V2M6jro+imsru4DP49XOXSulLjj3DLtzoW013h2zC/gHXH+bmsvj0ViWAD8ifueZ8jKswrdLpdQF55pRuwu6UGOlsGkm64k9iS3OucTvNFNWxqnw7VIJdcE5Ztz2wi7UWilspk/bz2bojSXA7cTvMFNOJqnw7VIJdcE5ZdLnF3SlxkphM11upZ1bj3vn7cTvLFNGunjqWVNKqAvOJdPU/HapxkphM3neiha0CLiZ+B1l8k6TFb5d8qrq4Wmi5rdLtVYKm/FzE+k9TvM4k/idZPLO7NuUSlNKXXBUmq757VKNlcJm/LwGzeurxO8gk2farPDtUil1wV2nrZrfLtVatGVGz5fRnFaTfx2p6T5dVfh2qYS64C7TRc1vl2qsFDajZQuwP5nI6fuID5AKa3K1EfhH4ErSdzk/Bx4f/H8HkG73ehnpfuHXku4BlyRNr0/r73nA30YPIjffJf7sbK48APwxsN8Yr2U/0gnNnRmM3xhjSk0f19/Lx3gtVVhNfvdJbwH+nHSV76SWkYpDtmbweowxppT0ef3dDqyc4nX1zuuI3ymzcyfpqt6mnAg8lMHrMsaY3FPD+ptFXXkuV1SfFj2AWW4GXjX4Z1OuId269pMGf6Yk9U0t628W73m5XAR4E+kCjmgPka5Gvreln/9C0nPGX9jSz5ekUtW0/t4AHBs9iBxOAFYDjxH/acRW4FTSM9LbdCKpu77UwhNJalpt6+9u0u2AmyIHEf2mC7CWPMbxKdo/+CB9HHVBB9uRpFLUtv4uJr33hQ8i2uHRAwAeBD7T4fY+A9zd4fYkKVe1rr/h732eACSfJDWzdWU7cHGH25OkXNW6/oa/9+VwAhD9HPcniXkC2VcI/v5HkoLVvP56AkD8A0C+RSqd6Npm4NsB25WkXNS8/q4J3n4WJwDRnc1XBG7bSkhJNat5/Y1+78viBGB18PY3BG67ybILSSpNzeuvJwDEdyLfE7jtnwVuW5Ki1bz+hp8A5FAEtA1YHrj9fUhXhUZte2vQtiUpWs3r7zZg38DtZ/EJgCRJ6lgOJwAbg7cfeQ3C/oHblqRoNa+/0e99WZwARN+LeVjgtl8UuG1Jilbz+usJAKkIItLLA7edwxMQJSlKzeuvJwDET0Lkc5lfHbhtSYpW8/ob/cdvFicA9wVv/3XE3Iq4AjgrYLuSlIua1997g7efxQnA7cHbXwm8LWC77yS+A0GSItW8/t4RvH1PAAY+BizrcHvLB9uUpNrVuv6Gv/d5ApD8FvChDrf3UeKvQJWkHNS6/oa/9+XQBLgKeJz4k5FtwKnAtS1v5yTSQyj2aXk7klSK2tbf3aQegtDb4KPfdCHdBRD9UAZIB8TXafcRjYcCf0/8wSdJOalt/b2R+A6cLE4AIPaRkLMdRHpGdBsH4aGkZ18f1MLPlqTS1bT+Xhk9AMjnBCCLyRg4EvgRcHKDP/ME4LrBz5Ykza2W9ffy6AHkZDWwA3g6o2wFPsF0t4osBz4++FnRr8cYY0pJn9ff7VO+rl66kvgdM1ceAv6UVBwxqpXAH5GeNx09fmOMKTV9XH8vG+O1tCqHuwBmnAf8TfQgFrCJ9P3UFcBNwD2kuxcADiA91OIoUrXl2Yx3wEqS5ten9fdc4IvRg8jNamAz8WdnJq/sBi4Fnkd/HI3H+uw8BbxiqhnNy4HAJcAu4ufW5JXNpFvfNYevEr+DTJ55FPgg+Vy4OqnnkzrAo+cztzwAHDzFvOZgEfAe4BHi59PkmS+jef0B8TvI5J31wHGUaV9S0Un0HOaaa8jjHu1JrAOuJn4OTd45A81rEbCB+J1k8s4O0kesqynLF4ifu9zzpYlnN8YK4AJSk1303Jm8cxN5XXeXpbcRv6NMGXmA9JFrCT5C/HyVkvMnnOOuvR74BfHzZcrIW9BQS4DbiN9ZppxcAbyUfJ1Bfj0XOWcn6UruXL2YdEV69DyZcnIL5V+/1Jn3Eb/DTFnZDlxE+p49J2tJFzBGz09peRR4yQTz3aaZx8g+Rfz8mLLyLjSyxaTqxuidZsrLXcBZ5GEV8BPi56TU3Ea6xzsHpwK3Ej8nprysJ32yrTEci/fRNpFdwOep7yKlb5IeABJl8WAM0fNQer5D7OL5AlIPRfQ8dJkdpFuyXX+nzy7geDSRzxK/A0vPXw3mch1wVQbj6TKbSVdoL6d7F4851ojcAHw/g3EMy4Vjzn0TlpJ6J56YYLwlZ/Zttq6/02dm/dUEnoOlGtPkYVIr2Yxai0o2ACfSnXe29DqazEzxzkHALzMYz7C8Y6w9MJ1jgetbeh25Zq6iLdff6bL3+qsJnIUfRU2S3aTblOZSY1VpV5XCJdT87l29e1SBY26DvxfP5vo7+bzOt/5qTCV8nJpb/mKEeT0G+GEGY+0ybVYKl1Lze+4cY38LadGKHttCaasuuOZPxk4aYX5cf8fPKOuvRrSUMr6rzCXXAsvGmNsav+u8nvRRb1OWA/8vg9c1LBcv8BouzGB8w9J0XXCNFb7jXhvj+jtexll/NaI1wIPE79zccz+T/ZVU69XOTVUKfz6D1zMsw66oXwx8I4NxDksTdcG1VvhOeneM6+9omXT91Qh+F0tVFsoTwMsnnt3kVFJrVfRr6TLTVgp/OIPXMCyj3lO/CvhxBuMdlmnqgmus8G2iH8MvPCDfAAAVkElEQVT1d+E0sf5qiJOxiWuubANOn2JeZ1tGnY1nVwBHjDlXJdT8PgH89hiv6TDgVxmMe6FMUhdcY4Vv0w2ZJ1PfujBKmlx/NcSbSQtA9E7PJTuBN001o3OrccHcxugLZglvlLuYrFf/dPI/sRm1LrjWCt+2npHh+vvMtLX+agFvBLYQv/OjsxU4Z8q5HKbWj0zPXGBOSqn5/fACr2GY8zMY/7AM+2qjxgrfLp6S6fqb0sX6q3mcDDxO/EEQlY2kj6C7sB9eNDWjlJrfS5ne5zJ4HcMy18WNXtTavpNx/e1q/dU8jgTuI/5g6DoPEnPBSY2Vwpt45m1TJdwXvR74tTn237iWAd/L4PUMy0xdcK23tc6u8O2S66/CHUJd96leB/xmExM3oUXA+4F/JX4uusyNwCfIvzDnPtJfwE0ppS74AlK5TfQ4usy/Ah8g9lnzrr8Kt5S0APS5tnI36SO+XEomaqxOzT1tVeaWUBdcU7qqth6V66+ycDbpIQzRB0vTeZiFL0qLVGOlcK6Zq+a3KSXUBdeQUSt8I7j+KtwBpDO1Ptyqsot0pv/cRmeoebV+95pTLhq6l6ZXQl1wXxP5eOtxuP4qC0eTepmjD6JJcwPwysZnpV01Xn2dQ4bV/DallLrgvmXSCt9Irr8Kt4R0T2xJ9wLfAryb2At7plXj/ddRGbXmtyml1AX3IU1U+EZy/VUWFpMKba4n/gCbLzeTflm6+EuuC7VWCneZcWt+m1JCC2LJabrCN5rrr7KwCHgN8HfkcVXzZuDLpEKJRS2+7kg1Vgp3kUlrfptSQl1wiWmrwjcHrr/KxirSVdOX0+1Cth24DHjvYAy1qLFSuM1MU/PblBLqgktJFxW+OXH9VTb2I/1FcxGp6a7JA3IX8FPgs8Bbgf07ek05qrVSuOk0UfPblBLqgnNO1xW+OXL9DeBHHvNbCawFDp+VNYP/fRXpoquVg/92E6kTe+Mg9wG3ky7OumOQTR2OvQTrgP9Bvvcz5+wG4PdI11bkYBnpL6rfjx5IgW4A/oT03bj2cP2Vem4R6SPPR4j/K6yUPAAcPMlkt6yUuuBc8iipN8MrzSVVzUrh0dJWzW9TrAsentwqfCUpC8eS921C0Wmz5rcp1gXPn5wrfCUpnJXCc6eLmt+mWBf8zJRS4StJWbBSeE+6qvltinXBe1Jiha8kZaH2SuGua36bUntdcOkVvpKUhX1JH6HWWClc8pvIKdTX9/AU8F/pT4WvJGWhxkrhbZTXCb+cOp8B0ecKX0nKQo2VwncBZzYxeS2r8Sub2ip8JSnUCuqsFM71orIaL9q0wleSAq0Drib+zaDLbCKf28pqvW1zPXBcA/MnSZpCrZXCG4ATG5i/SdVY3GSFryRlqMZK4YhqWedZkpQl/zJtR82ftFjhK0mFWAp8nPg3j65zFem6iKbVeK3FTuA/ko4lqXf8Hkt9tRN4UfQgApxEesZ8U1enz9xtcT2x1xtEWAL8DulYkiQV4iPE/wUZnWnvT6+xb2GunD/FHEqSOnQG6R7t6DeOXHIFcMQY81dj4+JC2QmcPcb8SZICrAUeI/5NI7dsZ3il8DLqrPAdJY8CL1lg7iRJgVYBPyH+zSLnzPeUuhorfMdNqU9mlKReW0yqyY1+kyglM5XCNVb4TpPvkC4OlCRl4mLi3xxKy5ODRI+jtFyIJCkL7yL+TcHUlXcgFW5R9ACkKR0NfB/YL3ogqspW4GTgh9EDkSblCYBK9nxSQc0h0QNRlR4kPRHw/uiBSJOwCVCl2hf4Or75K84LgP8D7BM9EGkSXs2qUv1P4A3Rg1D11pDupvi/0QORxuUJgEr0EeA/RQ9CGngZ8ATwg+iBSOPwGgCV5gxSTa1PaFNOdpE+kfp29ECkUXkCoJKsBa7DNjbl6THgeODO6IFIo/AiQJViFfAP+OavfB1Ialj0GFURPAFQCZYA/5v0bPac3YTPjm/TTtKzHnJ2OOlY9foqSWrAXxLf/DYs64FfA9YBV2cwnr5lPeme+2XA9zIYz7BYFyxJUyqh5vcB4OBZY14EvAd4JIOxlZ5HgQ/yzE8rDwJ+mcHYhsW6YEma0NHAZuIX8oXyFPCKecZ/IHAJ6Qrx6HGWlt2kpxQ+b565PYqyjw1J0jyeD9xL/CI+LOeN8FqOJVUWR4+1lGwAThphXt9COlGIHu9C2fvTIUnSAvYFriV+8R6Wi8d4TUtJH2U/kcG4c81m4AJg+RjzemEG4x6Wa7AuWJJG8gXiF+1h+Q6TXen9AtJH29Hjzy3fJFXqjmsx8I0Mxj8sX5rgtUlSVT5C/GI9LLcx/b3epwK3ZvBaonMXcNaUc7kK+HEGr2VYzp/ydUpSb50B7CB+oV4oTwC/3dDrXQ58jHSxWPTr6jrbgYtIX/c04TDgVxm8roWyEzi7odcrTc0iIOViLfA18u743w28HbgleiB6lntI+ybnIqYlwJeBl0QPRJJysYrU8Bb9F9qwfLjB13wafgXwNHA3zf5VfH4Gr2lYmvgKSZKKt5h0AVj0ojwslzb0er0IcO5MehHgXD6XwesZlkkvIpWk3iip5nca3gY4PJPcBjgX64IlKXMl1vxOwiKg8TJqEdBCrAuWpEyVXvM7CquAJ89MFfBvjD3re1gXLEmZ6VPN71x8GFBzmethQOOwLliSMtHHmt/ZfBxwO5l5HPAkrAuWpAz0teZ3BekCtm0ZjL+v2UH6SmX1aLvk31gXLEnB+lrz+3rgFxmMvZY8QPqKZRzWBUtSkD7W/L4Y+HYG4641VwAvHbqX9rAuWJI6thZ4jPjFdaHsYvSFt+YO/9wy7jMFTif/E9FHsS5YUg/0rebXp/jlmXEqha0LlqSW9anm1wrfMjJqpbB1wZLUoj7U/FrhW15GqRS2LliSWtKHml8rfMvOsEph64IlqWGl1/xa4dufDKsUti5YkhpScs2vFb79zUKVwtYFS9KUSqn5/cs5xl5jhe+Tg0SPo8tcA7yMZ7MuWJKmUGLN737UWeE7c7V8jXc3zFUpbF2wJE2oxJrfGit87wLOetbeS/0Gt2Qwvi6zd6WwdcGSNKbSan5rrPAdpTFvGXU2HM6uFLYuWJJGVFLNb81vcEfMtwPnUPsJknXBkjRESTW/fsQ9vhq/IpmpFLYuWJLmUUrN77/gRW7TqPkiya9kMI5hsS5YUucuJn7xGyW1vXFdTbqlsWk13ia5kfSJQPQ4hsW6YEmdKaHmt7YsVHTTlFqLkrZnMIZhsS5YUutKqPmtKTNVt89baKc1zKrk/GJdsKRWlVLzW0s2ACcuuMfadQzwwznGZWJiXbCkVpRS81tDNjH8cbdd8XHJecW6YEmNK6Hmt4bMVPjmpsZK4VxjXbCkxpRQ89v3zFfhm5tTgVuJn6/aY12wpKmVUPPb54xS4ZubWhsXc4p1wZKmUkLNb58zboVvbmqsFM4p1gVLmkgpNb99zLQVvrmpsVI4l1gXLGkspdT89i1NVvjmptZK4RxiXbCkkf0l8YtWbbkeOHaUnVO4dcBVxM93bbEuWNJQ1vx2my4qfHNTa6VwdKwLljQva367S0SFb26sFO421gVLmpM1v90lusI3N8eQvgKJ3i81xLpg/ZtF0QPI2GrSbXCHk27FWgusAVYCK0h/vawY/LebSbfLbRr8+73A7aQrcO8Y5MkOxz6ufYErgVdGD6TntgCfBj5Fur9feywF/gz4JP28CDIn15IKm7ZFD2QBNa2/ysAK4HRS6cp6mv9Y8m7gs8Bbye+2HGt+20+uFb65sVK4m+RWF1zz+qsg+wPvB75Lt213O0h/cZ9H/F87HyV+MepzSqnwzY2Vwu0nui7Y9VedWwScCXyV9JFs9C/hFuArgzF1/ZXMGaTK0Og56GNKrPDNjZXC7SaiLtj1VyEWkxrJ1hN/0M2XH5Nuj1ra0hzMZs1veym9wjc3Vgq3l67qgl1/FWIJcC7pQpDoA2zU3A68j/bau6z5bSd9q/DNjZXC7aTNumDXX4U5BriO+ANq0twInNDwnFjz23z6XOGbGyuF20kbdcGuvwoxUzDSh++3ZwpjntvQ3Fjz22xqqfDNjZXCzaepumDXX4V5Lf2sGH2E6S/Ysea3udRY4ZsbK4Wbz7R1wa6/CrGU9NFgn2tFd5POrJdNMD/W/Da3D2qv8M2NlcLNZdK6YNdfhVlDXR8HXgccNsb8WPPbTDYAJ40x7+rWsVgp3ETGrQt2/VWYI4H7iT8ous6DwFEjzM++pOrP6PGWnM2kv26WjzDfirWU9NXME8QfNyXnGmCfEebb9VdhTgEeJ/5giMpGUpnPQqz5nS5W+JbJSuHpM6wu+BRcf4etv2rJG7Eh7GlgK3DOPHNkze/kscK3H6wUni7z1QW7/qYstP6qJW+mH7eYNJWdwJv2miNrfieLFb79Y6Xw5JmrLtj199lztPf6q5acgr/Ic2Ubez6OsuZ3sljh229WCk+W2XXBp+D6O1dmr79qyTp8Y1soT5CuUv9pBmMpKVb41sVK4fFzG2ltcf2dP0/ghYGtORR4iPidnHu2ZjCGUmKFb72sFB4/ztXwPAgcghq1lLruMzXtZz1W+Cp9qng18cej6U+uxbKgRn2a+J1q+hErfLU3K4VN02nquQrVO5tUwRi9Q03ZscJXw1gpbJrKbuANaCq/jmflZvpY4atxWClsmsjDwHPIWNPPf27aJcDvRQ9CxdoCfIr08e7PY4eigjwA/C3p66ITGa0SV9rbCmB/4FvRAynRcfhRnJk8VviqCVYKm2myCzgejWUJ8CPid54pL1b4qg1WCptJs578P23PyrnE7zRTVqzwVdusFDaTxqKxES0Bbid+h5lyYoWvumSlsBk3t+KtxyN5O/E7y5QRK3wVyUphM07eiha0CLiZ+B1l8o4VvsrFCqwUNqPlJtJ7nOZxJvE7yeSd9aQ7RKScWClsRslryEhu30m8N3oAytZjwPnAK0glLVJObgZeRVrDfhU8FuXLryznsRrYTPwZmskrVviqNFYKm/myhVQOlIWcvo/4APD56EEsYCPwj8CVpO9yfg48Pvj/DgAOA14GnAa8FljV/RAlqZf6tP6eR2qa1CzfJf7sbK48APwx6fnho9qPdEJzZwbjN8aYUtPH9ffyMV5LFVaTruyO3jGzswX4c9JVvpOaKQ7ZmsHrMcaYUtLn9Xc7sHKK19U7ryN+p8zOnaSreptyIvBQBq/LGGNyTw3rbxZ15bncBXBa9ABmmbma9+YGf+Y1pFvXftLgz5Skvqll/c3iPS+XiwBvIl3AEe0h0m1m97b0819IuoXthS39fEkqVU3r7w3AsdGDyOEEYDXpHu/oTyO2kp749YOWt3MiqbveZ4xLUlLb+rubdDvgpshBRL/pAqwlj3F8ivYPPkgfR13QwXYkqRS1rb+LSe994YOIdnj0AIAHgc90uL3PAHd3uD1JylWt62/4e58nAMknSS2EXdkOXNzh9iQpV7Wuv+HvfTmcAEQ/x/1JUtVs175C8Pc/khSs5vXXEwDg4ODtf4tUOtG1zcC3A7YrSbmoef1dE7z9LE4AojubrwjctpWQkmpW8/ob/d6XxQnA6uDtbwjcdpNlF5JUmprXX08AiO9Evidw2z8L3LYkRat5/Q0/AcihCGgbsDxw+/uQrgqN2vbWoG1LUrSa199twL6B28/iEwBJktSxHE4ANgZvP/IahP0Dty1J0Wpef6Pf+7I4AYi+F/OwwG2/KHDbkhSt5vXXEwBSEUSklwduO4cnIEpSlJrXX08AiJ+EyOcyvzpw25IUreb1N/qP3yxOAO4L3v7riLkVcQVwVsB2JSkXNa+/9wZvP4sTgNuDt78SeFvAdt9JfAeCJEWqef29I3j7ngAMfAxY1uH2lg+2KUm1q3X9DX/v8wQg+S3gQx1u76PEX4EqSTmodf0Nf+/LoQlwFfA48Scj24BTgWtb3s5JpIdQ7NPydiSpFLWtv7tJPQSht8FHv+lCugsg+qEMkA6Ir9PuIxoPBf6e+INPknJS2/p7I/EdOFmcAEDsIyFnO4j0jOg2DsJDSc++PqiFny1Jpatp/b0yegCQzwlAFpMxcCTwI+DkBn/mCcB1g58tSZpbLevv5dEDyMlqYAfwdEbZCnyC6W4VWQ58fPCzol+PMcaUkj6vv9unfF29dCXxO2auPAT8Kak4YlQrgT8iPW86evzGGFNq+rj+XjbGa2lVDncBzDgP+JvoQSxgE+n7qSuAm4B7SHcvABxAeqjFUaRqy7MZ74CVJM2vT+vvucAXowcBeZ0ArAYeBPaLHkjPbQGeT/wzGCTlw/W3G1mtv7lcBAjpwQjfiB5EBb5OJgefpGy4/nYjq/U3pxMAyORjkZ77UvQAJGXpi9EDqIDr7wIWARuIv0ijr7mJvL72kZQP19/K1t/cPgF4GrgwehA99t9IcyxJe3P9bZfr7wiWALcRf7bWt9xCfid8kvLi+lvR+pvdgIBdwEXRg+ihT5EeQCFJ83H9bYfr7xgWk6obo8/a+pL1pDN7SRrG9df1N9yxpLPR6J1XenYBx48595Lq5vrr+hvus8TvwNLzV2PPuiS5/rr+BnsO8AjxO7HUPAwcOPasS5Lrr+tvBs7Cj6ImyW7g9RPMtyTNcP11/Q13MfE7tLT8xUQzLUnP5Prr+htqKfB94ndqKbkWWDbRTEvSM7n+uv6GW0N6WlX0zs099wMHTzjHkjQX11/X33C/CzxK/E7ONU8AL594diVpfq6/rr/hTgaeIn5n55ZtwOlTzKskDeP66/ob7s3ATuJ3ei7ZCbxpqhmVpNG4/rr+hnsjsIX4nR+drcA5U86lJI3D9df1N9zJwOPEHwRR2QicMfUsStL4XH9df8MdCdxH/MHQdR7EC04kxXL9VbhDqOs+1euA32xi4iRpSq6/CrcUuIB+11buBi7BkglJeXH9VRbOJj2EIfpgaToPA2c2OE+S1DTXX4U7gHSm1odbVXYBlwLPbXSGJKkdrr/KwtGkXubog2jS3AC8svFZkaT2uf4q3BLgPcCtxB9Qo+YW4N3A4hbmQ5K64vqrLCwmPZ/5euIPsPlyM+mXZUlLcyBJEVx/lYVFwGuAvwM2E3/QbQa+TCqUWNTi65akaK6/ysYq4FzgcmAH3R1024HLgPcOxiBJtXH9DeYZzx77ASeSnuj0KuB40r2tTdgN3AZcRTrw/pn06EhJkutvCE8A5rcSWAscPitrBv/7KtKtLisH/+0mUif2xkHuA24nHXR3DLKpw7FLUslcfyVJkiRJkiRJkiRJkiRJkiRJkiRJkiRJkiRJkiRJkiRJkiRJkiRJkiRJkiRJkiRJkiRJkiRJkiRJkiRJkiRJkiRJkiRJkiRJkiRJkiRJkiRJkiRJkiRJkiRJkiRJkiRJysT/BwzUg4V0LLrWAAAAAElFTkSuQmCC;" vertex="1" parent="nbEl6hGqwunhnrMHJr0G-16">
          <mxGeometry x="30.089999999999996" y="452.2906300484653" width="95" height="95" as="geometry" />
        </mxCell>
        <mxCell id="nbEl6hGqwunhnrMHJr0G-23" value="&lt;font style=&quot;font-size: 16px;&quot;&gt;BI &amp;amp; Reporting&lt;/font&gt;" style="text;html=1;align=center;verticalAlign=middle;whiteSpace=wrap;rounded=0;" vertex="1" parent="nbEl6hGqwunhnrMHJr0G-16">
          <mxGeometry x="40" y="222.5379644588045" width="90" height="30.48465266558966" as="geometry" />
        </mxCell>
        <mxCell id="nbEl6hGqwunhnrMHJr0G-24" value="&lt;font style=&quot;font-size: 16px;&quot;&gt;Ad-Hoc SQL Queries&lt;/font&gt;" style="text;html=1;align=center;verticalAlign=middle;whiteSpace=wrap;rounded=0;" vertex="1" parent="nbEl6hGqwunhnrMHJr0G-16">
          <mxGeometry x="35" y="385.1227786752827" width="100" height="30.48465266558966" as="geometry" />
        </mxCell>
        <mxCell id="nbEl6hGqwunhnrMHJr0G-25" value="&lt;font style=&quot;font-size: 16px;&quot;&gt;Machine Learning&lt;/font&gt;" style="text;html=1;align=center;verticalAlign=middle;whiteSpace=wrap;rounded=0;" vertex="1" parent="nbEl6hGqwunhnrMHJr0G-16">
          <mxGeometry x="10" y="548.8253634894992" width="140" height="30.48465266558966" as="geometry" />
        </mxCell>
        <mxCell id="nbEl6hGqwunhnrMHJr0G-26" value="&lt;font style=&quot;font-size: 24px;&quot;&gt;&lt;b&gt;Data Warehouse&lt;/b&gt;&lt;/font&gt;" style="rounded=0;whiteSpace=wrap;html=1;strokeColor=light-dark(#fbfbfb, #ededed);fillColor=default;fillStyle=solid;" vertex="1" parent="1">
          <mxGeometry x="443.27" y="220" width="199.99999999999997" height="40" as="geometry" />
        </mxCell>
        <mxCell id="nbEl6hGqwunhnrMHJr0G-27" value="&lt;font style=&quot;font-size: 18px;&quot;&gt;&lt;b&gt;Gold Layer&lt;/b&gt;&lt;/font&gt;" style="rounded=0;whiteSpace=wrap;html=1;fillColor=#FFD564;strokeColor=light-dark(#FFD564,#FFD564);" vertex="1" parent="1">
          <mxGeometry x="743.27" y="260" width="160" height="40" as="geometry" />
        </mxCell>
        <mxCell id="nbEl6hGqwunhnrMHJr0G-28" value="&lt;font style=&quot;font-size: 18px;&quot;&gt;&lt;b style=&quot;&quot;&gt;Silver Layer&lt;/b&gt;&lt;/font&gt;" style="rounded=0;whiteSpace=wrap;html=1;fillColor=#B4B4B4;strokeColor=#B4B4B4;" vertex="1" parent="1">
          <mxGeometry x="503" y="260" width="160" height="40" as="geometry" />
        </mxCell>
        <mxCell id="nbEl6hGqwunhnrMHJr0G-29" value="&lt;font style=&quot;font-size: 18px;&quot;&gt;&lt;b style=&quot;&quot;&gt;Bronze Layer&lt;/b&gt;&lt;/font&gt;" style="rounded=0;whiteSpace=wrap;html=1;fillColor=#FFA571;strokeColor=#FFA571;" vertex="1" parent="1">
          <mxGeometry x="263" y="260" width="160" height="40" as="geometry" />
        </mxCell>
        <mxCell id="nbEl6hGqwunhnrMHJr0G-30" value="" style="html=1;verticalLabelPosition=bottom;align=center;labelBackgroundColor=#ffffff;verticalAlign=top;strokeWidth=2;strokeColor=#000000;shadow=0;dashed=0;shape=mxgraph.ios7.icons.data;fillColor=#FFA571;" vertex="1" parent="1">
          <mxGeometry x="303.27" y="389" width="80" height="90" as="geometry" />
        </mxCell>
        <mxCell id="nbEl6hGqwunhnrMHJr0G-31" value="" style="html=1;verticalLabelPosition=bottom;align=center;labelBackgroundColor=#ffffff;verticalAlign=top;strokeWidth=2;strokeColor=#000000;shadow=0;dashed=0;shape=mxgraph.ios7.icons.data;fillColor=light-dark(#FFD564,#FFD564);" vertex="1" parent="1">
          <mxGeometry x="783.27" y="389" width="80" height="90" as="geometry" />
        </mxCell>
        <mxCell id="nbEl6hGqwunhnrMHJr0G-32" value="" style="html=1;verticalLabelPosition=bottom;align=center;labelBackgroundColor=#ffffff;verticalAlign=top;strokeWidth=2;strokeColor=#000000;shadow=0;dashed=0;shape=mxgraph.ios7.icons.data;fillColor=#B4B4B4;" vertex="1" parent="1">
          <mxGeometry x="543.27" y="389" width="80" height="90" as="geometry" />
        </mxCell>
        <mxCell id="nbEl6hGqwunhnrMHJr0G-33" value="" style="shape=flexArrow;endArrow=classic;html=1;rounded=0;endWidth=24;endSize=8.33;width=18;fillColor=#b1ddf0;strokeColor=#10739e;exitX=1;exitY=0.35;exitDx=0;exitDy=0;exitPerimeter=0;" edge="1" parent="1">
          <mxGeometry width="50" height="50" relative="1" as="geometry">
            <mxPoint x="416.53999999999996" y="509.99999999999994" as="sourcePoint" />
            <mxPoint x="508.27" y="510" as="targetPoint" />
            <Array as="points">
              <mxPoint x="466.53999999999996" y="509.99999999999994" />
            </Array>
          </mxGeometry>
        </mxCell>
        <mxCell id="nbEl6hGqwunhnrMHJr0G-34" value="&lt;font style=&quot;font-size: 16px;&quot;&gt;Raw Data&lt;/font&gt;" style="text;html=1;align=center;verticalAlign=middle;whiteSpace=wrap;rounded=0;" vertex="1" parent="1">
          <mxGeometry x="263.27" y="486.38" width="160" height="41" as="geometry" />
        </mxCell>
        <mxCell id="nbEl6hGqwunhnrMHJr0G-35" value="&lt;font style=&quot;font-size: 16px;&quot;&gt;Cleaned, Standardised Data&lt;/font&gt;" style="text;html=1;align=center;verticalAlign=middle;whiteSpace=wrap;rounded=0;" vertex="1" parent="1">
          <mxGeometry x="508.27" y="486.38" width="150" height="41" as="geometry" />
        </mxCell>
        <mxCell id="nbEl6hGqwunhnrMHJr0G-36" value="&lt;font style=&quot;font-size: 16px;&quot;&gt;Business-Ready&lt;/font&gt;&lt;div&gt;&lt;font style=&quot;font-size: 16px;&quot;&gt;Data&lt;/font&gt;&lt;/div&gt;" style="text;html=1;align=center;verticalAlign=middle;whiteSpace=wrap;rounded=0;" vertex="1" parent="1">
          <mxGeometry x="743.27" y="487.38" width="160" height="40" as="geometry" />
        </mxCell>
        <mxCell id="nbEl6hGqwunhnrMHJr0G-37" value="" style="endArrow=none;html=1;rounded=0;strokeColor=#FFA571;entryX=0.938;entryY=0.707;entryDx=0;entryDy=0;entryPerimeter=0;" edge="1" parent="1">
          <mxGeometry width="50" height="50" relative="1" as="geometry">
            <mxPoint x="273.18999999999994" y="540.4100000000001" as="sourcePoint" />
            <mxPoint x="413.26999999999987" y="540.4770000000001" as="targetPoint" />
            <Array as="points">
              <mxPoint x="343.19" y="540.4100000000001" />
              <mxPoint x="393.18999999999994" y="540.4100000000001" />
            </Array>
          </mxGeometry>
        </mxCell>
        <mxCell id="nbEl6hGqwunhnrMHJr0G-38" value="" style="endArrow=none;html=1;rounded=0;strokeColor=#B4B4B4;entryX=0.938;entryY=0.707;entryDx=0;entryDy=0;entryPerimeter=0;" edge="1" parent="1">
          <mxGeometry width="50" height="50" relative="1" as="geometry">
            <mxPoint x="513.23" y="540.4100000000001" as="sourcePoint" />
            <mxPoint x="653.31" y="540.4770000000001" as="targetPoint" />
            <Array as="points">
              <mxPoint x="583.23" y="540.4100000000001" />
              <mxPoint x="633.23" y="540.4100000000001" />
            </Array>
          </mxGeometry>
        </mxCell>
        <mxCell id="nbEl6hGqwunhnrMHJr0G-39" value="&lt;font&gt;&lt;b style=&quot;&quot;&gt;Object Type&lt;/b&gt;: Tables&lt;/font&gt;&lt;div&gt;&lt;font&gt;&lt;br&gt;&lt;/font&gt;&lt;div&gt;&lt;div style=&quot;&quot;&gt;&lt;font&gt;&lt;b style=&quot;background-color: transparent; color: light-dark(rgb(0, 0, 0), rgb(255, 255, 255));&quot;&gt;Load&lt;/b&gt;&lt;span style=&quot;background-color: transparent; color: light-dark(rgb(0, 0, 0), rgb(255, 255, 255));&quot;&gt;:&lt;/span&gt;&lt;/font&gt;&lt;/div&gt;&lt;div&gt;&lt;ul&gt;&lt;li&gt;&lt;span style=&quot;background-color: transparent; color: light-dark(rgb(0, 0, 0), rgb(255, 255, 255));&quot;&gt;&lt;font&gt;Batch Processing&lt;/font&gt;&lt;/span&gt;&lt;/li&gt;&lt;li&gt;&lt;font&gt;Full Load&lt;/font&gt;&lt;/li&gt;&lt;li&gt;&lt;font&gt;Truncate &amp;amp; Insert&lt;/font&gt;&lt;/li&gt;&lt;/ul&gt;&lt;b&gt;&lt;font&gt;No Transformations&lt;/font&gt;&lt;/b&gt;&lt;/div&gt;&lt;/div&gt;&lt;/div&gt;&lt;div&gt;&lt;b&gt;&lt;font&gt;&lt;br&gt;&lt;/font&gt;&lt;/b&gt;&lt;/div&gt;&lt;div&gt;&lt;font&gt;&lt;b style=&quot;&quot;&gt;Data Model&lt;/b&gt;: None (as-is)&lt;/font&gt;&lt;/div&gt;" style="text;html=1;align=left;verticalAlign=middle;whiteSpace=wrap;rounded=0;" vertex="1" parent="1">
          <mxGeometry x="273.27" y="551" width="140" height="172.5" as="geometry" />
        </mxCell>
        <mxCell id="nbEl6hGqwunhnrMHJr0G-40" style="edgeStyle=orthogonalEdgeStyle;rounded=0;orthogonalLoop=1;jettySize=auto;html=1;exitX=0.5;exitY=1;exitDx=0;exitDy=0;" edge="1" parent="1" source="nbEl6hGqwunhnrMHJr0G-39" target="nbEl6hGqwunhnrMHJr0G-39">
          <mxGeometry relative="1" as="geometry" />
        </mxCell>
        <mxCell id="nbEl6hGqwunhnrMHJr0G-41" value="&lt;font&gt;&lt;b style=&quot;&quot;&gt;Object Type&lt;/b&gt;: Tables&lt;/font&gt;&lt;div&gt;&lt;font&gt;&lt;br&gt;&lt;/font&gt;&lt;div&gt;&lt;div style=&quot;&quot;&gt;&lt;font&gt;&lt;b style=&quot;background-color: transparent; color: light-dark(rgb(0, 0, 0), rgb(255, 255, 255));&quot;&gt;Load&lt;/b&gt;&lt;span style=&quot;background-color: transparent; color: light-dark(rgb(0, 0, 0), rgb(255, 255, 255));&quot;&gt;:&lt;/span&gt;&lt;/font&gt;&lt;/div&gt;&lt;div&gt;&lt;ul&gt;&lt;li&gt;&lt;span style=&quot;background-color: transparent; color: light-dark(rgb(0, 0, 0), rgb(255, 255, 255));&quot;&gt;&lt;font&gt;Batch Processing&lt;/font&gt;&lt;/span&gt;&lt;/li&gt;&lt;li&gt;&lt;font&gt;Full Load&lt;/font&gt;&lt;/li&gt;&lt;li&gt;&lt;font&gt;Truncate &amp;amp; Insert&lt;/font&gt;&lt;/li&gt;&lt;/ul&gt;&lt;font&gt;&lt;b&gt;Transformations&lt;/b&gt;:&lt;/font&gt;&lt;/div&gt;&lt;/div&gt;&lt;/div&gt;&lt;div&gt;&lt;ul&gt;&lt;li&gt;&lt;font&gt;Data Cleansing&lt;/font&gt;&lt;/li&gt;&lt;li&gt;&lt;font&gt;Data Standardisation&lt;/font&gt;&lt;/li&gt;&lt;li&gt;&lt;font&gt;Data Normalisation&lt;/font&gt;&lt;/li&gt;&lt;li&gt;&lt;font&gt;Derived Columns&lt;/font&gt;&lt;/li&gt;&lt;li&gt;&lt;font&gt;Data Enrichment&lt;/font&gt;&lt;/li&gt;&lt;/ul&gt;&lt;/div&gt;&lt;div&gt;&lt;font&gt;&lt;b style=&quot;&quot;&gt;Data Model&lt;/b&gt;: None (as-is)&lt;/font&gt;&lt;/div&gt;" style="text;html=1;align=left;verticalAlign=middle;whiteSpace=wrap;rounded=0;" vertex="1" parent="1">
          <mxGeometry x="513.27" y="551" width="140" height="280" as="geometry" />
        </mxCell>
        <mxCell id="nbEl6hGqwunhnrMHJr0G-42" value="&lt;font&gt;&lt;b style=&quot;&quot;&gt;Object Type&lt;/b&gt;: Views&lt;/font&gt;&lt;div&gt;&lt;font&gt;&lt;br&gt;&lt;/font&gt;&lt;div&gt;&lt;div style=&quot;&quot;&gt;&lt;font&gt;&lt;b style=&quot;background-color: transparent; color: light-dark(rgb(0, 0, 0), rgb(255, 255, 255));&quot;&gt;No Load&lt;/b&gt;&lt;/font&gt;&lt;/div&gt;&lt;div style=&quot;&quot;&gt;&lt;font&gt;&lt;b style=&quot;background-color: transparent; color: light-dark(rgb(0, 0, 0), rgb(255, 255, 255));&quot;&gt;&lt;br&gt;&lt;/b&gt;&lt;/font&gt;&lt;/div&gt;&lt;div&gt;&lt;font style=&quot;&quot;&gt;&lt;b&gt;Transformations&lt;/b&gt;:&lt;/font&gt;&lt;/div&gt;&lt;/div&gt;&lt;/div&gt;&lt;div&gt;&lt;div&gt;&lt;ul&gt;&lt;li&gt;Data Integrations&lt;/li&gt;&lt;li&gt;Aggregations&lt;/li&gt;&lt;li&gt;Business Logics&lt;/li&gt;&lt;/ul&gt;&lt;/div&gt;&lt;/div&gt;&lt;div&gt;&lt;font&gt;&lt;b style=&quot;&quot;&gt;Data Model&lt;/b&gt;:&amp;nbsp;&lt;/font&gt;&lt;/div&gt;&lt;div&gt;&lt;ul&gt;&lt;li&gt;&lt;font&gt;Star Schema&lt;/font&gt;&lt;/li&gt;&lt;li&gt;&lt;font&gt;Flat Table&lt;/font&gt;&lt;/li&gt;&lt;li&gt;&lt;font&gt;Aggregated Table&lt;/font&gt;&lt;/li&gt;&lt;/ul&gt;&lt;/div&gt;" style="text;html=1;align=left;verticalAlign=middle;whiteSpace=wrap;rounded=0;" vertex="1" parent="1">
          <mxGeometry x="753.27" y="551" width="140" height="240" as="geometry" />
        </mxCell>
        <mxCell id="nbEl6hGqwunhnrMHJr0G-43" value="" style="endArrow=none;html=1;rounded=0;strokeColor=light-dark(#FFD564,#FFD564);entryX=0.938;entryY=0.707;entryDx=0;entryDy=0;entryPerimeter=0;" edge="1" parent="1">
          <mxGeometry width="50" height="50" relative="1" as="geometry">
            <mxPoint x="753.1899999999999" y="540.4100000000001" as="sourcePoint" />
            <mxPoint x="893.2699999999999" y="540.4770000000001" as="targetPoint" />
            <Array as="points">
              <mxPoint x="823.1899999999999" y="540.4100000000001" />
              <mxPoint x="873.1899999999999" y="540.4100000000001" />
            </Array>
          </mxGeometry>
        </mxCell>
        <mxCell id="nbEl6hGqwunhnrMHJr0G-44" value="" style="shape=image;verticalLabelPosition=bottom;labelBackgroundColor=default;verticalAlign=top;aspect=fixed;imageAspect=0;image=data:image/png,iVBORw0KGgoAAAANSUhEUgAAAgAAAAIACAYAAAD0eNT6AAAABHNCSVQICAgIfAhkiAAAAAlwSFlzAAAOxAAADsQBlSsOGwAAABl0RVh0U29mdHdhcmUAd3d3Lmlua3NjYXBlLm9yZ5vuPBoAACAASURBVHic7N15YFTV2Qbw5zl3JgnIFggJq+wgRFBkTcgyQAg7shh3bV2pba12tf2qLa1dbGs3bbXWutQVCYKAskMCJOybQgANi4iKohRBhSwz9/3+mCUzk5mQhISwvL+W5M6de889d9rMee9ZAaWUUkoppZRSSimllFJKKaWUUkoppZRSSimllFJKKaWUUkoppZRSSimllFJKKaWUUkoppZRSSimllFJKKaWUUkoppZRSSimllFJKKaWUUkoppZRSSimllFJKKaWUUkoppZRSSimllFJKKaWUUkoppZRSSimllFJKKaWUUkoppZRSSimllFJKKaWUUkoppZRSSimllFJKKaWUUkoppZRSSimllFJKKaWUUkoppZRSSimllFJKKaWUUkoppZRSSimllFJKKaWUUkoppZRSSimllFJKKaWUUkoppZRSSimllFJKKaWUUkopdZ44dOhQo08//fSeL774Ir6h86KUqszR0BlQSl1YPv744wSPyB0WeZ9tS9vS0tKvALzY0PlSSoXSAEApVSfef//9LqR1v8fjuZM0jQUAKRDhFGgAoNQ5hw2dAaXU+a24uPgqy3LebwxuIOkgDWgIQ4I0MIanALRu06bN1w2dV6VUBa0BUErVmIiwuLh4JMn7SDNBYEPEAPA+9UMIIUAIRNjIGI4GMKdhc62UCqYBgFKq2oqKimJIXv/ee+/9BGAy6KtGFEAoIAiRiEHAFGgAoNQ5RZsAlFKnVVxc3KykpOQ2GvMjQ9OBpK+aP7S6P9q2MTx+9GhSYnIyyxr6XpRSXloDoJSKauvWrZ0sy7r/5KlTdxqaJsFP+oFtIfwd/oKf+sNqAJq3bv1ZFoCFDX1PSikvDQCUUpVs2LC9p8Ph+RnAm2yB0wAQCECCkYIAX9U/KIDNTWJkISm/gJD+IMC25WZoAKDUOUObAJRSARs3bkwW4QPG8AYaOgwNQqr7w7aNCVT37zJkLoBXunXr9h4AHDp0qJBkKiuOPWlZVpvWrVt/2cC3qZSC1gAopQCsX7++n23jR7YtN5KwBBVP+kC0p37ssm3mGmPP7Nm9154Iyc4UQSq8x0KEjW3bngLghbN7d0qpSLQGQKmLWH5+YYpx4EFDjjUkaYyv4x4RcdvwS8uYl0XkX5dffvnbVaV94MCBNg6H40PSWEEdApe2aZM0+mzdn1IqOg0AlLoIrVq1qq8IH6JhToRC3ttzP6i63xjugTHPG+Df/fr1O1bd6xw6dGg5yZFBowJsh8NxaUJCwkf1eX9KqdPTJgClLiIrV65MFsGvPbZMIf0d9+kbyy/ebQEAgZAlBsgl8a8rr7xybS0v+aoIRnovBAhoPB7PdQD+Ulf3pJSqHa0BUOoisHDhim6WQ2YY8kYaGuN74id9VfOh20cMzd8B+6khQ4YcPZPr7vnss6aXlJR8RJqmQc0AO9u0SepbV/emlKodDQCUuoAtXLiwg9D6sUVMpzGxwQV+hKr/9w2tv8XEOJ4eOHDgybrKwwcfHPqHMfxO6ORAHJaUlFTbWgWlVB3QJgClLkALFy5s5rbxf7bgPgOJ81bte8fxe4fre6v7AcBADgL4dXlZ+QvDhw9313VeROwnRKxvk96ZgbyTBmE6AA0AlGpAWgOg1AVk1qxZVmxso7tA/MrQJHo79EWdsvcwLfPbxISEp5OTk+t1it5Dhw6tJM3woDyciouLbd+iRYtqdyhUStUt09AZUErVjdmz3xjtcMS8bYv9JASJAoF3ej7fLH4iEO/2KYj9cHl5WY/hmZn/rO/C3+efvl6A8OWoUVlZ2S1n4bpKqSi0BkCp89zs2bOTRfgoDcf4n/SjPPULwZmWxZ+OGjXqg7OZRxGxPvzww3eMMX2CaiCKkpKSLj+b+VBKVdAAQKnz1HPPzW3RqFHZb2nM3aRxmLCCP2z7PcvwW2PGjMlrqPweOnRoKmle9+fTt0pgemJiYkFD5Umpi5k2ASh1HnrllVduiI0r3S3AtyFwAAIRfxV7SNV/GQQPN24Ud0VDFv4A0KFDh7mAbJKKZgCI4P6GzJNSFzOtAVDqPPLsyy93ddryTxozxvcEXdVTv3/7sGVYIMYUOsiC7OzsraR3up+z7YMPPs62LFkS1AzgAdArKSlpX0PkR6mLmQYASp0HnnrqKWdcXOMfg3iQNI2iTdlbRRAQvH3EMtwo5CaHMZvLy8s3jx49+sjZupePPvpoMcnRQasEPpaYmHjf2bq+UspLAwClznHPPPNMGo31L5LJp3/qNzDkcRo2P11AEDwk0DL8AOTbNKbIIneQ3HX8+PHd48aNK63r+zl48GBXh8O5g4aNfXn4KibG2TE+Pv6Lur6WUio6DQCUOkf95S+zGjVt+uUjNLyXNAx56q/6Sf9tiOMm45R0IxxtLDOSZNPTTP8bPkcAaIybNAcNsRfG2mdR9hpj9oo4PgLKD+/fv//Itdde66nNvX388cffA/h3/7UA64GkpIQ/1vFHqJSqggYASp2DnnzyP/2NZb9EWn181eQh1f1B22WkiakcEOCFaVOnfgMAnnpqs7Nt2yOplsXRJEbTmP4kGT0IiDpVsDf9im2b5BEafkqYj4zBEdL6iDSfGiNHHA7HlyJyCsAJkl+KxJ1yOt1fXXrppScA2IcPH55Lmqt9QcCHrVu37kqyvGE/eaUuHhoAKHUOmTVrlnX06LEfg/gVaWIqP/UHCuPFhviNMSYWNEtJY4Ufa2junzLl6r+HX2PJkiWJts1sY5nRhhhOY9pXXStQ9VLBrGLbn+cIsxCWkqbcGDbxDwm0LPPNhISE/zbE567UxUgDAKXOEX/965OdY2LkBdCkV/HU/xksfuu2W2+d4z/v1Vdf+yWIGRGaBDykdc2UKRPfqOq6eXl5nT0epFmWGUYijcb0IStWDDxdrUAdBQQgTXHr1gm96R0ZoJSqZxoAKHUO+NvfHrvVWNbjJJsFCslKQYDZTNhTb7/99kPB586YMcP06NVnqWUwMkIQcBIww6dMmbixunlZs2ZNvIik0pg0Q6bRmIGkiatcyFermSB6EBAhIDDG3JKQkPBS3X/CSqlwGgAo1YBmzHgurnnzE/+iMd/wFogROul5C/PCRnGx426++eYTkdJ55ZVXkmg5NhuyQ4Qg4KjDYVwTJkzYWZs8Lly4MDY+Pn6gMY5UEgNo2J803Y23Z2LVBX7kJ/2qagX2JCQkXK61AErVPw0AlGogf/7znzsC1us0HBTxqbhie1eM0xp22223VTlMbubMmYNAs9rQxEUYLfCJw2Eyx48f/15d5L2goKBpXFyTK4xBf2PxCkOTTPIyGraoRdU/gqcHJnFj69atX62LfCqlotMAQKkG8Oijj2bYMLMMmRT9qd+A5JeG0n/69OnVminvtddeuxk0L0YZ93/I4bCGjxs3rt5m3duzZ087j8fT2xjTm2QPkp2MsS4lzaU0aFXNgGBXQkKrviTt+sqnUkoDAKXOukce+eN3aMxfjTFO+trQ/UFApWYAmjvuuefuZ2uS/mu5uX8i+KMocwR87LDMqHHjxu2qr/uL5uOPP25cXl7eGUBLAPGWZcWLmHhjcJsxvCKsL8D1rVq1eu1s51Gpi4kGAEqdJY899ljsVydP/ZPgHabyk36k7fXfvmd6ak3n7Z8xY4bp3bvvy8bC9VGCgGOGGDt+/PgN9XWv1bF37yeJsXHuJww5LbwZwLLM/pYtW/YmWdaQeVTqQqarASp1FghAZ/G7NzU+/sVYAN6V++BdtC94O7BOngA25Ue1WbRnxowZNun5BkQWSeRVAuMFXLJo0aKRdXJztXDw4MGcmJiynRBMC1oZMLBKoG1L16NHj97dUPlT6mKgNQBKnUVLXcMGfhV3ycPHOnfud6xTl3bijI1c9W9M4b3f/XbamVxr4cKFsSdPnsqlMROjTBtcboh7xo4d+0xd3d/pFBcXd7Acjj8bmmsj9AWwSWMq+gLwM5LdW7VqFXHkg1LqzGgAoNRZNisnx2r+0YGfgvj5V4lt5ItLuzb+sl172DFxFQUi+LllWQVCbjIwKxMSmm+qzbz7Tz31lDMhIfEZGt4Sde0A8JENG9b9fMaMGfXW6a64uLgZyAcMeT9pGkcYEviuiH29w+H4L2n6BfUF+G3Lli0frK98KXUx0wBAqQayNPXKKw2sl0QkWUiUtGqNL9u2x9dt26O0VSJgTHBA8Jmx8JzT4Xjq9ttv31/Ta70+d97PDPEb7wx/EUcILLQsc2tWVtbRurzHzZs3O5s2bXo3yF8amtYRnvqFtP7TuHHcj1q1anXi8OHDg40xa0lavn4BJ0WkZ0JCwkd1mS+llAYASjWohWO7xzpPNP8NBT9AUJ8ccTpxqlUCShKSUNI6EaWt28DTqDGMoU2a1x0Wf3Lbbbe9X5Nrvf7GG1kWzPM0bB9l3v+DlmWuHTlyZLVnDYwmLy/PkZiYeB2N+YWh6RlpoiDC7DAG3+/UqdOK4HM/+eTI32hwn6noEPhsfHz8HWeaJ6VUKA0AlDoHLE/tnyIwL5DoHvpHycAfqbtxY5S2ao3SpLYoTWxbWp6Y+Gipbf9u+vTpJ8PTmzVrViMALW2HI94p0lLEtDQOxlPYwxjzAxrGhtUA+AOCMkP8X0FBwV9r0yRQVFTUxO227zCG36dhp4r0QyYHOkjiF126dHkp0lj/I0eONBHBFhr29AUBHssyg1u0aLG1pvlRSkWnAYBS54hlAwY0Z5w8Q3AaEFT0B/2VBv/BitOBsviEUnfz+EOlbdq5y9t2MO6WLZvQWC0NWTEbYNjUvNH6AoRNyFPocFi3ZWZmFlcn7+t37EiKddv3kriHhi2jTA/8maH1O8B+skePHqVVpXfkyJErAawjTZxveOCG+Pj4VJ0cSKm6owGAUueYlWmD7obI4yBi/Psq/aEyuG6ggsQ4Ud4qEe7WiShPbAtPYht4WiWAxopc4AeaASIFBOYkgIeaNWvy+MCBA8srXUuEmzZtyqBl3WHAHJJxURYFescy5vHGjRu/3LFjx1PV/RyOHDnyHZL/CCxvbMxdLVq0+E/1P0mlVFU0AFDqHLQybcAQgK8B6BTyR0ocJWgBaBGyO8JfMn0/JS4O5YlJ8LRuA7fvN1olAA4HIvUFCOsXAJJ7LMv8OD09/U0AKCgoaGeM4xvG4m2k6RFllUAPyXmA9Xjfvr3za/s5HPn881wDXOMLAj63LOuyZs2a1WlHRaUuVhoAKHWOWpyS0jLWKn8ZwBjvXypB4GMSORmrN61fm5qa4HaUd6ewj1B6ARgMYAiBWF8VQUD4H7pYFuyE1vAktoGd2BZ2YltImzZgo8ZRAwJjzDLSlJAYS2MckZcCtjaT8iqA16688soz7rl/9OjRZrbIRkP2Ig1g+O+WLVpMP9N0lVIaACh1TpuVk2MlfHLgTwb8ftDuMgi+7yrY9ET48WtTUhqVOz0pMBhBwTUEeoUcENKtILy7IWC3aAFpnQS7dRLQOgmS2AZIbAPGxFRVQ3DYGD5pWdbM/v37V6vPQE0cPXq0jwg2GMMmJG1jzNDmzZtvquvrKHWx0QBAqfNAftqg20A8CSDWX90vxH+afGV/e+CWLZXa5/1Wpw+9CvTcQMNbACRFLPijfAv4dwstIL4FkNQWSEwCEtsBSW1hktqATqdvBj/ON4bPiMiSSP0FztTRo0dzAL5mDElya/PmzYeQdNf1dZS6mGgAoNR5YnX6wGFCzgGQ6N9HcGlMKXOGbthQ5XS5hZmDU4QsRNDffPR+A76tKpoQAACGQKvWMEltgaS2YJt2sNq0PWYlJs6CM/alK6+8sqDaN1cNR48efZQ0PzSGAPDzFi1a/K4u01fqYqMBgFLnkTVpg7rahksIdAfg+wuWHR6accPzN3xY1bkFrqHPA/KNKgt+Vm4WiHRw5f1BoYNlga0TYeJbHbPf3/cUSk5us0X2tIpp+W6PRYuqHP5XFRFxHDt2bBlJF40ptYwZ0LRp06LapqfUxU4DAKXOM4WpqYlup/stAgOBwB/xQVs4KnP1hqht8AWjhrWj270XQCP/PgIg5AGbPAwiETbbkWwNIImQtvDWNiSCkSoMGLpVxbeJ7y0PnDGfOrr1aGHatCl3tO0oVtv24mzb4YQjvsWXpCk1hscBuC3LOg5jygzwtX+hJN9iSYkkJ/s6H25q1rRpqjYFKFU7GgAodR5akt3vksaljXIBGRvYSXwKYnR63sa3o51XOHzwnwH+IPSJn4+mrlz342jnFOUkx5w81riDG1ZXwnQl7K4CdoWNdjRoC6Br+DmR5i0Ifyf4GDa+BFbrRDjadYSzfUc4k5LgaH8pnO07wLKs4AmK4J8XwLeK4s+aNWv2SLS8K6Wi0wBAqfNUUXJyzP8SGv8X5PWBzn2C/xH2mGGrNkXsJV+YnZrIcvsgiDj/PgIfDc1YfylnoFaz7BVmpyY6RfrCZjJoXw5wAIi+AJzRCvyIIvQ5YEwsnO3aw9m2vTcwaN8Rse07IqZdR1ixMSBZSvKqpk2b7qpN3pW6mGkAoNR5bFZOjtXus4P/BXiTfx+JL2wgKz1vw5ZI56wdPvR5EN8IeQKnjBi6YkNeXeVrbUpKI0dT9KeNwaTJEIgLQHzFBUN+VUOlI8XRrPkXjpatjjKu0e6S3TvnENxpx5XsGrhgS6W1EZRSlWkAoNR5blZOjtX+8w+eg+CWoL/o/9FjslJXr9sWfnzhyNRBRuyKFf8IUPD00JXr766vPMoMmK1r0/oDMkIgEwGkArBCj4pSW1CzbykbwAEBdhrBLhjugGBXbLNju5Nzi8pqmX2lLkgaACh1AZAZMOtWDX1WIN8AAn/YR41BxtAVGypVj68bMXQDiMFBfQGONY0/0eZsFZJbx6a39njsSQQeJtAWQZmuiRqc4gZYDKKItr1TgCIbsvPLsti9w/PztROhuihpAKDUBUJmwKxdNeQlAjcEjdX7wLaslLRlhR8HH7shK+VWEflvaMM7Jw9dvnbe2cjrltEp3UHzTwiyox1T7S+n2nyLSWCrDMBuQHaR3CFAEeF5p//i9e/XIlWlzisaACh1ASnKSY45frTZAkCyAd8wP8p2xCBz6KKKyYLyXK64RlbpYQAtgobwvThk+bpb6zN/eS5XXLM4908h8gAQ0hERAMoFfJ6QuwL7iVkCfkLYcQI0BYwTkBYg4iFoJWArAzStaT6kilc+/wNkm4DbjHCb7XFv2xff8b1rc3M9Nb2WUucqDQCUusDkuVxN4kzJCngXB/JWBpBLHcfKJgRPG7xhZOpLoNwUdOrRg/EdkuqrkNsyJmU0xPwjMIlRMHKtZdvT/1cWs7d5XLlvyWCC4G39F695vqp0Nw8Y4ERC4wRj2e1hox3BDgK0NUAnAbqB6AZBUk3zK5W3vgbwjtiyDcRmC9x4RUrh7tqOnlCqoWkAoNQFaLNrQEK5ca4BcVlgTn/wv0NXrLuNvhJtfVbqNEJmA0Hz/lsmY8iSwjV1mZeN41xtnJ7yvwtwbWBnRaa+APCz/imF//YXpNvGpB0H0Mz3/m/7Lyl48EzzUORyNSmNdXcj0RMGyRAkA0gG0AMCR03SkqCfAE4AskmEG0hscJa7N/RdseHTM82vUmeDBgBKXaDWulK6G0s2AGwZ2Gnw8NBl634BAG9n97uk1L7kM/hnBiRB4I+Dlq19oK7ysHV06jSA/wKRULGXIAARvua2rPsHL8z/JPicbWPSiwHp7p3WgK9dtWjN9XWVn3BFOckx7hMtL7cNBpAygIIBAvQDEBMo4iO2EFSQ8IMEBwGsF2C9wKze36zN29p0oM5FGgAodQFblzU0i8JFBByBsfeU2wYvW/88AGzMSp0HyiR/oQxg96Bla/uc6XU3Zw1obqy4x0D4+hQw6KEfh0CZftWiwkWRzt0+Jq0QRKrv5ZYrFxUMPNP81ERRTnJM+ZfxgwG4aJApglQAjYGgYr6KoCAkIPD+OgFBAcjVFM8az9GyTVWt4KjU2aIBgFIXuI0jU78nlL/7XxMosY2dNnTphi0bRg27k5Cng78IjJEeA5as21vb620bk+YSyPMEO4W9JQSedbvjfjhw+fLj0c7fPjZtLoDJvpfHr1xU0KK2eakLRTnJMWVftRwEiItAJrxzGFwCnD4giBAMAMBJIdbDltUE8o6XxazVoYiqIWgAoNRFYENWyjMEbgfgmzGYB63ymIF0lLS2aQLzBPhW/PnewKVrH6/pNfJcrrjmjdy/oeD7AEzIm8RhCm+7cvGaJadLZ/vYjKdICUxK5BEkXrVozWc1zU992TxggNPRutEPQTwMhPYfkMCPyiS0mSB48wQgK0EudtjW0iuWrj5Q55lWKoIadX5RSp2frEZl99olMUMAJAOEATrZzrKX3m/RcXyXLz46BiI+6GlgBIAaBQBbRqd0N3TPhuCKwE7/VATEW7bwtv6Lq1mI0z4S/GzisEx3AOdEALBtQprL8vCXArjCinQAoasihgcD/kYQAQBW1AoQaAZwsggmu+nB5tHD3jPCxR6RJYwrydepjVV90RoApS4Sm7JTLxfBRgYtByyUH1vACAErVhUEv9jfvF1CdTuubRubPhkizwNo7j098MVSRuIn/RYWPMbTdqWrsGNc2vcEDGqykFv7Lix4sbrn14cdE9Jcts1fAciIeIC3tN8skIMAp0V+O9JplZoHwg8roWClB5hjWWb+uVQTos5/5vSHKKUuBIOWrt1pwB/4X5OAAX8L0tchjd7/EC26nPhwwOnSkxkw28ek/R4ic0A0J71p+gr/TyEYecXCgr/XpPAHAJs84p3ByPvPNqZbTc6vSzsnpF3xzvj0RWIzj0BGULYCBLIMgqwrFhUMAs0J/5M+wZ8L8SsIFhM4xvATEfjEQxINOyxOiHGG+I/tsQ9vHjUsb3N26r0bszM61ttNq4uGNgEodREZuKzwX5tGp46lYJJvV4wIJwRXXQMAxRoBYGPlFLzezs6+ZPv6ky+CmBKhGnGL5TFT+i5dfahWmbR5hEYCGaJEmDionm0b4+rssORhEftGAkbCb1IgBOaB8psr3ioIrLpogCFCb8FuyLlXvLVmt/dw8J0xw3rCcDCBdAEyRNDLf16geSC0acC/6T2GsAC4BHQZuP++OTt1EyBzScw+k06b6uKlAYBSFxnL5j02JRNAc3if+ENqAn3TB48E8Eik87dPSGnv8Zycb4Crwt8z5FtfXeLOSc0tOFXrDBpzBEGT60mkmQPrSfHYIc1KrLgHIfZ9AGICQUhQbgRYTNgP9V1YuDn43M1ZWc2B0sv8r8tt+dy/TUCwuPBdAO8CeBEAisa52pSjPENsZkAwAkTvaIGABCVE7wEU70yPg0Xw+03ZqetIvhDj4Gv93io4VpefibpwaR8ApS5CW7LT7gbkqcpV0oGNr+3PSuLDx6tvH5fWk4JlAlwaeh5ByqyyT0/dfKZj3N+ekppolTuCZ9M7evmbqxOinlAHZAbMzk0Z3yTxOyB02uCK9nvJN8Z6KHlBfkGkNN4Zn5YF4TLfS0/fwWtiajJN8NZxqZ2MzTEiHANipHftg9A+AiFtKVJ5EiIBSiBcYGi/cKIsdrEOL1RV0QBAqYuQANyanZoHMhMIKfh9vwhjMPSKhQUb/G9tH5vRH7AXA0isOJy+x1s8994lbe6qixnvZuXkWH1OfVqGoD5Kttgt6+vJdsf4jFRDPiaQaP0e9gjtH/ddUPBmlelMyJghIr/0vpJP+71V0Ka2eSrKSY5xf9UqzRbPGAHHANI3YhAAQMJ6GAa9/BQir3jEfn7oig3v1DYv6sKlAYBSF6lNY4b1MoIdBJwAAmPYKoIB+XH/RYWPAsC28RmptO2F8PX0D3RcA0Dh3D1NknLqcrrbogkZRwC09r8WcvDlC1Ztqqv0AeCd8WnxDsv6gwjuREgtf6AwPQrIjFOHTz5VnVqNHePT8wC6AICw11z+VkHkEQO18PZYVwcbZWNFOAaCLADNTlsbEBoprBXyMXO0ZI7OQqj8dBSAUhepQYsL3yXxL3+3cwYX/gAAkw4AW8cNG+gv/L1V/RWFvwBrv2pSflOdz3VPHkFgWAGBOu4HsHtixo0OY+2G4C6GPwiRbiH+VuYw3ZPfXPOP6hSYB1yuOJBDK/aY3XWZ3ysW5X/Yf9Hap69aXDitqWmWKMJJRvASAO8Sz4GbqLiVsFEHqRSZabeMfX9jduqDhdmpiVAXPe0EqNRFzHY6f23Kym8hGTLdrrfMlbSto9OusISLBdI8+KkfAAxQ7IiNmXRl7prad/iL7giAZP/lyLoJAHZPdnUWkadEkA0g8MAcdFvrxcN7Ll+4antN0j3V2B5MIC4oMNpV9Rm112PRolIACwAsyHO54lrElo0W8FohJhJoKlLRbZDwzr8cdJ/tRPCwE/LgpqyU12yax4csC+3MqC4eWgOg1EVs4IL8z2nw28COwAM3AKClMVgNoFXwU7/vwbJMKDf0nrviaH3ki+CRsH4JZxQACMA9k1zfgi3vUJAdGM9fMbD/mJD39B6waljywvwaFf4A4DEYEbLDsN4CgGDD8/NL+i9ZO++qJYU3lTazk0BOJTgT4Nf+YyoN8fT+jBXiVoq9aUNWytp1o4ZOkvCaEHXB0xoApS5yTdDs8a/w5f0k2oe/R7JZyOvAhvyiX9D497pGI0ck9Om81gHArnEjOu1x2P8BkBWpjCNkthuO7/adv+JTzK/dNQwxJrSTnuOsd7pLzV13CsBcAHPX5qQ0ch7neANcL8BEAjFhNQEQEKCAghQjnLcxK2XbBsGvB69YN6+mkzep85NGfEopbB+T/n1Q/uJ/HV7dH/JFQazuO2jN8JoMcaupPZNcDwrk4Yqry5He81clVXlSxHSG3w7afwVCAxmfz0F+57I38madSV7fnehKcEM+RaBGVfYmL1jd40zSrEubXa4EiSm/hWLfKWSfytMOS1AnQgAib5P49aDl6+dqIHBh0wBAKYW3s7MvEevk+wASohb+sp74SQAAIABJREFUFU0ANsB1AiywLPN68vz8Op+FbvfVrukQ/AuoaJKwyho177Fo0YnqnL8vJ6u5u9TzpFBuiPQ+BW8KnNMvm7/s4zPNa9Ek180UeREIlJbPJS9YdfuZplsftmSnDbBh3w3BjQCaAP5hg+FjCAARFJH448H4Di/XeSdPdU7QPgBKKVyxdOnXAB8/feFPADQAhhF4RGz7vZ0TMjbsHJ/xwK4JGXX21GsgRyoGAHiVO0qr1Qzw7tWZ6eVl5e+AckPw3P3ef3ICgpt7zc+fWBeFvzevGBPaP4Jr6yLd+jBgacGWQUvXTi9txHYgpsM/3TPDxxAAJJJF8N+ORz/cvnZkypizn1tV37QGQCkFACgandLSbTk+AhAXVuUfeYhZGG9nM+4AOceGZ07f+Wtq3Q6+Z9LwYaAEZtzz9mbndVVV10tOjvVe+dGHAHkQgBXhkI0GvLHHGyv31TZf4YpykmOs0oRPBWjhf3q2hL17LcjfU1fXqG9bRg7p5zGOuwGZDhEHUKkmwIuy0Db8YerSdefNvamqaQCglArYPj79JSO4CUBIr/+qCn+G/gg+ei8Ec8Qyc/rMy9tYk/bkXRMyeliWeS/k0sKf95qX97tIxxfnpLeWcutlgKMivC0A/nQi8cSDA/9dt5Pg7Jo0fDwhb1ZcBh9fNn9Vh/Oh7bzI5WrytaM8m5QJACYI0LpSfwAgfJKhcht8wlNq/Sq9QNccON/pKAClVICx8TSImyIW/pVmzAk89Ye+rnjRHcRPjNg/2TMp88PdNHMp9txesYmreZo25dhGMUfc5e6QFGkijwQonjIyRcrtWQA6RMjI5xTe1OONlUurul5tWZRrBP6nZIKChedy4b8xO6OjgXuCgJNOocxFIC7KyICQBYgggQ2ngdzHGPfN60cO+eUpT6OndL2B85fWACilAgTgjgnpuyHoFTIvYFjhX9E3IELhz7DX4QGE4DMA80nOMWVxK3wT21Ty3uThJQBig3K3pucb+SHT6743dcS9EHmUQEyEJLZY5LSuc1YejHy3Z6YoJyfGKvvsEwDx/n02ZGqfeavm1sf1amtTVlpXY9nXgMyBYGD4tMHBSwkEjQQIfY2gpgDvioj+N3cZ2PcOWblxZb3dgKo3WgOglAogIDuA/wIMVLVHrvKP+tRfueAPT4NoDeAOQO6wY08d3zM58y0DM6eJp8midgsWnAw68jMAHYIii0ANQFFOTkyM5/MnIHJHlFt5ztFcvt3l+byS6Hd7ZqzSz8eQiA8qJEuNuJfX1/VqYsvolO6kdQ0o18CWAQCD2vIR8oQfND1A2MM+dgE4CiA94nHeHX1smOXrRgz9D2PlR0MXbajWKA11btAaAKVUiLfHDOtlLGsPEFZwC58npRXIEQAuAU7/1B+9s2DYcd4Xp0BZTMEcB/BmObmCwFXBOTj5tbNp4+anGtPtfF18BVNYmmUU3Ndt7sp/1eima+HdycPfAORqf6loA8t7z8uP1AfhrNiRndHRY9k3CuQ6CPv790tQo37lJ/qQxYPKQK4mZIHY5s3SxvJZzEn7bQG6hJ4TSDUkQVtwiIZ3p65Yt7iu703VDw0AlFKV7BifsYtE7+B9BG9PfnPVc0U5yTE4lZhOY4+GYAyIvt73K34CVXUWjHQ0woOIMgBuAI1D9gpvoZGHAXSulGnimNBM7TF7eX41b7PWdk1Nb+uwHR9IoBZVQBv39JyfX++BR7DNWVnNHc6SaRTcLEQmfEO7g1cCDJ7sp+J1YNdnABYJZIHH8iwNfoLfNCrlSRF8K+icVQAGiaBxVc0HAnm+zC79/vD87V/U7d2quqZNAEqpSoyRuSIMBAAEAIM2AJCcW1QGFK0AsALAT4qnujqUl9ujQTOGQBaI0IWFQjZOW/D7xQCMAcKbD+SFyocCAPYZI+O75i5/t/p3WXtOj3WrEI6KanGWi8jss3HtzQMGOJ2JjcaQuFlQOgmgdxGioFKfrHgZVq0PADtJvEmxFxQ377Ah0iQ/m7KHjRKR6UFtBe+edMeOcTrLWzpFfiXAbYBYkZoPCH4zlrHZa0YM/Vb6yvUL6udTUHVBawCUUpUUjUsbIsasB4La/IV/T34z//6qzstzuRzt4jFUbIwBMIaQ/iB9E46xOgW/97gqvpkqvUUUumPsyb1ezf+8qrzVFZkxwxS/vXoPID2CHnvf6jkvb0J9XvftMcN6GYfjDoH9DQgSIz/RB1XpV7xZBjDfFnuBoefN/ovXv1/VddaPHdLMcls7AFzqmyVQYOgavHTtav8xG4cPS7aN/QdAxkfrROgLOl6KNe7vDly+5Xjt71zVF60BUEpVcuSkY0vrJvZXBJoESmN6awCq4hsSVuD79+DeKdmJbinLBjjWAKMAtPalVaOCP1Lg4OMWyDxnqbkEwFkJAPZuWz2eRnoAvo5wAEh5tT6utTYnpVHTkphrALkTNtIhwghP9L5MABT6g4CThCwS4RyPJ+6tgcuXV7sAttzmLwAuDdr1dHDhDwCD8wqLAExYP3LIcAgfA3B5aJYIQiCCm0s9jtS1I1JuSF25bmONPwBVr7QGQCkVUdGE9GWgyfK/JmRVnwWrXbVNT2bMMO+9s2YAYY8hMAaCIQCsaAV/eAfD4HcifXEJsNVQZrlt++Uec/I/rG0+T6d4yoh8AJlBS+t9XWZJm+Tc/K/q6hq7r87oKx5Mt4GbAG+TSminu9BOeL5fx4V4Ex57jttZsnjggi0nUUObR6eOF8EC74QAAICPHeUxyf3z86O2528eMMBZ3tz5AwC/ANC4Ui2AV7kI/m9Y/oY/n8vzJFxsNABQSkVUNDHzFwB+BQSe7PYkL1jVu+qzqu/g+LT4sjjnKNhmNCHXgGjmvxZCNrwvon5ZVe5saAskj4JnTppWryfn5pbVVZ73TR05SCAbgaBe9MQzPebk3Xmmaee5XI7EZjIFIt8BmAnfRSKPxQ+EACcofENsvGY1Pbrc2z+jdraOTW9tezw7ACT5ryPCaYOXF86pzvkbsgd3sd3mHwKMC85sWKfDt8TtvEVnETw3aACglIqoaGLGCIArggrko33mr0qo6+vsnTrimwCepr9JMmT+oehVA9X88vqEwNOwHU92nrPk8BllFMDeqcNnArzO/1oEMOTgbnNWbKptmkXjXG3okLsATIegPRA+FW+lIOAkgDdBzmzyFRd1yc+vk7kOtoweNk9EJvmvT+HcgcsKp9Y0nbUjUnIAeRxAUuQARvbZFqdmrNhQ67UiVN3QAEApFVHx2PTW5Q5zBID/m6K8z/xVkWbcq7V900b8VAS/Y1hZX6ngr1mhH3KcrwAqEeBZ2PLH2s4MWDxteLIRvg3ACirUtnafs3JAbdJ7d2LmIBu4H8Q18M1kWEWHujIAS0jMRJyZX5fNDQCwJTvtbkCeCiqujxthn6uWFdZqxcTV6emtHTHup2HbV0epwfhaRO5KX7WxXvpOqOrRAEApFdXuiZmfCpDo77QXd4KN6uKJU2bMMPveWf03AvcCCKn3J+ARQS6J6yN3FqzAqoYLRFYO4D+2Q37V9dUVn9bkxH3TRswFMNl7A4HC+u7uc1c+Xd00BGDxpOHjbMiP4R23X3lyHd+Bvl+bQL7gEMzstaB+RjlsG5XRwzaebQAuqWjW4D0DlxSe8ZwG61xD7xTKXwVoAl/SweMUbMrv0/M2/Vz7BTQMDQCUUlHtmpiZB8Ll/6JwWrFJ3ecuPXImaRaPHRtrGpe+CEEOgKCnewJAOcCbxcgNRnyFbYVyAM5aFPqRfAnBH6WJ+9Euz58+oDkwbfgQgVknAINK5/+VWHan6jyNF48dG+uJK7mJYv8Qwj7hpV3wrHwCHBIbL9kiL/Z9a/Xumt5YTeS5XI5mseUFAIYE8kEpGJCyNpMzYNfFNda6UroL7RcBDA1cA4A/4KEtr8d9bd86cEvNOy2qM2MaOgNKqXParopNQsTd9EwS25eT1ZxxJYshyAERmBzIV/iXkswxYq2xBCFj6gm6LUt6O8h+BO8HsBBAqT+JSv8Y9q/yMU1BPIyvHe+8n5M94rQZp/mdL9mK5gnKP05X+BePHdvs3cnDfyaxJQeM4BnA9IlSq1EC8GWKjOx91arOyW+u+r/6LvwBoEWsewZ9hT8AECiFyF11VfgDQGr+ur1l0ihdBI8i5Enf+ykIOe1UE2tVwbBh7erqmqp6tAZAKRXVrokZD5B8xPuKsAz693wjf3tt0tozaVQ7h8OziEC/sCp/ACgxlKmdZ69cdOCakT8DELQYEQHglc65y28KTq/4prHNYt1l40RwI8CxqOm8JsHT4BPPlzud9/d4eVGlxWz25wyfRDHzwua+P1ke4+kUbfKhopzRLWPcZfcB+J4ALSrPxe+tC7chu0g+7XHGvpCcu+R/Ncr/Gdo6Oi0LkCUATGA2P/KhqxYX/Ka+rrl2xOAc2+az8DUJhK1TcNBDz5jh+Vv21Nf1VSgNAJRSUe2e6PomKM/5vyosmMye81euPs1plRyY5rrMI2YxgU4RCv+vhebqbrOXrRCA708bWQyiW1BVv9i2XNn19RVRe40fyHG1cdB5qwDfQegkNhFI5QZn7479Arm5c+6Kdf7dH0+c2Lg09uQuAJ0Ch3mryR/vOnvl98KTKc5Jbw238wcEviOQQG1JWOe+U6CdC/DpXnPzC6rOa/3YMXJIUrnTuR2QNv4ymODG46WOYb7JnOrN6pFD+hgP5gDoFWE+g6M0Znx63voN9ZkH5aVNAEqpqAwk0FGOBDwGcTVNo3jKyBSPmAL6ClFfav7C/0uIjOs2e9kKAPjgmlEjwgp/AFhYVeEPAF1y8z/pOGvZHzseKe8G8gYQOyvV+4dc2/+fwC6A6Epw9fvXZv3Iv7s87tRDCMq3r8WiFDb+HJzi+1PT2+6bMvzPxuM8QOKnIJpGeL7aR8EPYiDtes1d9Y2GKvxlBozbGfMCUTGzI4GTHsqt9V34A0DGig27HI0wGIL5Ed5uJba9oiBz4Nj6zofSAEApVQU35ZPggszAY9Xk/OJpIyaSshxAKwDhw/m+oDC765yKGgUb9p3hnfwIPFLd6zE/333pa0tndrRbXAnhHRR8GN4vIDQgqBQIOCj40/vXZL1yMCd7gAA/qJQfwb/8Qwk/nDKy1f5pI//ooXMvyB/At0wyfNcDKBQsp81JPa7M7NljXt5fu7wRfVa9s2Hb+rSfAJIdslPkp4MWF56VhZQAYOiiDSeGDd8whZC/R3j7ElvMvPzMwTlnKz8XK20CUEpFtWdiRheh2Q94CzQxmNh7bv6b1Tl337Tht4vwKcC7al5Yb/+jtrFHd8/N2+I//sMpI1u5HfwIQKx/H4GCTrnL02ub/48nTmxsNyq9TygPAGge/n7E6XUr9rklqF+BeLuvn3Azprun9ERJbGzc98XGDwA0l6A6bG91Or4WyEtCPN7j9byi2ua/rm0bn5EKj70KvvsS70yGy/ovKhzdUEPxVmcO/j6BRxHUF8G3sJEbwDczV296uSHydTHQGgClVFQURxmAivWAPKzWd8Z7k0c8KML/oFLHPALAEQAjggt/ACg3vBWhhT+kBk//kbRbsOBkh1lLf++wHT0oqLRcb3BgguC6AO8vR/ATEkkI8A8nym6Ji4nbL4JfIRBUBI78lJD/c5SWdew+J+9b51Lh/874tHhj26+CQf+bCL+w4L69IcfhZ6za+FcA1wMIH47pAPDf/MxBt539XF0cNABQSkVlOR3lwa9Ju8omAMnJsYqnjnjCGDyM4PK1olw9bGy6IrXp0yAwn76v8H+nU+7yhWd6DwDQNnfRZx1mLcsBzU0kQnrb+5sHKl5Hn3bQgPeI4M8CJITd1wFQvhNjnerSbU7e7zu9dW7NdS8AbRvPSlgHSRr57hWLNtTbwknVlb5qYy7JUQDCm0csCv6Tlz74jNdaUJVpAKCUiupk2cmQAMCmifqdUTx2bOxe9+evQHBP5CPkkMBkdp67vNL49oPXjhoGoA9QUe4a8pG6fjLtOHPJK07afUgzv1L5zgib4WP2ifjQc2QnyG8cPOrp2W123hMdc9edqsv81pW3x6Z/F75ZDIPuZ27/RYXnTPV6Wv6GAhF7BICjYZ+7MZSn8tIH3dxgmbtAaQCglIoqxpKQXuG07YjfGQfHp8Uz7tQyANdGTkkOWMaZ2e31ZcWR37ZDn/AM9neUFrNqkeXTEof1FQVHwNAVB8KbA6KpGJwoj3TJXdmv6+zlL5yN3vO1tX1sRn8CfwrbfbisvOyuBslQFTJXb95mUbIAhM+vYAg8tzJ94LSGyNeFSgMApVRUtsM0CSkLxVRabrZ4qqtDaYxzjYDROusVi9uZ2Tl36YFIb+7LyWouYEjgQOGfmJvrqX3OIzt04+jBnnJsE4o34IgUBJxmu6JDBH988JoRv9589wBnXeezruyZNKwpKTMR1LcC3i52dw5ZsfFoQ+WrKsPyN20XsUbA21ckmMOAr6xMHzy+IfJ1IdIAQCkVFSWmaWjhJ6XBL4snDk8W4VoCyYFDQh+ed1soz+w+b+mhaNcwwI0AGgOBgvYTT+Py588w6yEkJ8f6+PrsBy2RAgA9wqr1Q4XXAkSvDLAEfLDl/1oU7Js2qkedZbYOlXjMkwB6huwk/t1/cWGd9K2oL5mr1+0wHkQKAmIMJHdFxqDUhsjXhUYDAKVUdGKHzP0vpqKn9rtTXGliYQ2AjlHOfgficHWes+ZwVZcgEFr9T/6tOgv0VNcnt2R3OWx9uQrEwwI4qyjQ99fyEoMJe+u+a7Km1vL8evHOuIzpFNwUtvs950nHjyKecI5JK9xURLHHAgifnrmRJbJgVcZVvRsiXxcSDQCUUlWQkADA4asBeHeyazKFS4GwTnF+xJZy4YjTrRx4MGf4AABXBe06XuZ0PHlmea5w+MbRt9oebgdlWFXZAHgzwDPpcNiEIrP3Tx35a5kxo8G/V3eMGzYQlSfZKRHa1yXnn371wnNFxpotW4VmMoCQmicBWoptFq9ISWnfQFm7IDT4/1GVUucwj7QNe13y3hTXtwDOBtAo8klcb3nsrN5zV5y2jdkW686Qfv7kE5EW5KmpgzeOj//ohtGvieC/EDQLGUxQsekG+ZcYT/nlEJkMSLczvCyF8tC+navnFt80ttkZplVrRaNTWgpMLkLb/SGCH/ZfuLZWCzk1JNeqDXkUuQlASJ8QAS61rPKFBcOGndEKlRczDQCUUtEZdgoun21YPxbBkwCs0FnbAla73SXZ1Znu9pNbsi8B5Mag+fdOeSw70tSwNXL4xtHDnVL+NiHXenMmvp8VBLKJsAd3eHXJD0uN4zYQ1wS9GdggZC6k0tj0KlEwyTpVmr9/0sikM72XmpIZMB6H4wUAnUMzxdz+iwueONv5qSsZaza/TsG3w/cL0K+Mpa/Oysmp0RTVyksDAKVUVCLoFPLwTLmhipH5q8ocMv6y+YVfViftkpP2dQAqnpRFnu366opPo59Rtc13D3B+dGP2DFtkuQAd/YV+yPS+gq9t8KftPS1S2s9cvu2D60cNBPin4EMC28SLl85aMfVU6alLQf4UwDFfPkMvHOHzEKC/OOx1e3Nc3Wt7P7Wxc1PazwCE95LfX14Wc84N+aupzIJN/xbiDxHeGt/q8PuR9qvT0ABAKRWVEYmytG5oqUfIIkdzGZOcW/32ZaHcEfTSDVp/jnrwaRzOGdunzfFWG2HjlxAYBJf+FVHAXNvj7tVx5pI/MDfXc2CyqwUFs+CrKg9dFwAb7UbuuwHgsvmFX3aatewPHqCLCP4gQGAoZGitQsWG95LsAo9ZtXeK6/La3ldNFI3NGAHwV2G7Sw3s6wYuX378bOShvrlWb/o/AJXWoiDkh3nDBt4R4RRVBQ0AlFJRCXnadnGCb5Q5Wk+uSc/94mnDkwWoGMolMjPaPAFV5g/gR9dlfddjeTaDuDJSuS/AB4Bc3X7m0qkdc1d+5D/PEet4DkCX4MR8d/QJxTM1/H665S4/3mX28p/aYi4X4K2IuamsncDkFU8bnhzpzbqyfcKI9raFVwUIVIX7gpD7+i4s3Fyf1z6bCNgny8xNFNkFhH7iNvDEyrQBQxooa+clDQCUUhG9nZ19CSBVVmELMOt44vFrk3NzK00QVBVDK3jon7g9Vo2rcA/kuNp8eN2ot2zwcRFp5K2aD6n09wD4a4ynLLn9zGUha89/dF3WfQAnw39GRUlSZhv3NH+gEEm315cVd529YoLQvhqCw/40ELIRIgE2lu+bMrJnxHfP0OYBA5yWuF+DIDF4vwDPXblw9VP1cc2GNG7DhhMeG5NAVHQy9X7uMSJ4ZeGQIQ3WAfN8owGAUiqimJjSfvA9UQY3ewdVlb/Y05lw48B/bymvfHZ0B77piqPILYHOg8Sb3ecu3VmTND7IGTXJMs53AIwNzpeI/59sNsLBHWYu/UFiWLPEoeuzhwj4h7B7ASCwie90nrlybXXy0DU3b36Mjb4imBlc8oc0C1RcoI0H9oo9EzO6oI7FJTV+BMCwwJW9v7Y0P2lV6jR3PisYNqzp6vQhfVZkDMg2lkknsCHCYV3jHO7ztrPj2RZ9Sgyl1EVt16TMewg84f+aCF0xD//p2d81nTNm2DVNd9+0ETcQfMWfkIEM6zy7eoXuJ7dkX1JeZv9FhHcHZ6Yia/IlwIc62C3+EWkq4UM5o1vC2FsFoZ0bAYENPNF51vLv1PR+AGD/NSNyxMbTAJpHCQD8wcZe8UhKrwX54XPd18rOienTxGYuAPpHO8DGUQc9A/osXHuwLq5xthSmpiZKjKerx7a7UdDVNuhKQXsA7UXQEUBTwHeXIbEOgkaieH/akJRRhVvXn907OP84Tn+IUuoi1d/7SxBSxAL/7DUv/17Oy6/txDl3BVIUrO78evUK/w+uGzmopNR+iUBP7xA9BjLk+/J/wzid93Z4eVHE5W0F4CHaz0PQKXivr9Fg1ectjt1fy/tB19krc/fmuLaJx8wmcAUQsfAHgO60OLd47NisHosWlUZOrXp2j0vr6RY+i8BHCQDwkOaGPgvXnJOFf55rQEKMMX1sMZdR0AOCrkLpBkFXG+6mIgB9kSbDR1vUAIWpADQAOA0NAJRSkQnSJOjpWgSAkb9c9saqH9V2md69Oa7usOHyFryERXnktNnIybEO8osHbFtmEPAuvFPxvAsCh0Dce+lry+dVlc6ha7N+CGBixZk+xMFY25lT06aMcN1z8/ceyklJKfE0+icFt0X7iARIQ8ypZwS4pbaf4+aJAxp7xOR6JznypQqANh/ou2jVstrdQd1Z5xraWSxeRkgf2LhMRC4Toje8/SGClluIdvs1/lj+B8qnFPkIMBvtUnmmtnm/mGgTgFKqkqJxrja05GMwuOafAsoaA7MCBvN6zc17u6bpFk8Z8XtD/NS39u72rq+vuKqqQvDA9a7O9DheBJAWvN+XJw+M/OPUqZKHTjf3wAfXj0wXmysR/NDjvepJsZHW+fXl22p6L1UpnjL8+wAeBWCC+xkE9xSg4MGe8/J/W5v0d07MeB6Cb1Q8JAsEfLbfW6vP6lC4tSkpjawmJtn2eK40QD+hXAFBPwFbVGQtNOAK7U8SuTo/LEj7VAT7QNlLG/ttykcU86kN+4hlzMdfX3LsyLhFe8+oNuVipQGAUqqSnRMzbzBAoJ2e/g1U9AUQyC4L5qnyGHm2OuP/N989wNni8+YfAGhDAGJ4Q/fZK2ZGO37/tJE3k/gHgOYMbegHgK2EubtT7tItp7vu/htGJllubgXQLni/t7+g3NAld8Vrp0ujNvZOdk22DV+C4JLQQk78//VAZNRl81fl1STdnRMy7wLk3yEFqcgq65L/ZSfnFtVoNEZNrB87pBlsxwDLYw8UylUivAJATxH/0ENBxGCnegHAJwLsEshegvtg2/soZq/b8fW+4flF583aBecbDQCUUpXsmpT5bwi8s8eFlL2VOwQa4JhNPhLbQh6rai6AvVNHTAEwx/+ym9Xqskgd9Q5MdrWwHdaTBrg+/D0CXwn4UGfGPx7p3HCSk2MdxLFlAIZXepP4TedZyx86XRpnYs8010Dj4VsAEsMKf79PPOXon7ww/5PqpLdrYvpVtrAQQFzQ0/8+R0zMkOqsvVBdmycOaCwlzv4CDiQ4EIJBQvSAiPHdBYJuByE/qw4A/ic2dsJIkUB2ClAUa7hzyIqNdZZ3VX3aB0ApVYkIRgEVvcsq+gKEdggEABuIp8gfyr7A3e9OcX2z19z8gihp3lUROPDRSAV48TVZLhF5geKdyjcs+Jjvdpjvdp+59FB17+MDHPsNIhX+kLmd+qT/Elhe3aRq5bLX8zfvmTQ8gwbLEHnZ5DbGIS/LjBmjTjei4p3xafEinI2Qwh/HAU4808J/+7i0nm63pBBIESAFpZLs7aLhfV+CuhmGPM2Hb1fsKAewQ4CtJIqMzZ3lnvKijDVbqlwaWp1dWgOglAqxa2L6VQKzBQjurBX8q3ItQGAvxRaYGb3eyPtNcNv+vpysS223Zz8AizCHpSSmS3Av+KKcnJg4+fxhCH8EwDDoq0mAjywj93bOXTm3JvdxcNqIiULOk8rfc++cpGdYTaYtPlO7J7s6G2AZBN0jV4fLD3vPX/WXaOcLwKIJGfMATAwqaMshHN93Yc06/W2eOKCx8cQOhNukguIt8IHW3qf5oF4K4XM/VK69gHg/3FIBdgD2FtjYCmBL04SvdtRnc4SqGxoAKKVCFI3P+A2In/tL+OoGAaHHmZc+/sK+bXh+vhsA3p06YoYR+SUACPCTnnPzAgvwvDclq7eh/TL9ww4r0vQQ/GdZecmD1V1gyO/gtKyuNrEZkPjQd+QzOOzBXWbmv1+T9OrCrqnpbY3HWgngMiD4iVkA4JTYckWfN1cXRzq3aGLGT0XweyBQMAsgt/Z9a81Lp7vu5qys5pZVmgYjGRRk2JABEO9oitPMWYCQY7wHlNjEOxRugW1v9RhuiTlWtnNZthT1AAAgAElEQVTgljMbQaEahgYASqkQOydk7ALQ21u48xSALwnfNLOn6Q8QHAQI+EovZ8KtAFBc/vl+EJcS+MLjKbv0svmFXwrAvVOH30PwUQCNgtMgsE3A6d3mrNhU0/wf+KYrDl9bhRBc5d/nK8TKAGR1nb1iTU3TrCt7Jo1qR5avEqB7hAK3oPeAVZmcgZCmgJ3jM4eTskwAy/9UTvKBy99c9cdI19g80ZVguT1pBsgU2JkC9oOvo17wk3zFa/+uiE//e21gHYn1tGXdV+7YHf6gTp3/NABQSgUUXZ3eRzwsAvxV+lzYZ8CqiTu3uq6yYF8N4T0gWlUVBFScC0DwCGhWE7LQd+Bve85d+eD+SSOT3MZ+lsQ4hI41/ErIX3541PNYbQua/dNG/Btg5eVvBXd2nbOiwceHF03MutTQvQqQzkCltvPv9FmwKjCV7Z5Jw9q5bWsrgKTAccRjfd9cfZ//mOKxQ5qdNLEuCEYC9ggRJCPou/20w+4Cx9hfE9wskLUiZr3lMOuuWrTms7q6b3Xu0QBAKRWwc0LG74H/Z++846sssv//+cxz00MggAhIETEIhE7oLQlNAoiKZHVd2ypiQf26NnR/62arZXft4OJaUdc1iCggRXqvIi0UQVBQaVIEQtp95vz+uCXPvUmAJDcJhHn7ekFm7jwz57lqzpkzZ87BOH+HYFybL5b4C/Vsv6ZXDVtcD5B4gvAloTmjESAAdwNoTuC0Ylgz0e5uouRNv1fB/wCnK0uNbT553t6yyr/n+tTbhXwnuF+Al5tPmV/mTH+h5puhva+wLWuJAJcBcCrlo8rlatFq6vwjC5OTXZfE6gUA+gD+8/bJJ6ILbos7Hd5dIP1F0F8gSfAFdJfuHP9bCFZCuEqLvcLs7i8+jAFgMBgAAAuTk111Y/ReEg18fRrs2W7G4pXBY7el9W4hLusTAm09PWfxBAAg+DZE8kGO8TT9Y34UwUMtPls4pTzy7x7Zv51AVgKIDvroy71H9NDzTbltG9G3rQiXQFALKNyRU2R86xlLxm4e3vefFDwC+BW5DWC5QLoAiDqrGz/gQ2gR2SSQxUqsRQr2ivZfrjhUcW9nuBAwBoDBYAAAbBnWb7iITAP8ijw7d392fEkBXuuGd46OYey7AEZ5es5gBAAA5QSg4hx9mpAJyIv6fcKsWSfKI/u3owbUhK3XAkgI+ugbV15+96ZfLDtWnvkriqyh/fpQYY74YiA8d+bdAP4E4M8ISokvQVo/0I3vbMEGsEELFlvEIiosa3eefgeGqsMYAAaDAQCwaWifzwiO8LWVwheJ05cMO9Mz6+7uHBZzIHaaAFcH3Rk4ozcA4AaAY676bMGa8sotAL8dmfoJBNcHfXRcWdL9iskLd5R3jYok65p+oyDIDM6YBwS68EvMtOcZ6BZiPSGLta0W56n8pd1nrS6XUWWo/phEQAaDAeuv6dUQNoZ6SvR4tLQt+OhszyW98VXBxkGDbgiLyFsgRFcWOrI9Z9YOI8CrvLIVkPHjL/JSyqKFIXHJf3t9/99By/VB2xlbKDeer8p/36geUSdzIwYL5HoIhpdB+RdAsI6UxQIsjgiT5aW9KmkwGAPAYDDAVWA9CIrLV2WPYLYVpc5YXc9HWGRBMgSNissYWHhtzTdafjlx6amXUz7/KiTKf+d1/XuI6Gf8S/ogH02YsnBOKNYIFeuGd46Okdj+Qow6kYtrAakBoEiufG+Xs+VT/rshnAel5xXkRX6ZNG/eL5UjuaG6YgwAg+EiZ+OgQTHCnNH+bK8eI+Czs2XK+/ra5Frhtjwnou8GAtMGe9qB3gBPDgE2jD0Qey2AyeWVe/c1/S91Q0/2lwj2IsB7LT5d8FJ55w8Fm4b2jne51HBqDhMgTYiYINf9mZT/zwQWasg8l+g5rWeu+L4yZDZcPBgDwGC42HHl3gWgtldHe4wA0R+e6ZHNQ/sMpa3/A0ED3/Y+4HkAQtgU3gXK7wC0hXhMApIPoJwGwMLkZFeBZX9E4WVBCnRZQVjdu8szd3nJSkuub7lwrYaMBJAMDZegyJm956/AR3MhWC7AXFEyt13npRuCkwIZDKHEBAEaDBcxC5OTXbWj3d8AbObrI/BN265LWxWnfNYNGFAzIjLvRYJ3OMYHR/iBgAjlrsRpS97OGtGntRK1Fv7reYTS7HDVjIUbyyr3jhHJz4Ac5/wFJsD3FsO6Xjn1y0q/3rY1LbUpLH0dKCMB9ASgnNq9pF0/ic0iMpfamptjnVySNP2r05UmtOGix3gADIaLmPhI+0YRNAME9O3kBS8Vp/w3D+87CHb+mxA2RtHgPm/OH7834P8Spy15GwASP1+6Neuafi8TeBLwjLOVjAFwX1lk3n5NyjWgPBF4652nQIyoTOW/7br+LaDt6yEyErA7izP8wUsxu/5jAs4BZJYqkLmt5yw11fEMVYYxAAyGi5TMUaMsnNr//3xtEQHJo7CjJjnHrRveOTpMYp4RLQ/QayUUDe7zHgGIAMLfJ36x+BXnHMpy/Uvc7rEAanhjBK4V4H4W8YKfma3XpzaFrd8WCfA5iBB3tpxado/CuZI1PCWRkGGkHg7b3QsITMRTzI8AZDcEMyhqukQfXtLGVMkznCeYIwCD4SJl/dW97iT5ZsAvAeKvHWYu+4OvuWFovxQl+m0AlxdXDdD3o68l4DNtZyx+qrj1tl7T93UI7/E/ZqmkVp8t/Opc5d2TnByZWxMr/FUDfQj+0HLaor+e6zylQQB+c21qFxF9vYiMBHClt98/IGg8AORDsIRKZtgFrhltZy34tiJkMxjKi/EAGAwXIVmjEsPzT/IPvrzw3p38Sbflehnw3gwIy3mWou/3O/YLg/sAR74Af255Ja+2nb6kWOUPALZWHyvKPYDXYHDbwwCcswGQVwOvQtBRvBN4V//4qmmL/nauc5wLMmqUtS3vSC+KPXIHcZ1ouzEQ7M4PegY4BOALgfrCxfwvW043d/IN5z/GADAYLkJyT8SPVkRTX1sEoMLLSdMX/bzh6t69NU+/S43mzgh/wBHl788X4O0VeafN9KUP4Qy0SVq0ZOtX/Q4BqCcARHE4PClvz8q24cm3C+Uuf4fHCtlwSmr8trTHCMWx7u7OYTH7Y1JAjtyed2gEgUuFJe/0vV1fC+UL0prRuuPCtSZi33ChYY4ADIaLjHUDOtdUVuQ3IOr5a/IIjouWRFh8RBH/B0D5xtPp40fQLw3Pw5nboxv8On3yZPtsa28Z1m8yITd4nqWEu/WlCWcpObv9mj7tNNQq+PLle5Y9DMWurT5b9N3Z37h49iQnR+bF6UEaHAlgOIB4/4fFKHy6XLbr0gY78n/c+4rbrb5oP2vRD2Vd22A4HzAeAIPhIoOuyD9CUM8btec9AlAraGEBgKuKpvD1+PhZjDdABDMKDub8Jv2rsyt/z8N6uZAeA0CEeQqdAJSYsW/7Nb1qaFGZcCh/AAUQpreaVnrlnzUqORa5Oo3kyBxIGoSxZxrPqGip0bUna/Toi9hOXS0VGXkpyYmlXddgOB8xBoDBcBGxblCPlhCMDUjaQ0Cg0+jY2xdm7oOjTwK8AULMj8u2RjUroVpgcSjheu30JvDMBoAW10QBrgrqfqT1jEWLznXNTUN7x7uohhMcKbkyCGBkCcF7AAArJlZqdOvNGj37IrZjFzIsINFgbRGJJJl7rusbDOcrxgAwGC4iBOpFX+rcwvrz3s/o0fqFafsDAgS9XV5vANQq12l1bbNFi0qlCJXL3mXblt+4ELJjSWOzhvcdIyI3eYT0eh+ISW2mLX71bOtsu65/HSkoGApylACDBAg/U6CAVSMOsUndEdcrGbGdupCusJKGEsClAExaXsMFjzEADIaLhLUDe11DyNUidF6iLxAgrNAb4D0SOKM3QL7WEWpI4qwz1woojqumLd+/ZWjfbIg3J75Ip+LGZaUldxDRhfn8PdnzVkW6Y0pM87t5RN/GSvM6ACO1290LpFV0VGE5PVeteNTo0RdxPfshum0H0CpmePE0gDEADNUAYwAYDBcBy67pVYO58pqn5a33J4CAT5NyswBtgGBvgMMQ8F31I7YK1OBOny06XhY5CMgmyC4C7T0mBa/YOaRbXIKjdv3OId3i8pTOBBDpeHB/GO2RCTNm5Tnny7om+Uqx9UgQ18NGF/GXIioeV+06HqXfqx9iEtuDSp1peEk0LMtDBsP5hjEADIaLgIgc/XeBJ4WvL5RPgFW7azb8x5UnforyGQBFC/oE+AO+FbcM7DR32Rmj9s8GBbuEaO8zKXLDwi8HsMn3ea6KmABBguORAi38VZsvlv8EAFnDeyWKtoYBGC5a9zrbXSZXnUtQo3tv1OiVjOhWiaCy/AGNZaRBeR42GM4XjAFgMFRz1gzq0RNCT959b7leAjmieHv65Mn2moE9p1rk047NPgBnkKBAgH1E2IBOcxf9VF55BPg2IG1ugb4MXgNg49De9wnk5qBsg/cqYc6WYX2fgeB6rdHCOVlxuC6phxq9klGjRx9EJbQESI/S99c7kHM1AvIBhAf1GQPAUC0wBoDBUI3ZOWRIxDH38f8IoAKC+0Se6vLlih0A0HXuig3rBvXYA1HNAhLse4dTcNAiBrafXfY7904E8mNg5UDVCAA2Du/TiTZeAAqzDQI4KcAfSLtpoLIvqrxVjTjE9uiD2N6p3p2+AklnzkLP+mdW/ocArAGwDMA8ABEAlgeNMQaAoVpgDACDoRpzrODY/wPY2rOL9+6rBQuTeq98BfMcA8mpEPmdJzCP/sh/AkeFalD72Ut3hE4q/hjU0WjdgAE1YedlChDhPIIAUINADX+X04oBwIhIxHTtidheyYhu1wl0hXlkL6xsCNJ/sFF4xFHIjwAWAVgCYAnJ7c4PRSQKgBuBvytNDIChWmAMAIOhmrImtUdP8ZXgLazZe9ii+k2RtLW2mgqlf+dpCLw3BU7a1EO6zF6+CaFE9I+FSYQJgI3CIvLehKC5V8oiOPU+XWGIat8J0b36ISapO1REpMO9H6zsg1S+yH6QywDMI7mcZNaZRCWZIyLb4Y2R8FKn1O9sMJyHGAPAYKiGLOvVq4ZQvw/AAgrz/Yjwjk7zlhc5x+/ce9mKdSt6HSCkvqdHTtsiw7t+uXJNqGVTtvWjbXnsD/H8kw6NWMARbhi0TRcA4Vdehdg+KYjp0ReqRhwIBuQoKLK992z/d8Pjwl/mdrvnRkVF7SmDyOsRaADUKsMcBsN5hzEADIZqiCtSXhHgCjjS+grwUrd5K74o9oEMCAbqrwUcAiJfUUZ2/XLl4oqQza3c9QHl1NX+dLziuKcPAK669RDdOxkxvVMR1qAh6Avm8wYn+nf7ha5+AZApIlNFZElMTMz+EIi8AcCtjrYxAAzVAmMAGAzVjBWpPa4D9O2eFr3KkV/Fxv8yrrjxq/p3u3Stst4gMASALZq3dJ63YnYoZdo4qG8zsXQ6BLcL0NKfV8CHI9EQw8IR2TEJ0b2SEdkhyXttr3BokXP9wDZFcAOJBiQb5+TkTCnjrt/JzqC2MQAM1QJTDdBgqEYsT+3ZVEGvB1HbEWd/XNvo0nPRyl3B49cM6J4OcAKAOiA1gNu6zl3xQShk2TiobzOt7BtF8CsQ7Qs/YdFfPFSISGyLqF4piOrSHSo83BupT++u31eMiELyOxLNCj9HoWeA3qiCwrYQWKqUeicsLOwTkqXOXigirQBsDeqOJZld2rkMhvMJYwAYDNWEmUOGRMTnHVsKoIu/k3ATktZ9/uq5zrFLh/aOD8+zxwO4yTMMIpT7us1d9e/yyLB+YK+GopAO4EYA3QrFCMLboeLrILpPKqJ7p8Cqd6n/XL9QmRdpf1u7dvyVx48f7yzkrQq8kUS9EpR/QJvkSQDvhIWF/ZPkvnN9JxGJBJANR4lkAI3IIrcZDIYLCmMAGAzVhBUpPV4D5X7A4U4Xub/7wtUTnONW9e82EFBvE2jkHyjyRLf5q54vy7qSAbVuZfdUwrobgmvhqy1Qwm8XpRTCWiYiqt9ARHTqCuWySlL2RdpKcXJ8fHy6f22RsJMnTw6BUndTMISE8hsAwd4B+H/OJ/mhZVl/PFdDQET2Amjs6GpzthsEBsP5jjEADIZqwLKU7ukK8jEAZ/m+13ouWPWAr7GiR48oK0b+KILHACjf//4Uyei2YNWfSrvm+oG9GmrILSDuAXB50RGOfH4ErEvrI7Jbb0T0ToGrdl2/a79Q2Qe3izUGxtWuXfu54uTJyclp6na771JK3QmwQaDyL9YYyCH5olLqOZInipvTh4isBNDd0dWbZHCCIIPhgsIEARoMFzhL+3dtQS3/KczcJxDh3HxEPuwbszKlezdQJmmNFs56AABfLo3ylwyodcu6p4LW3TbkOgCuwNzBAVUDwbAwhLXrjMi+qYho1QZQyhEBUFiUyJd3WARfE+wYeJ2vcFIRWV+SbFFRUd8D+IOI/Dk7O/smpazHASQWHzToeQTAU1rrW0VkNMkzBT4eC2qbQEDDBY/xABgMFzDrBnSumeN2rVREK0f39nzJ65GyaMPxrFGJ4b8cjc2A8HF6cwL4IGVit/mr72WJGfWd6/RuomnfBcFvQVzmncHxZyBW42aI6NMPkV16QcXEFLvTdwT5HVWKH9q2/XajRo02HDhw8DiJmsUEAWrLsurWqlUrWBkXi4jwdF7eUCUyjmSvs8QJCMk3ATxcXHCfiHwI4NeOrhtJfnwuchgM5yvGA2AwXKBkjhpl5R7e+xGBViJ+V/t+bemhKfM2HF/Rt0fbX37WkwB0gEPLexX2B936rL6P88+s/Nf079lFE4/YsEdCPL8v6H/Cs6g/q190NCKSeiCidzKsJpd7lGzJewytgZUKnETigwYNGpwu/Eh+BFizmJx+W89V+QMepQ5gBoAZubm5AwD8AyIdirlT6PtaRgPoJiIjSH4XNF3wusEFggyGCw5jABgMFygNDn3/vBBDfPtwERxVWg3eX7fJ98tT+LjA/jPACMBzLOAZRggwNU9H3lEkHbAXyYBatbj7MCo+oiF9i2TTdYylAFbjpghPGYDwTt2hIiIK9avTte919VNhr4h+17b1O82aNfuuhFf7SYDWhXl9PAl9FbCiLN8TAERGRs4Tkc4FBQW3APgLgMbBRYG87XYAVonItSRXOaY4HjRlRFllMRjOF4wBYDBcgCzr2/U2AX7nL+8rchrkCFJOXnb4+/kC9mNxSlvL3F+iat+UNmuWO3jOmUOGRNTKPf6rVUtlHBVaOX0GfvvB94flQli7jgjvlQxXq0S/a7/Yc30wXwFfkpjUuHHjqSSLrB3EyYBzf3jsAIGUK+iOnjwH74nI5Pz8/KeVUo/Clyo50Bi4FMA8EUkjuaSE6YwHwHDBYwwAg+ECY1lyt95a5A1HgZwcoYwA2doWPQtgLAA4Nv0+lkTUcF+bNn1WnnO+Vf27Xaqh7mfesXtB1PVn6fMH9RXu+VkzHmG9+iG8VzJUzVqeMcUoa297s5BvRYSFfdCoUaMjpXhF52z+v7TWZfYABExOngYwLj8//zOl1JsiSCymOnAMgOkiMojkahT9XWkMAMMFjzEADIYLiKW9u7bQWqaCCPeq5RyCY0TwMEXSxLvrdobniQAiWEO3a1jS9NX+s/alA7pcoTSf1FpuASUiKEbA7wAQAFbzBIT1TUVYu86gywWSnr290KGuBRSeoMJHSvHtK664okyFhLQGlfK6/v1H9PJDvXr1imQyLA/h4eGrRKSzbdsvAbynmCFxAKaJSBKAsODHQymLwVAVGAPAYLhAWNKn4yWaMgNAXXo0fR7IjwXyAoC6AAqVdqAhsDncJWndFi8/CQDLBnRuQtv1CGwZAzDCs2sPiBHw/OhywerQBWHJA2E1buKIlfM7+n2iiUCWUfBmbI3YTxo2bOgI6Cs9pCif38ERBLioPHOWvBbzANzrdrtXkXxdRKIY6A6oB+ATeAoCOTExAIYLHmMAGAwXAAuTE2NFu2YCSAD8VfNOUHC702EO+I/ePX3EjjALA7vNX3NkeWrPplrs38ON2wUICwiA8z0rAtapC1evZLi69YKKifVuwX3BBgGxffupMElEv92qZatvQvi68YVHCT5PgCwK4fxFcLlc74nIRhGZBaB+0MddAWctAwDGA2CoBhgDwGA4z8kcNcrige8+FCAJCDjTv0S8B/YEg0/OAWCfUq7BeQUF4Uv7dXtZa/fdBCKdRwPO+Xh5c4T1TYXVrqO3Ap9vF16o/AFogSyg4I3TOac/S0pKKgj1+wpQzxFH4DFORBaGep1gSG4QkX4A5gNoFPRx8I4/+EjAYLjgMAaAwXAeIwAXH9zzBsBr/H1Fg/u85+8A4Nuly09QuEXb9uOKvBOQCJ8ed8YIMDwCKqk7XL2ToS6t7wjzd0jgPOcXPbZtm7avV9wbAxDULXRjEAT21bv00t0VuqYXkt94jYAFAJqeYaj53Wm44DH/ERsM5zELeyU9R43f+lzhAapZgo0Az58UaIDboTFHIJ48AIGDgJo1YfVMhtWjNxgdU7jbLzmi33fu/3RWVtbHiYmJRyvifbOyssIBxDuS/wBSMef/JUFyt4gMAbAKnkDA4rArUSSDoUIwBoDBcJ6yoE+XpyHyGACfH9y7GXcmr/H8HWQIKEBSAz0C3nH1G8DqmQyV1A0Mc6FIrr2gNsl1AJIcdkB9rfFPAL8N/RsDcXFxTX0uB58BQlXx7v9gSG4TkVsBTEXx2Y7PlsvAYDjvUWcfYjAYKpv5PTs/AJE/AUGJ+sWTtEaCMvh6r/ohaKhnnAjY9ApYt46G66FxYLeegMsKuOYH/+X/gPbanJyc/gIccH4O4vasrKz+IXxdP5ZlXeGXwfuH1npRRax1Nkh+DuCdEj42HgDDBY8xAAyG84z5vTrfBeJl8WhwAD5l7sCTGe/MhoBlgR27QD34BNSYB8FWbSB0RtYBAmSXoPw1ibHdu3c/IZC/BC1OEUxct25ddMhe2ovW+opC5Q8A+L5+/fp7Qr3O2RCR1iIyBcAdJQwxHgDDBY85AjAYziPm9066CSL/hi+Uz5dWFwh05QOOq37i7fMq9/BwoHNXoHcKWLuOf+7C63sCEMsBNZ5gS4g8XbT8Lt/p0KHDGgCwCwr+o8Ii/g9AgiP5T/PIyOjXAdwW0i9AqSud9wxJVanufxG5XGudISK/IWmdYajxABgueIwHwGA4T5jfo/Mo0TJJxFm217HPF2evo+ltSGQE0KMP+PCTwLDrwfjafneAd+xp0fKm1qpj9+7de8fGRk8R0aOd03jHHwP0k75+z1U//ZQ4PAUAAMqtWVnb7g7V+3uWlzYOaSrN/S8il7rd7le01jvgMWrOpPwB4wEwVAOMB8BgOA/4skfnUUL8F97/J4sG9/mMAAbc1BMAiIkFu/YEevUFIqMgLFKEdxfB17XtfqdPnz7+srYnT578Faka+OYpDAKUJzt16nzYOUH79u0/2bhp0+cARhSOBwB5eevWretat269PgRfAyho76wAiApOACQitfLz8x9zu90PkYwJrhDoGwagAIHJf4wHwHDBYwwAg6GK+bJHx5sIeV/gcTkHX/UDSjAE4mtD+qQAnZIAV1iw0tcQzKLC+F69es7xVsILgOTDnhkDkv0s7NSp0xvFyemyrHtsW/cWoI5jfKQIJ2/atCmpXbt2x4p77lzZvfvgpYD7Ur9Mgt0NGzb8vjxzloSIRObl5T2Qn58/jmRtb19weWAhOR1ABoB/w5MR0IfxABgueIwBYDBUIXO7d0oXYBIAy++up7OUj4cAQ6BWPKRPCqRTV0+gH+lMCnCUwNuKeL1Pn94lJs9ZsWJNfxHp6E8g6LECTgMymqQU90xiYuKBjRu3jCXlI2dyIFCucLnCP9+3b9/gxo0b55T1u7Asdztn3AMVFpV1rpIQEZWbm/ub3Ny8v5BoUtgfeJUSwAySGSS/8j4XnPEwDwbDBY4xAAyGKmJO9043C/EeACswuK8EQ+CSerD7pgBtOoKKgM/V7wnaWy/C8RERYR/17NnzHJSw/qO/nI9f+/H3SUmdvz3TU+3bt/nf5s2bRwC40bO0LyhQ+pw8mf2RiIwkWSb3OGm3Fyh/8iEJcfrfU6dODcrJyXkeYHs6Mhx5Xt/fnmnbKiM8nGuDHs8Pap8IpWwGQ1VgDACDoQqY3b1TOoB3RWAVOdNHoCGg612qpWc/Je07glRgYUGePAg+Edjj+/cfsPJc116+fHUqKX3gW8NjaKxMSur0yrk8r7W+SymrpUA6MNATMGL79u2vAyhTYCDJdoUtgdahOf/Pzs7uKCLPkRxYUsIjEcwBkBEWFraqhGmCDYCToZDNYKhKjAFgMFQys7p6zvwBWIXBboFp+AWA1K2Xp5MHREirREWlvOfTAgH3KXAiIW8OGND/YGnXJ+WPQYrwtFL8bXFxAsXRvn377K1bt15ri6yF4BLA77gHwNHbtu042bJli0dLOkooCQHaOzbmOxs1avRDaZ4P5tixY00ty/qL1vpmksoTVxDk6xeZoyzrz2FhYStKOb3xABgueIwBYDBUInO6dbxBAM9VP3/CW8BpCKBmzZM6eUAN3bZjBBR9gWkiWhYK1PjISNe0lJSUMgWhLVu2LEUgfemo6yvEY0lJSdtLM0/r1q2/37Rp6w1UMleAcEccAUj87ptvvokVkXvP1ajIysoKh6Cl40xjUenerJDjx4/HA3iKVGMBRPo/cHr9RWaIWH+Njg5fc47TBv+uNAaA4YLHGAAGQyUxu1vHkRr4iL7/73zX6n2GQGTUcXfKgBjdqWsNUvnS+J8kMMl2q/HDhg3cVp71RYTLVqx81nnuL8DM7l26lKm6X7t2rZds3rz5JlJ9DKHLWTQIwrt37NgZu3DhwtvOxViJiYlJBBDu8yWI5pLSyrNnz57I+Pj4sQCeAhgfqPEBUjTAz0TkrzExMV+Xcvrg35XmCMBwwWMMAIOhEpjVpf31Io9+PvsAACAASURBVPIRSFfAOT8AcbkOu5MH0U7qWpeW5XWlyzYC490FBZNGjBgREmWzdMWKXymwq0P5H1KQ35bWVe+kbdu2n27ZsuVWkO8DsByZAkHi1w0vu+ySrKysG89ePVB1DLgBQH2uO3OIiDp27NivAfxVRJoCRFCQnyYlUwR/i42N3VLGVzUeAEO1o7gqVwaDIYTM6tL+eiH/ByDMH9dPAFRH3F26/Wz3G3AVwlwgCYIgOX3YsLQR5VHMwcycOTOiRlytbYQ0Iz3HCiSu6dGjx/RQzL9ly7bbqOQtkpb3HbxGAEFwF4kRCQkJW0t6fu/eva8BuN9zs4FHGzW6rO65vP+RI0cGAngeQAfPmr7vECDpBvkRgb/HxcWV6ogjGBHZAKC9oyuaZJmvPBoM5wMmFbDBUIFM79r+OoFH+QP+BLe5iI79R84jT8a6UwdfJa7grLP67VAqfwCIqVFjLCDN/CuAE0Ol/AGgTZtW7xG4AYLTgD9dke+FrwSwcteuXb8q6XkR6ViY7phrz/b+hw4d6nDo0KE5WsuXItLB/6jnjwIAb4lIy5pxcbeWV/l7iXf8XGCUv6E6YAwAg6GC+KJr+2FK+D8BwgoL92Cem2yX88DDH8JyRQRU8/NU+MvPycmZF0o5lixZcgnB3zvqAuzIjol6JJRrAEDr1q0/A6Q/gMO+heD9QYA4Efxv165dk3bu3BnnfE5ELAHa+8aTUqL7/8CBA80OHjz4vgBfARzkqF8I0cgD5HUACbVq1bqrVq1aZ8xpUEqcBkC5Mh4aDOcLxgAwGCqAmZ3apUIwGZBwABDgqBaMSVu9YdDw1Rt2ilg1i1H+AGRTenr6qdBKw+cgEu9dpoCQWwa3b58d2jU8tG7depXWdk8INvv6ggoZ3UKlNu3evfsaX8f333/fAoIY32g3sDp43kOHDtXfv//AqwC2C/AbSMDvrhwIXgF089q1a98XHx8f0vTBIhImIrGOrgOhnN9gqCqMAWAwhJgvOrfrphU/E0GkAALK+1pbVw1bu+ENX0VfEanpf8CpIcldoZRl8eLFPUXkdv8KxJ969eoVnOUupCQmJu7Kzj7VncS7wRUEva/aVASf7969Z9r333/fGkAn36cCIMKy/B6APXv21Prhh5/+5nbbuwAZCyDc4Vk4BeCftm03q1u3zkN169b9sYJeKR6B8VKlzr1gMJyPmFsABkMI+aJz27aanEmgBgQ7lZZ70tZvWhA8TpQOC7iLD6+G0QiZAZCZmWmJYDzpz667bP+PPz4bqvnPRFJS0mkAd2z/5pslELwMoEZhsiAPAhluaz2U4D5Hbp49DRo0OPzTTz9F27b9AJV6goD/Sp/3PU6J6FdtW7/QsGHDnyvhdeKD2sYDYKgWGA+AwRAipnfokKChvoQgSsA/qV+y2xan/L348+U7jwJEEDL3dd169e4H0MHbPCHavjU9Pb1Sy9i2bNHiHa3tdiLak9ffERfg/UsBaFpY5VDW7927917btneBfBZSqHwFyIbwea3tZvXr13+qkpQ/YAwAQzXFeAAMhhDwWZc2jUXruYBsJ3Dv8HWbzxZ5bnvy5Th2xQKIkpCUmZ0/f35TCv7q9y4QD/Tr229PKOYuLa1atfpORPrv2rXrHgB/B6SW776/L/NfYZvXARjpLQfs+/w0wH8r8rn69S89VNny27ZdWynlLBdsjgAM1QLjATAYysmn7drVU7b6gMTTw7/anDr8q7Mqf1iAu/ggQATfCSw1njL2aiKAGp4VmNmvT59J5Z23PJCUhISE1y1LtRRgkvOeYGCQoChHOweQl/LDwpo3bNjwkfr161e68vfSUEScbeMBMFQLjAfAYCgHmZ0711SSfzMZPnL4uq/O2SXtdvOosvw60L/dVcJyG+ULFiy6jcRg7wb6B0vhnvLOGSq01kLPNboCAOFBO32fJyBfgImAfrZx4yY/VaW8ACBko6CMacYAMFQLjAFgMJSDmgUF7sGbNr9Y2ucsSx+UYoIAReSS8sizcOHC+lrLC+LJhqe1jdv6JPep8nvrWVlZsVZ4+P1a5CmCcZ6SxoFBgQ7ClIKcOHGyss74zwhFGgdUEDQGgKGaYI4ADIZyMHjTpjLdp7dt2+/ODjgKgFxVHnlsW78h3qA1Cl/o379fSUGIlcK6deuit2/f/oTL5fqeIs9C4E0C5Pd+nPT94HD9U0QerBEXt3Tv3r3NK13oojTy/eA9CihXmWKD4XzBGAAGQxWQnp6eQ+Dn4DgAAC3KOufcuXNHAxjubW7Mycn+f+UQsVxs3769xrZt28bFxMTuAfisALUd5/wiwGyIpJF41qH8C7yf+9pdSa7/4YcfbqmKd/AhIo28fwPAEZK/VKU8BkOoMAaAwVBFaEFhZTpvEKAArRcuXFjqo7n58+c3B/iCV8fmEnJzWlpaXsiEPUc2bdoUn5WV9bRt6+9E8AyAeo5kQCdJvGbbdquEK68ccuWVV84SkU6+nb8IniIxToA8h10UJ8CkH3748ct9+/YlVPb7AADJRo4YwCq5SWEwVATGADAYqghCPAZAYNmbuGPHTvYqzTyZmZmWbev3BIj1zvdEampqVojEPCc2btxYb/PmrL9Rqe9E8CcAtT2iCCD4EZAnXC6rcUJCwgMtW7bcAXhuKwjQ038aIGpR06ZNn1NkEsCvHccEADBQKbVp//79f9y5c2dEZb2XiMQJEOevOSCyu7LWNhgqGmMAGAxnQEQoIhVSNlsEW4IuwwECWBbTSjNPzZrx4wTo5Z10Tv/+Ka+GVNAzsGnTppYbNmyaSKrvBfIUAH+hH4FsIXCH1vYVLVu2fL558+YBrvM9e/a0BdDA2zy+d++3GwCgSZMmWw4fPthNRP4sKDwWABCpRTJiYmK37t+//1YRKfeVybORn5/fGIFXAI0BYKg2GAPAYCiBSZMmxQCeO+wVMb+IvRQIDgIERPQ152p0zJkzp69AMrzNn23bfUdFyetkw4YNKV9v2DBda9lK4m4BIuF39XMRiaGtW7Vq16pVq3cTExPzi5vDrfXgwt2/np2SkuJPgpSUlFTQtGnTPxJIArAKCCiZcAWA9w4cPLhl//5D6SJSYb/HLMtqEtRljgAM1QZjABgMxTBhwltXARWn/AEgPT19q4gU3nMvjANoOW3atMFne37OnDn1tOAjeK/zEnLP1Vdfvb+i5N25c2fE+vXrb/nqq6/Xa5EFEAyD9xo/IDaEkwHp0qZN65TWrVvPPOt3pzHK84MAwPTihjRu3HhTo0aX9dLkWIgv+M4fJNiSlI8PHTq04cChQ3fu27cvKiQv6hRRa78BICLQWhsPgKHaYPIAGAwOMjMzraNHj6aS7uW33nrn6QpfkFwAT3nbgLTAIupxALNLeiwjI0Nprd8HVUPvA58MHDRoSkWIuHr16mZKWWN++eXEb0FeQgog9NXHOw3R75DqhXbt2pyzcty1a9eVIugCAALkEPiipLEkNYDxe/funepyuV4W4AZn8iCAbSl4MyIi4rnDhw+/5XK5JoSqJLCINCEJEYAEXC6XMQAM1QbjATAYvLzzzjuRh48evaF27doLxowZU/HKHwChpwdVzPU2dMrnn39eYjBg165dnxRwkHf8EctSY0Mpl4io1atXD1u9eu0XpNoF4AkAlxTKh8MAM9zugqYdOnQY265du1IpRtuWWzxTCUTj0+D4gOJo0qTJTw0bNhwlmqmAbPQH5hUOqQPgcbdtf/vzz0fmHzlyZPSJEyfqlEauYEg2caziBrCvPPMZDOcTFRLcZDBcaLz44ou1wsMj73C51GtjxowpqKx1MzMzo5Ry7QdRkyQIegrOECC5Iz8vt2N6enqO85mZM2f2E3A+ScvjMeAtQ4YM+iAU8qxevbqZbcstSvEOkJd7RPHJRJD4FqJeAOx3vSV/S83ChQtdl13W6DsQl5GEIgc0b958fmnmEBFr//79d1GpvxC8xCOeV0ZPFkRfu4BQ85TCpyIyLz4+/rvSrJOfn78YQF9vEaAdYWFhLUvzvMFwPmMMAMNFz6uvvtpQKddDtl3w9IMPPljpd+c/+WTKmyDv9BkAXuUPr3J85Zprhj/kGztnzpx6Bbb9NcGG9OTTnZGWdvXwM81/NlatWhVXoPUNCuo2QvrQszgClb9aqyj/2L1796flLSm8Y8eO60h+Cs/7fde8efPmXjd/qdmz51it6Oj8JwGMBRkdpPyDjQEQ3EVinlJqvsvlWhMVFbX3TPPn5eXtIXm599/HFJfLdUOZXtpgOA8xMQCGi5rXXnuthUD9C9A3VYXyBwCt+a6ycGdx5YE15IHPP5+xdsSIYR9kZGSoggL3ByAbegoH4BSg7y3LmuvWrQvLzc0dIMJbCtz2tSSjAA2QcByvayrMsIkXe3TpvChErwsAj/qKAAn4blmVPwA0axZ/HMAThw8ffklr+b0Ao0lnkSH/2/iKLl0J8EoRuaegwI2TJ0/+THK9UuprrblJKdkjIt/FxMTsFxErPz//Mt9aIrKlGBEMhgsW4wEwXLS88NpriS7hVEUZNnbs2G+qUpZPPpmyHGRP384/wBOgWKCAMYC6DMRfCo8KZFxaWtpz57rG9OnromPisq9WwutIDCUZD/96jl0yeQyCtyyLE7p16xbSa2/bt29PBTnf61nQtu1q3qpVs+9CNf/+/fsvtywrg1Q3k3T5d/8OT8A5tnNJ7CXZwve5Ukx3uVyTQyWrwVDVGA+A4aLkX6+91sLSMpeUe8aOfaBKlb8H61lATwNQWBrQh0aYEG+DoukvHSjfnDp16qxVCBcuXFhXaw5RSq4TnhpMYbTvs8Kdvvh2/psV+Fp4mOuDsp7vnw0Bfu/blJOYFkrlDwANGjT4DsDt+/cfywgLs38H8E4Bop1fp2f5wi+5hHYkwBbOz21bGw+AoVphPACGi44XX3zxcirXUpLTH3pw7H1VLQ/gyTg45dOpGwi2cwQBBgcF+s+0lWJaWlrarOB55s2bV0dr3RdQyVRMIdmG3u0tHbt9RztHEVO0Vm/27dtzcUW+47Zt23qCXO57J6XYMyEhYWVFrnnixIm6BQUFY0neT7JuCXEBQe1CT4A3+A8k88LCwmJJus+8osFw4WA8AIaLimcmTIiXfPcXBMK0XfBUVcvjg6R8+umnD4tgvsARBwDPVbmANjE9LS1t1vTp06OVimhN6o602IFAb9vWbUgq/3DfBXYEtgl8JZC3tNv9Ud+UlOOV8Y5C+nf/Ilhc0cofAOLi4n4GkCEizxw7dux6gneD0s//pRQbJ+CQufDr22GUv6G6YTwAhouGjIyM8LiateeQSIbCbx5+8MEPq1qmYD759NOPCaYXdyPA0f6GZA2CDTzH0wzwDpTcxs8APwKst1JT+2yszPfaunVrd4Ar6AEk0q666qoiHozK4MSJE1dprX9LqhtIXHGOcQH/DQ8Pv7kq5DUYKgqTCMhw0RAbV+tlQJIFsuL/Hnjgv1UtT3G4lHoUYG5QeYCARPgAWkDQIKCKgPfzom3ZD8EEiO7/88+H66emJj9Y2crfU1AJL8J/uUA2tmjRosQshxVNXFzcjlq1aj1Rs2Zcc6VUBwB/EmA9IP4dfnCKISHN+b+h2mGOAAwXBf944YU7CNwDAND4Z2UUzDlXMjMzrwSsVCr2d9s6hWCkJyjP6/r3uc3hzH7rOBgo0uZ3AvmMxJTly5avyMjIKPM1u1CwdevWXwPs7hFVQMHz58v3HxsbuxHARniOCWJyc3OTNDCOIlc7j07EttdXmZAGQwVhDABDteef//xna4ia4PGgy7eXNWo4rSrlef/9KQ2scHd/BaSCKhVgU/j1oe9o+ixxAHCe38kPArVSQRYocv6gQQN2VsZ7nAvr1q2LFsGzLDRgtrZs2fLjqpYrmGPHjtXKzs6+XSl1DwRXBcYBiERERKytOukMhorBGACGas3EiRPDTpzKft9zrQuwoV4ubya70vLhhx/Gi6hkWkilsD/obuWJO6MnGU5Q8p9StL8npHdaWtoPlfk+pSEiIuJxAI08LYFo9RTJSv3+z8Tx48eTlFL3krwRQLTW4t34+4oyASR2kTxalXIaDBWBMQAM1ZpfTmY/SaATKBChDV3wUUWvOXHixOiIiJjeSqE/yFQt6EiKBU1vEb1Cn35hUT2U0D6jMdBUCwcDeKui36ksbN68uTHAxwC/6395YmLLz6taLhEJO3HixEgRPEyia2E/QMeNAF9bBGuqSlaDoSIxBoCh2vL88883h8iT8JVzBdY8+uijP4d6nYkTJ4a5XFHdaCGVkP4kuxMS7lHVwcq+xPZRIVYC0ohg+yLJgIpPawsQz8+ZM2f64MGDD4X6vULAeADRHuVPgBhXlcIcO3aslojcffz48bEgGxc9Uik+ORBJ4/43VEuMAWCotgjUSwQiRcR7lQshuXaWkZGhGjVq1F6EqVTsT6g+oI71b99L3Nn7lb0IZQeAlSCXK8jKUaNu2LZo0SLryJGjux3DziUIsHZBgX4BwG9C8W6hYtOmTb8WwXAUfg/TEhMTl1WFLIcOHbpSKddDWuvbScYG1wkIsq02CfCTMwhQa208AIZqiTEADNWSvz//fC8Aw5yZXEgpswEwYcJbV1mWO5VUqUKmaGEd+jfjPrd8ifvI0xSsJblcNFe67fCVt912/ZHgNT7+5JNhCmzMgDkBABsFyCMc7moUGhgkbp45c+aXaWlpk8r6fqFk48aN9UT4MnxGjyibCpWedOngwYM9lVKPAbwG0CpQ2Qco/3yB/hTg+Bo1aizLzs4e75imICoqakNly24wVAbGADBUSxT45yA1ap84cWLTuT7/yiv/aWRZdiqI/opMBe1GAv9RQqEC8dsXAdv0fRBZLsRKiqxo3LjxhpSUlLNmkaPIfQCLVgQU/B6wtlhh9noIahcXFwDw9S+++OLroUOHbj73b6liEMEroNT1XkmEQP6dmNgmq3LWFh48eHAYycdB9nae6xdTIfAHAhMtS70ZGxt7wDFNu8L5uJlkTmXIbjBUNiYToKHa8cwz/+pIpdcDATnd9zz26O+uKOmZ1157rY7WTAGYqhRSQVzlPf/1HR8guO3JzMcCkl8rYqUIV2jtWjF69G9KHZX/v//9r4VSru3wJMpzZv5bNvL66/oAwOeffz5UwOn+bHpFM/99A+guaWlpJ8r41ZWbr7/++lpSTYX3+yF50LbdLTt27Fih6YazsrLCa9eufRPAx0gkFmbyc+T597QFkAVKqQm1atWaFpzeV0SYnZ19jGRNgFCKr0dFRZ0X9SIMhlBjPACGagfpvl+ksJALAIiWXc4x48ePj83P130ApFJJf7ct7Uko/331ksPzf4bISoArbSXLabvXjRkzJgSV81wP+GvyOYIERdHvOh8xYsQXn02b9v8A/K2EZEAtQE7OzMwcnp6enl9+mUrH+vXrLwE4wbnJJvFYRSr/w4cP18jLyxtNqodF0Chgtw/AcQzzC8FJInpC3bp1t5c03/Hjx5uGhYXV9D0lgqUVJbvBUNUYD4ChWvHCCy9E5eYVHCIZ66zmBvIti9YkQPcHmUqyG8mwYqrjOdua5DZCVgqt5RRr5X333bkj1DJ/9NFHDZVyfQsiMrACIGfeMPK6ocHjP/98+lskfwuHpyDQE6AyV69ecVNlZgAUEa5fv2E6FYeycPe/uF27tikVkfVv9+7dl7pc4Q8qhXtBxp+hwt9mISdQ5IN69eqdOtu8J0+eHAnyE8/XSZBsFB0d/WOo5TcYzgeMB8BQrcjNLRgMItbfUVj97k6BvrOIxSsC8Sl94BQgazS4XAlWFhTkrnz44YcrvFIeaT0pkMigzH82RT9Z3PgDBxrcU7/h/iYEBxSOd1rzOr1r955HAdxbcVIH8tVXGx6kwlCHt6RARN8fauW/b9++K7WWR0jeTkqkgMXdjswHZSqpJtSrV29JaeYXke6+oksisjMmJsYof0O1xRgAhuqFQpqzkE5QytzghLrfCblCASsVZfnRo0c2Z2RkVGrJ1w8+mNJIYN8VnPxHgW/ccMMNxQYtjhmTVDBnzpxr8woK5kDQq2hQIEDIPbPnzJFVK1eOrWhPwNq1azuC8pxnffquML7YsUOHkAX+ffvtt0mWZT1u2/p6kpb/36XjbqSAPypgostlvXnJJZfsL9tK7O77r4bk4lDJbzCcjxgDwFC9EPbx13Lz3v/3ki8a66GwUoHL3QXWyieeeOCnKpPTCy33OACRgcmBeCw/P/zpMz03ePDg7JkzZ6bZtswD0AVAMcmCeG/Pnj3rZGZm3lJRMQFZWVmxp3Ny/gcgAoXn/ttPnz6dEYr5d+/ePQjA4yD7O29cOJS/ALJQU01o1KDB58FBfaVBRMJOnjzZuTAToBgDwFCtMTEAhmrDs88+W1MLj8F3U89xrg/hgCeeeGR+FYsYwPvvZ15pufQWkhHeGwUgAUX14KhRI189lzlmzJgRL+Bsgl2DbgQ44gIwNzcneuSIEb1Phvod1q5d9x7IWx1n5m5tqd5J7duvLuucCxcudF12WZNRloXHAXZw3CjwnvEDBE+QnKS1PeHyyy/fFop3+eWXX7qSXO2LI7CUahIdHb0vFHMbDOcjqqoFMBhChZtMQDFGrYhAKR1XBSKdEVr2S/DtnAF4PRdbjx79+d/nOsewYcOOhYe5Ukn5MvCwXRwnIRwYFZWzbt68ea3LLbSDtWvXjhXgVjhWEsHzZVX+O3fujNixY8etjRo1yiLlvyLo4Jzbu8IOAuO0tps2adL4gVApfwAQkYGAd0WR3Ub5G6o7xgAwVBuUjSZFOsV3HKBqVrY8Z+K///3vcAL+CH+vuhZN3D9mzJiC0sw1ePDg7Ojo6BEEPvNOFqg2RSBACy1Y+eWCBdeEQHysWbOmnxa84FxMgM1xcbF/Lu1cO3bsqLtjx44/aq1/APmeCFr4ZvR8KygAkAlI8uWXX96yadOmzzVr1qwigjMHepc15/+GiwJjABiqE0WUvE8RCnWtSpalRN55551ILXgJQKCyFrx906hRi8oyZ0pKSm529qkbCLzq3PsHbaDjaOvP5s+f/0xmZmZ4WdYBgOXLlzcVwWQAYQ7lXyDavi0hISHvXOfZtm3b5du2bXtFa/lOBBkC1A0S/ScCGZalml5xRbNfNWvWrMKU8qFDh2JJ9hCvxQFgUUWtZTCcLxgDwFBtIBHlbIs4XdOMr3SBSsAVHv4EgCsKlb8AwEGl8Hh55k1PT7fT0oY8COFYAG7f9jnwhAHUgnG169RZtWDBgsTSrrFu3bpo5XJNFeASv3fFs8pTXbp0+fpc5tiyZUv7LVlZH2otO0XwAIAYCXRbLAIk/Zfjxy9v3rz5ny6//PIyRvSfOxEREf1EEO47ACA5t6LXNBiqGmMAGKoNGiwxIx9FJ1SmLCUxadKkNtB4Mkj5g5D/S09PPxqKNYYOvXq8aAwn5Xig8ncaA+wognXzFiz4XWZmpnUu84oICwrcb0PQEU7jCvi8S+fO/zrb81u2bEnZtGnLLAG+huDX8N5C8ir/kwBfV4ptWrRISElISJiclJRUqqOQ8qC1HuT7WUQ2xMTEVLjRYTBUNcYAMFQbFPhLcf0iAg2WercbajIzM8NBTgIQ4VT+EMy88cYb/xfKtYYOvXq21joJwEbfIsUECUYS/FfdS+qtWrBgQeezzbly5crnBfhVQNAfsCc/IvyOkhL+ZGZmWl9v2jRq06ZNa7SWBSCuRkCSZdkGkbEul9WoZcsW9yUkJFRK0aBgSA70G2Pk7KqQwWCobIwBYKg2aC3fF+317bBxVUZGRpXmvTidm/s0wI6BvTxOyj0VsV5aWtq3kRHh3Ql5KzgoEIHtJKXUmgWLlkyaN29eneLmWr58+X0CPuoZ7+/OE22P6tOu3bHg8du3b6/x1YYNdye0aLGVWjJF0MVv9Ag0wBkkBrZu1SqxdevW4xMSEqqsgNGRI0caiUgrR1eZy0YbDBcSJhGQodrgcslOW0PDYdgWJo9BRHhs7JUASiwEU5FMmjSpm4BPODL1wZv8Z+xNv76pwq6bpaSk5AK4a/aXX64C8CIEsYVVi+H/grRAkXKLyxU2eNGiJRki9n98JYyXL19+o4CvOsd7c+U91L1796+c661evbGZy6UfyD6dcyeJOO+lfS9yAKL+Y2v3xA4dOpxPKXYd7n/8EhdXY1VVCmMwVBYmEZChWvH3Z57bCEc9dwCOZEC4e9y4x/5T2TKNz8yMjcnJ/YpgC1+yH2/Rnsm/+c1N6ZUlx+zZs69UynofZPfiiwg5iukobqfIOACnqKyZJMODPn+hR7duj/jmXrt2bS9APUziWpIWHPORXEZivMvl+jQxMbHSqxSejWPHjn0CYKQn/S+m1KpV64aqlslgqAyMB8BQvRBZDLJd0W4BiGEAKtUAEBG+O2nS2xC2CNz5ywFlSaXWmb/66qt3LVy4sE9Bgf0UgD+A4gosJ+zwDGi0BPkZSBuA5XSlgJjcvWvXxzZu3BiTk5N/MxXuFUGHgFK8ItlU/FBra3znzm2LrWlwPnDgwIEYERniM1gAmPN/w0WD8QAYqhV/+9tzKVRYENzv3Ylm5+Zk183IyMitLHneevfdR5Twn4XlhuHNYs9ht95688zKkiOY+fPnd9WC90m2KKkksn+372yDy0h5kLTuIHEryJqO8r8AuYOQ1wG8m5SUVGxQ5vnEkSNHbgA52ecN0Vo3rlOnzg9VLZfBUBmYIEBDtSIhodkSQEo6X46JjI1NqSxZ3n777X4Eng2Imff8/VJVKn8A6N+//xptuzsJ+O+AhAkAnPf7g9viOdf/CpAHBKjpDeqzSXwGyKCkzp1aJSUlvXwhKH8A0MANviuSADYb5W+4mDAGgKFakZ6ebhOcWOIAW26tDDnee++9ywT8GNp3zOa/jbA2MjJiXGXIcDYGDx6cPbB/yr0k/lGcsi+uTZF28NYcBGBD5FnLUld06dLlui5duswt6Trg+ci+ffuiLGft9QAAIABJREFUKBjqeNvPqlIeg6GyMQaAodrhcqmJAE4F93s3utc///zz9Sty/UmTJsW43fZUCC4Nuu9/HJBfVVRp3tIwd+7cmnPnzh87b978LVq8GQgL0/p6fzizMQARC1CdAVRawp5QEhUVNRhArKNralXJYjBUBcYAMFQ7HnvssUMQvubsc3i5wwXq0YpaOzMz08rLd39UeO/dJwCgKaNvvfXWPRW19rkwe/bsTnPmzH1DhD8C8qoAiT75gtIG/+zvBorLHeD7YaDb1htWr179axG5oGKKRHCDIx/jd/Hx8eeUythgqC4YA8BQLcnPD3sOwIHiPhORe1944YXLKmLdY7+cfBkiwwPO/QUQ4Su/ve22TypizbMxY8aM+FmzZt03a9actaD6CsRoQGKKyQz4PcFnFdFORMYXN1eQD8DXrgfww7Vr1y1YvXp9+4p6j1Cyc+fOCECGAf7s/2b3b7joMNcADdWSjIyHjz/zzHOPCvBB4CcCgNEFBfoFAL8K5ZpvvPHmo4Dc779a571Up4GldkFOhXkdiiMzM9OKjq4xQCncDvBaASJ9t/iCrvQdhujJVOq/KSnJK3xn+IsWLX4jOFlQ0RxGCL5CmExlf7127dqpSqk/de7c+by9/lerVq2BAGp6riwCVGIMAMNFxwXlsjMYSsvfn3nuvwBuAnzX2ByJgRSue+LRR0MS+PX6G2/cqMAPASr/dT9Psp0ftXZ3Hj169MFQrHM2pk2blkhaN4O4hWSjosl+CBKnQPUZLP43XKm5vox/PpYuXRrvtvVhklbAdUCoMUqJAHwaZKMzXhckBcQCinpt9+6d09PT0+3KeP9z5eDBgx8qpX7tSf7Dg3Xq1L6MnpwHBsNFgzEADNWajIyM2PCI6LWAtAQKlb/XGDjistjxkUceKVcq3gkTJ16rwEyCYUH3/fNEmDx69B0Vmlp26tSpl5OuG0ncRKJdkLL3Ked8ArMBfuR2508bPnx4iZUTFyxYnE6Fj4OU+/fRUZEJSUlJBQsXLowMD4+6H5BxSrFusPIvNBj87f0ApwBqcseObZeR1BX5fZyNQ4cOxQI4ADCGJJTif+rUqXN3VcpkMFQFxgAwVHv+9rd/tKHSqwFEO5Q/SEKRG7V293niiSdOlmXuCRPeGEIlnxEMD1L+EKXuvvvOOyok8+CUKVMaKOUaqSE3KbIHQXoUL5zKPw/EPMKaYln4/Oqrrz6ncsMLFi6eTWBwoOdA7uvbt+/rznGrVq2KE5EHQeteQhoGKP/A5ECOttoPYIpS+OTIkSPLg70PlcHBgwdvBvmBz0CyLCutdu3apgCQ4aLDGACGi4Jnnnn+JoF8QFIBQZ4AwfzTp2OvycgYU+KuuDhee+3f/ZWFGQQjg5U/yVdGj77zoVC+Q2ZmZhNa1vUKHAmwJwhVmLnPr/xzQM5WUFMiI8NmDBw4sFQJeb5cvDjBpWWHZyrfTp4/ZmefbJ6WlpZX3DPr1q0LKyjQ1yslY0HVu2TlX6R9iuRyKC6G1ovz8vLWJiUlVfiVwoMHD84EOMR7TPNL3bp165Gs8quZBkNlYwwAw0XD/2fvzOPjqsr///mcO0laSumWZu69MwmhtGwBBAoIyL5TpOwFQdkUEFkU0J+7IuIXFAQUkF3cEKiAILRWQMsuCgURu9BSCO3MvXe6l7a0Teae5/fHJOkkTTJ3kpks5bxfr8CcO88955npzDzPOec5z3P99T+7CMRdaDFurQa7xRy9EIZNJ37rW9+KZDB/+atfHWRB/ZXEsJZ95Px9/+kjR24zuRT73lOnTt1RhCeBciqp9s7N8/Nm+rnx1oKcpiiPDRkyZPoxxxyzrqfj/f0f/7iZ4JXt9/V58SGHHHRPlPtff/31PQFcBPB0kGOKcAZAch2If0L4hmXxTcuy3hw/fvz7pUwuFARBDcA0yRgJQKnf1FRXn1+q/g2GwYRxAAyfKH5y/c+uVMTNHbcCWszqu6RMvvrqq+d318ftt991FKj/TDLP+Lc5E+80bRx64BVXfL5H9e0feOCBIVVVVYdCqUkEJxHcHu2di1bjv4qKT1Gsx1avHv63888/rNf1DWbOnLm11rKI5Ki8ff05IvpTxS7Vv/HGGxUi6khSn0mqk0Bu08HYt1QKLtherRTfAvgfIWYrYHYsFpu73XbbrerJa/R9/zJS3db6fopYx8TjY57pSV8Gw2DHOACGTxzX//TG7xK4DtgsKBAk10Lhyq9feeV9nd17222/OgnEwySqcsa43dJ/JhtTn77sS1/6sBh9HnzwwW1DkeMUrONBHE62xCogb5aca6eEnEaLTyCb/UepMwo+++zfr1GKP8wP6gOsEw477KCne9PvzJkzh2yzzeijSH0cyWNJbhfR+HfXThOcS3IOiTkA5mWzQ+ZMmOAs7U4X3w9eJbF/S2GjTE3NWBP9b/jEYhwAwyeS66//2UVUvCO3FNxhJYCEgM8hxq9+/Yor5rTec+ttt31eQT1AItaJ8f9YKRx+8cUX/6vQ2NfMnBkbt3jxZ7RWk6gwicSunRh7gAwJ/BsKT1vk9ClTpvynXO/HzJkz7TDUC0Bu3Tq+UvjHoYceekSpx3r77bd31MBxCjya5Gc6rg60D2Qs3G4LVsy1l5OYQ3IuyblKqTkA3nVd98NMJrO91noBW28S/tK2a0oap2EwDCaMA2D4xHLDDTcdA4WpCtgGecY/t5JPkGym4u8ltK63LH0kyDtIqrznW41/llQnX3LJRV3OlO+7777xtKzDCHUUiaMAjsyPG8iLI8gwF7k/AwhnnHXWWcv64r145pnn7qLixXlxBU1aqz2PPPLgOYXv7jlTp061GhoadtMaBymFAwF+BkQiorEvpr2W5EoSta3PA7KfbdsFHTaDYUvFOACGTzQ33HDzblR6GsnadkGB7ff1Q5KKLSftOj4vUBde9pWL220Z3HvvvUlAHQ7ycACHkazrMLtvNf4fE3wJCs+KUs+e87nPvVPKoLcoPPfcc7uI4G20rIa0rIf85IgjDvteX+rRyrvvvpvIZmVvEvtQYR+Ce5Mc3Qvj31l7YTxeM6Gv32uDYSBhHADDJ54bb7yxRqB+S/JYAB2Nf7dtgtdceuklP7rzzjtrSB4mVIcR6nASE1qXtTss7a8D+S8CL4nFF9euWvXKFVdc0enxur5g6tSp1ogRo16i4v6bZtpYOHTokN0OOOCA9f2lV0fmzp1br5TaA1B7KMU9Se4Boq6nzgAgP3Yc5wf9+6oMhv7FOAAGAwAR4c9+fstVCvg/kpWbxwUAnRj/+SBnkDycRANbLH3e8wC5TJGvCuVFaPWK1k2zLr744gFTPveZZ565SsCf5xl/AdTRRx552HP9rVshFi9ePLqpqWlP0toDCntQsBfJXToz/h22WSAiu7iuO7e/X4PB0J8YB8BgyOOmm26aCGU9BMGE/KDATvb9O2t/RPIdkLMomKWUzLrwwgvnDNRl5ueee25cNtT/JTmsxfiDVHcceeThl/W3bsWwYMGCbWKx2JkAv0Zy5+5n/wDJNx3HmdjfehsM/Y1xAAyGDvz0pz8dHotVXAeqS9lSEKeLIMG2tpC3XXrJxV8dqMa+IzNnzoxt2LhxJqkO3PSa8J5ovUdvEgn1JQsWLGhQSl0G8gtsyesfaSsAuMp13Vv6VXmDYQBgHACDoQtuvvnmfUF1N8A9osQFgOpZhfD8Sy65JN2/mhdm+owZNxD8Zt7SfyiWOviYI454tb916w4RsebPXzhZKVxG4vBuZvprlFIzBDi9w/NNikw6Tvf5AgyGTwKqvxUwGAYqV1111b8/Wr1qH5D/D8DHgEDaze/btwl9lED9984775nSx6oWxbRpM06E4P8BACT3HxFcN5CN/7x583ac++6718+fv+BDUh4HcHiL6i0IBAgh/Bsgn6+oqLC11n/q8DxE42lj/A2GHGYFwGCIwE23376tFeqfEPxc7khgl3EALW15KmZZl3+pyKyA5WbGjBnjQ43XSYxs3RMX8h9rVq86uhS1C0rJwoULRzQ1NZ0B8FwQBzBv5aVDZsD/CfG7yljswbq6Oq/1/sbGRQ8pxTPzgwAB9dlk0pnWf6/KYBg4GAfAYCiCX/ziFxOF1s8UWpafuw8KXEelfgSdvXUgRP4/+eSTw2OxipdB7t5q/EEGFTFrjyOPPDLT3/oBuWOJO++88xFQ6hwFnkJyaBeZAJco8iER+d2ECRPe7NjPBx98MEQptYRUw/O2BrxEwt2WZJ+XIDYYBiLGATAYesAvf/mr40H5KcmG9nEBmx85Izkbor510UUX9Cqnfm944403KvxgyVMkjtmUjAhZRRx97LHHzuwvvYBcQOKYMWMOBdTpJE4BUb3J2G9yqEhuVIpPkfzd6tWrZ3RXOnjRokWTRfBkflyAUvxpIpH4Vt+9MoNhYGMcAIOhh1xzzTVqzJixpwv5HUXuXjB5EPCCZfGbF1xwQZ+nn33qqafvB3lBnvGHorrquOOO6Zdo+JkzZ8ZGjhx5GJQ6nYKTSVZ3srQPECGELyqFR5qbm6fuvvvuK6P0/8EHH/5WKZyTFyQoSnHnRCLxbrlfm8EwWDAOgMHQS0SEd9xx92RSvgdy7w7JgjpuDYgQT8BSP7nwvPNm9YV+f/nLX34Aqh/lRfwDVL87ftKx5/bF+K28/PLLw6uqtjpaKR5P4oT8mX57469Cki9B4U8Sho/ttttuRW1PzJ49u3LYsGEByFFtKwmQV+rq6g4s00szGAYlxgEwGErIHXfcdSyV+iYph3YfJAgQ+BtgXX/BBee8UC59nnjiqUupcFuujEGr8ce/h2211SGHHXbYhnKN28qrr84aX1GhPytQxxNycFuWxZbcA5uMP0NFvCSi/hSL8fGGhoagp2M2NjYeL8DTHc7+f7Guru7XpXpdBsOWgHEADIYycNddd31KQ12uyLNJDOnWGQD+BfCONWtWTS1lXYAnnvjLxSDu3GT8CSgshtb7n3DCCWXJVfD2228PW7du3UG0rKMoOJ7kjh328fP39TWpXgL4p8pK67HeGP18GhsbfyfAF/Jm/2uGDh3q1tTUrC1F/wbDloJxAAyGMnL33XdXQ6mLIPgKqRJdBAm2tpcS+DUpd59zzjkf9Gbcxx9/8gIq3Js7sti2778KEjtw8uRjZ5fm1eWCCzds2LCfCI9QioeD3I9kRevsvhPjrxXxEoA/hWH42L777lsSo9/K4sWLhzZnswHBbdry/pN31tfVfaWU4xgMWwLGATAY+oC77767gox9FgpfJHgsSavV+G9aDWhrC8mXAP4+m9346Pnnn7+qmLEef/yJ80Hc18H4byTkmMmTJ/dqu2Hq7NmVNUuXTlRKHQjwcJAHERi2ydhvWtrPa68h+QyJ6WEYTttvv/3KduRw4cKFp5DqsfzMgJZSu9fW1r5TrjENhsGKcQAMhj7mzt/+NhEL5TxCzlfg9h2Mf0dnYAOpppH6sVgsNn3KlCmru+v78cefuFIgPyfbFv4BQivic5MnT55arK7PPvvsCKXUAYD6DC0eRME+ubP5XRr71vYCRTVNhNO22WarFxsaGpp6+n4Vw8KF708leXre8b+X6+u3PagvxjYYBhvGATAY+gkR4a9//btDqXAuyZMIjCjgDDRBcSYgf5aKihlnn3rqh/l9Pf74n68D+J2OiXNE4cqTJ0++tZA+11xzjdp33wN3isX0vqTaB+CBJHZF3kpCm2Hd3Pg3K+JFETVNKtS0gz796fnlfO86Y968ecMrKioDkltteg/w+fr6+gf7WheDYTBgHACDYQDwwAMPDFFKHQdYnwPls0TeLLtd0GA74/6ukM9S4RklPJ7kxZtlzQNuPvnkE6/ubMynnnqqTqmKfUjsS6X2JWQiyOHMM/CbdOiszQyJ6YCaXllpPbPffvt91Hfv2OYsXLjwEoC/ypv9L8lmm+smTJhQssBKg2FLwjgABsMA4/777x8ei1WdSMUpJI4iOaQzB6DN2HfRJvHI22//56wf/vCH8vTTT48XkT1B7klae0KwJxVqur4fmxl/kutBvkLw76T8/ZBDDplFUvfz29XGe+8tfKdlxaI1n8AN22237bf7Wy+DYaBiHACDYQAzderUrTduzB5D8iQqHM+W5DYFtgoA4mOCv6fiLgT3ADG8g3OQt5TfZTsk+AaZM/hKqVf7IndAT5g/f/7BSlkv5GUS1EpxfH19fa9OUxgMWzLGATAYBgkzZ86MBUFwiFCdSMjxpBoXxRmIaOxBsiln8OVFki9ls9mXJ02a1K/L+lFZsOC9R0BMad36IDFt3Lhxn+1vvQyGgYxxAAyGQcqDDz46oaJCHyO5Y4WHEhzWllI3Pw6g2zaWArxfLD7z8UfbvDZlygHr+/t1FcucOXOcWEXFh7n8A62xD3LC9ttv32/FlwyGwYBxAAyGLYDp06dXrVu37kDSOobE4SD3IGgVihNoaWep+D8K3iAxSyn1xqpVq/47ZcqUPjm611vmz59/Lcjv583+F44bN26HgRSfYDAMRIwDYDBsgUydOnVry6rcj8SRSvFAQO0LSkUEZ6C1nSUxH8QskLMoMqu5ufn1SZMmDaiI+g8++GBkU3PzBwRH5uX9/+r48eN/2c+qGQwDHuMAGAyfAJ5++ulRYRgeJOQBCmp/EHuT3KrIOIENBOcCeNeyOAfAPJLz1q1bN7+/HIN58+ZdR6rvtjouIFaH2WztTjvttKZVZvTo0dsMraw8puO9ITDbsqxKZLPJdCbTtl0wfvz4qvVr104OgeeDIFjaV6/FYOhrjANgMHwCmTlzZuzjjz/eQ4T7k9gPuRz+44oMGmw9HhiC+ABUcxVkLmC9S+o5zUOGvHfY3nsvK9drmDdvngvwXZJbt8U2QN0yYcL2V+XLxePxGou8Cjm1zwfkzyJcRUueFa0mE3JpKBgfBEEjALhufDKFTyjw0MW+/2K59DcY+hvjABgMBgDA9OnTtyG5O2lNhMJEBU4EsFOXmQC7zheQXwRoI8A0FXySHoQ+qTxYeN8CfBHx9t5778ae7NfPnTfvDwTPzgtsDCGyww477PB+V/cknPhblsapizKZ9wHAdZxfELK7CKZ5QXATACQd548C2V6B3zAOgGFLJtbfChgMhoFBy5G/l1v+AORqAQCyJ8hdIXo3gdqVQAOAERBB66Y7ALS2BS0zi9yDKhDjAIxDqzgFFEByyXow6823Nsx6880UwaUklwNcoRRWiHAFqZYrJWtIfqyUWk1yndZ6vVKqFoKz8geCyF+6M/5dIYJHSZ4F4CbXdbcS0SNBfAjp8VtpMAwKjANgMBi65KijjloN4PmWvzaeffbZuoqKigaAu4KYAJEdQO4ogJ2zyZ06A120ZQiE40GMFwCkQIRtzoK0yGstbSsQ+b6H5MQAomC9g05RsgzCdbU1NduHCPeB8CkQh/WoL4NhEGEcAEOvSCaTQ1U2O07IpAAUrVexomJ+KpVa0d+6GcrHUUcdtQjAIgB/zb/+2muvbdPc3DxBYO0AYAIV6gmpF+G2IGoJVHTlHOQQQNhlWyBgJ20B3txxxx16vFxP6qmhUqcQ2CcrclkMNA6AYYsnlnTsNzpeFIGXDoLJvek4YdsPkxjf/ipvSfn+ZpW5XCf+uALrciKYmfKCb/RmbEP5mQhUBI59g4TZL4fEVmhdL1WEhFk4jlPv+/6H+fc0NDRUzp49e1CcLTf0jJaCQLNa/toxdepUq76+3hWRegDbgoxDdBJkHGBCBHECSRDDgK6NfWdtUn7RK8VVxeNKss9AZHEmk1mScO1edWcwDAZiAkzc7CoxsTYe33VxJvO/nnRaF4+PC4kpsnmQYbwzeYINAuwAACKyqCdjGvoUBq79OARdpVpd4/t+279jMpkcCp395qqVy2sAfKVvVDQMNKZMmRICWNzy91JXcq+++urQYcOGjQkta4wVhmNIVmvIGEU1EsIRIhgO6K0U1TCAIwGRbDZ8OIoOhJqrK6xNRxZFllO4NuWlViQce44Q03NyWCIiA7LugcFQKrrcAtAWpwDokQMQKpwBc8JgiyVh26d2ZvwJfCTA1hD8Dy1LAol4/LMSZn+BXBDYA32tq2HwccABB6wHkGr5Kykp3z8rv+0FwbWtj9N+cE6bnBdcVuqxDYaBRtcxAILTAfygR70KzzTmf8tFyJPZLkRabq2oGvqjxsbGVQCscaNGbd32lMJdABLFjpG07X01eTKgd6TQErIRDJ/2vCXPASY+22AwGHpLRwdgDYDhLY93Ssbju6UymXeK6dC27V1A7N7SbBfe0xVCfT7ArQBAKVlSzHiGvoeQCXnNRWk/83UAYUs7fH/lytU97bu+vn5k88YN92sIQfmNiLqLlgqJ7I6irTNdx/6egOd0jC8wGAwGQ3G0dwAEz5M4RIBtAEAsng6gKAcgpnCGtM7PBK+B2L/QPZ635NVixjD0O61OIgSYi03Gv1eMHj16m+aNG/5G8GdQ2qO2dgMQl2zWr9D6jcalmQsT8fh+JP7iOM5k4wQYDAZDz1EdWhsEeLKtndsGKAoRnNn6mEoiBeYYBhlERdtDwcpSdTu0qvJ2grelfP8xaHWaUK7R0MdB8fvNMeuDhG2fm85kXhOlL7Egv4eJMzEYDIYes3kMgJapUPxCS2unZLJm91RqyX+jdOa67l4QvUOuxQUa+g2W9zfaSsbju0CpHUBdpYF1KsT7qUxmDno4K43H49tVKLWnpv6osln/r3Hp0qDQPbZtj7VEdhMLY6kZKnKJVmp2Op1e3hMdgNaTFNxZlGwDWOtFZLlSak5v+gQQS9r2XlqJDWCY0lwVko2+789DD/fVSZZkP762pmZ7AepTvv+HvMuzPD9zCgAkXftnAvwYwG89b8mrCdt+r9Zxjl7s+38rxfgGg8HwSWMzB2BkdfUzq1YsXwlgFABIyNMBRHIAFPSZbdaA0Wf/Cdt+DsR2Lc1n0n5wSXfyjuNsa1G+IYIzBKhuTRZCAKKAhGOvBOQ3Quv/PM/rtBhJwnFeAcTO6c3zF/v+y0nb/oUQlwjEohDNMUsnHPtxS8s3W3OHtzIRqAhs+2wQlwPYE2wxhQQ0BNBhmHDt1wXyC8/LPIIIBnbcqFEjNg6tuhqC80KgFkDunDN0zo3SoU469lta8OtRY8bcF/VMfTJZs7uE/AbAEwUYnuszl19FQZBwbR8ijzSHcsOSJUsynb9f9jygbeZf23pdICckHHtha5uC5zXwJonWgiybjn4SpyUc+5C2phUem0otXQAAYUwdpyB/6vpVyAqAza0tRT4SihwPwDgABoPB0ANUxwuzZ89uouDPm64w6jYARTCltaGFD0XWgqgFcvnCBdJproBWXNe+TEHmiuBSANVdiI0CeCVFz3Ec56DORaRu05jYyrXtW4W4DICVJ6QAnJa1rIr8O13X3TFw7NdAPABgL3S+FG1BsB+FDyUc5+Vtq6ud7l5XnW03bBxS9Q4E30eege2AEmAiiTtWrVj+juM423bXJ4BYwolfJ6F6E+Dnkbd33w6BA/BrFZZ6z3Xjn+uir+2Atpzu+e/H1m3XgXFC2CRH5V3LdzKH58uqrFXZ9sKAbSFqQYcxd3Zt+4aEE79LwCsguKL1iSat5xOoL/D6DQaDwdAFmzkAAEByal5zx2SyZvfO5PJx3Zr9AbQYJL7t+/7cUiiYT8KJf4eC2wAMbbtI+AJ5EJBbATwKIH8GO1ZB/pqMx3frrl8BDmbO+G8O8Zrnee+26ZBI7EDRLyNn+FvJAngekLsFci8grwDIq24mB2QrYv/qymCPGzVqRJhLQJJn+LkAwGMiuC3XL/4GYH3ebTso4NmGhoZKdA4TTvwBgN9Fe6emEZA/UHA7cu9XfsrerSl8MOE4X+ukvw8AvA/gfRDNedfXtl0H3qcgEJGVedeyebJr8mV1LGxbwdDCrGi92YqUAoYR/Bw0vpYOgmmt1ysqdEwo2Y7yBoPBYIhGp3kAFvv+3xOOvQwtM2wJOQWFtgG0ajv7T0r02X9EkrZ9aMsecCsbILgq7Qf3IG+/Px6PD4tZ/BEEV7dcGiaKvwGwN7pahqd8HQICWEHiNg15S4mKA/pUEdW2GjJ69OhtqMMZkr/yQDwtUJd6ntcug2EikdgBOrwHQOuSd62C/Gn8+PEHvffeexvzZTdUVX2VQF1LUxP8csr37+2oZjwer4kp9WdADshdkQmrV6w4D8A9HWVd2/4+gM/nXVoKwVfSQfBovlxDQ0Pl6pXLrxTgxy0zewJyUyIRfyedzvy9VS7tBzu1vTbXfg/A9rmXz6c6Jldp4Q4ASDjxFMBcHgDBo+kguKATWYAyHwq7AXg67+rcVBBcnnCc/5FybzKZfCWVSqUBAGFsdwDvdtaVwWAwGArT6QoAgCwgj21qFtwGsMC2EwOS1XikBLq1QxM3YpO+muDJ6SC4Ex2C/TKZzLq0F3wdkLvzLu9V6zhHd9m5oEKAQIV635QXXON5mSdTvn9Pys8ck/b9u1rFhlZWflXQFqsAgg+lveCkjsYfANLp9PyRo8ccjfbFUvbZsG7NlzvKkjxlkyp8uDPj3/LaloQiJwGbIu815OSOcttWVzskvpV3aaVQHdzR+AO5LZ+UF/xUoKZg06qFBa3uRPuVg7KSzerpAKagE6c07fv3CrEUOvvt1mtCOd8Sebyv9DMYDIYtja4cAEAjfxtgh0Si5lNdiSbi8UMItFTP4D+DIGgskX4AgFrb3oe5GXwLcm/K92d0e5OKXYe8ZXgNvZmhbIfgusVLlizs6un6+vohoFyVd2nxhubmi9HNaYPZs2c3hYJzkbfMLuDV2MzISdvSP6G7rWceBMFSEA8B8h8Aj0Hwz44yYWXsSuRvk4Bf9TxvXnf9ep73BIk783SakLDt7t+zEpILPlTTk679vU6e1hS5TQRf3La62mmJU/h4cRC83lf6GQwGw5ZGlw5AOpN5QYBNR+B016sAovLO/lOX/Oy/ppyY36bOLS/tnpjuAAAgAElEQVR3RzqdTgG4lYLbRXApdfd56CvD8LHunm9ev/6AXOGRVuTOZcuWrSmkRxAES0n8Ou9SbSIe37uD2NJND3lubW21212faS+4NO1n9kz7wWn5uczbNBMcl9dMpX3/j4X0BICsxk3Ic5qE7DMHAADSvv9D0dgz6do/Wr+x6UdNzWFbQGLKz9xOK5bIxmInUfPy9RuavtSXuhkMBsOWRtcrAECoiILbABOBCoKntt4Ta9bdHOXqIcL92h4CQdT0xGk/uDoVBJd7QfCrVCbzr25E3y943t/ioflNpfFUFB0AIBT+Jb8tFg9uJ0D8I69Vq7Oxd1zbvqHlBEPX9Ro6IR6P1wBoyBttOiLmRGhZuXl7k1r6kK6ly0I2HQSnAMDQqqoXKyzrKteNn+i68RNc275SdHYaiN2zIketWLHioz7WzWAwGLYounMAEArz9/J3SCQSe3SUCWz7aACjcy3OjJI4p2gId9NDFpWaOBKCDwqKiIzLa65fnMlEPuWQzWbfym9TZPv8tsrqnxPIN2ijSXxTQV5MOPaShGs/krDt8+rHji1YpLwiF6OQdyxRvdWlcCdQkCfPRH19/ZBi7i8BYcoLfgiljlDkQgXuSXAfKFlJFTst7QeXZDKZdX2sk8FgMGxxdDu79H3/lYQTT7dFcWt9OoD/tBMizmh9KNQlj/5voabtkUhvMuF1DqOks+WYTY9lBYrINLh06dK1CcdeB2DY5n0Bi5csWei6NadR1MNoc6baGAXBFBBTmmOWuI49i+BDKtb88OLFy7zN1WzfN4Giiitpckl+pb8wXDsawObjlJmWjIcP9vW4BoPB8Emh2xUA5PaD85f0220DJJPJoQRa9+c3xmJVf0bpUWhvFNd3JdgLCvZJwYi8Vk9moB/nPd6q45Oet+TZimzYAMgt6NpoMxcMKT/X2dj7Ccf5CTo4cVrJNu1uAIrSlSL5ekKEm+lqMBgMhsFPIQcAaHekTya02wYIw0mtlQMJzli0aFHJCsO00wDYkNce2pVgWSHX5rV6YhTzs/B93JlA49KlQdrPXGX7QVKojgFwswCzu+ivCpDvJBz7/nZqhsjXE9K26hAN5jL7bWpTOtXVYDAYDIObgg5AOhc819h2IbcNAAAQStvyvy5D9H8bxKq2h5SOS+R9AyXfuRmDIs7Ijxs1agSAvL106bQ+QSuzgGbP855J+8HVnh/sKlR1pFwI4DG0d4YA4Jxax2kLKhTLaueECTA2qp4AIER+nIG2rK1XdClsMBgMhkFL4RUAQMj8bQA5FQBc190KgkktF9eFYfSo+KIRtJ3PF+GuUW9LOs6xCce+07XtbyRs+7Tx48dX9UKL/KxzQ+tse6cuJTvQVFW1Z35byG7P+nfE87zFKS9zX9oPThOqWrBdtjxoStsxzDAMF6BdxkPdbuyCEPnyXmNjY0eHw2AwGAxbAFEcgI6nAXass+0Gaj0JLcvLBP9SzshsCl7d1ICbSCR2iHjraQC+TOJnULjvvffeay54Rxco4Sv5ba3w2aj3CnFCftsSvtb6uM62G1zb/nrSce5LOvaLyWSy2y0Oz/OWVa3f+Hnk59iXTUVxMpnMEgDzN93BSYi4WhGPx7eD5B8hRHdHJw0Gg8EwiInkAPi+PwuC91rbIXAK1KaAQF2+6H8AAMlp7S5IeFGhe5LJ5FDBpgRCFJmJdgV6iiMkX0J+Rj/BJfF4vOD+eiKRGAPg3LxLy7YZPbrNAcgq2Y3EjQL5ogAHSXPzEYX6fH/lytXISwdMcFX+8yTy8w7Uum58CiJgkVci/zMh7VcaegY31T1Q7eMLDAaDwdB/RHIAAAB5FQJJnAnB8S3NlaNGVZe1Jvti338RyD+fjiuStr1vd/dIGH4feUV7RHhfb3TwPO9jgHflXdo2ZvF2dF4KuJWY6Oy9yMUMtGpy9+zZs5s2ta3nkLevL4o/7KbCHwDAdeNHIm9vX1PaHc3UULflV+yj8Je1NTXtcg90pNZxjiFxad6ljCg1tcsbotMWRCiCbks9GwwGg6HviOwA0ArbtgEE2AUty/8CPtbeoJUHCq5E69l7QYUoPJOw7dM6yjU0NFS6tv0DQPKL4TyfDoLpvdWhoqrqRnBTPAIE5yUce2pnCXpc161zHfspol063febsvqGfDnP85YJ+IfWNoG9V61Y/sS21dVOZzok4/FPU5if2ncdabU7CeB53mLR+EnepWodUy8lbXsSNsdybftSDXkSeZ8HoXwt5/T0DrZbqcABCds+13XdujrbbnBd1xwxNBgMhn4icprZVGrJfxOOPQ9Au+A3qjJG/+ePHwQvJF37uyLIGVDBCBB/yukkL4hwFRXiq5YvP5p5mQMh8ELgfHRVCrgIGhsbV7muezoR/iOvLsBpzTHrswnXfg6C+YBQwJ0p+nAA+TP5ZUrLiUuXLl3bsV8q9S2E4aS8jIfHZStija5jzyTxPwJaBDaBXQSYmHerELwylUua0w4vCH6cdJw927ZBBI4Q05KOPUeAF0Wwmgo2RI4EkOig0f95XlCSf1cNvkXIQS3NGIjfUDRCAioXR/LX7u43GAwGQ3koKs88iUdE8MNNF+Cn05nnS61UV6S84KcJ2/4IxK3YZFx3ArgTiZyJb78gP1eTpwa+31gqHTzPe8t13f0p+gkAO7ZcHgJpDQpkZ3sCr9MKz1rsL31v86dyWe9c1z2comcAbQF9lQSOgeCYVs+lgweznpRvpryg09LBAHTK909NOM7PAbkCLe9My+rNLm3vV3tt1wH8en4J5N4iwF0ELkK7Y5Btz+0C4wAYDAZDv6CQW6Jt/es2kr/lNECbPIE/oJuUuEqrbL68iHR6pExyefBb++xWh3QQ3Glp2RnEb0Gs7lRI4AHyHaHa2/f9TnP2C9AaSLcSKC7Zjed580aOHrO7CC4D8L8uxATEvyA4N+0HB6RSnRv/vD7fzWrZtcXBauxGdBkED1hadk15mdsKqBqmff9rQrW3QP6MLhIQAVgCyK1CtXMk4y+b3jtd4N/L9/25FBwCyCvo6MOQtZ3fZTAYDIZy010A24BnIlARxOMTxbJshbAaopYrkfmLgmAOSrDkH5VEIpFUWjcIMFYAKmDJxjD8T67Gfc9wXbeOWu9GJSM0MIQhlohlpT3P+y+KqEOQT319/ZCmpo/3UmLFQT0GolZA6wWpTGZOT/sscvyRGzZscJVSYWVl5Ycmx4DBYDAYDAaDwWAwGAwGg8FgMBgMBoPBYDAYDAaDwWAwGAwGg8FgMBgMBoPBYDAYDAaDwWAwGAwGg8FgMBgMBoPBYDAYDAaDwWD4ZFDyVMATgYpMMlnDbNYFOVqLbJM3lijyo5A6ZIi1IflRGIaLOquQN4ixHMdJWlrb2sJwAEOpOQQASGY19RpS1mlteb7vLwag+1ddw0CmoaGhcuXKlXGGYYJKjRSR4Wj5LgGAKLUaCLXS/Egr9RGARaUo42wwGLZ8eusAqEQisTu0PhSUA0SwC4kdIKgorhtZBTBFcKEAr1PklWaR1zOZTLeFZvob13WrgXB/itoPwL6AjANRW8TrbwLwgUDmEOplJfLS4iB4C0C2fFoXTzKZHKqam51CcmMzmcWzgOa+0GkLJZa07b00cAiJ/QDsCmAciqzaCWA5wBQgC0XwGpT6Z2Vl5Rum9oLBYMinRw5AIh7fT8izCJyaV8O+1GQBzoTIPXYQPDlQDEsyOXa8hGoKoKYA8qmSD0CshsbjAH6fDoIXMABWCJK2fagQMwvJCdVOnue92xc6bUEwaduHaMpZBE8GUF2mcZogmAHgnnQQzEAfFH8yGAwDm2IcAOW68SkUXgVgn3Ip1CmEn/aCcjkaUYi5bvx0Cr8GYN8+HHcRITdrWvf257KucQDKQsx14+e2fKZ27duh+Xba9/fo2zENBsNAI9LSouvGj6TgRgj750dDEO+PYScCFb5rX0zB1RDU94MKdQLeStHfTtj2jXYQ/HKgrIQYeo7ruidR9A0Q7NgvClBq+mVcg8EwoOjWARg9evQ2Q6qqfk6RL6IMAYMDmaRtH5IhfkXBLv2tC4A4iJsCxz4voeXCdCbzWn8rZCge27bHWgp3QPTp/a2LwWAwqK6esG17l6FVVW8Q8iV8goz/2LFjt0649gNCzBQMCOOfz65QfCXh2jeh+MAwQz+SjMc/bVHegsAYf4PBMCDo1AFI2PZhFvEaIBP6WqH+xHXdnSpj1r8hOA8D1+lREFydcO1nbNse29/KGAqTdJxTRPEFgIn+1sVgMBha2cwBqHWcg0E8BWB4icYQAAP+nL/rxk+k6H8D2Lm/dYmE4DCLeN113Z36WxVD17hu/EShPAygqkRdagAD+niswWAYHLRbRnYcZ1sNeRzAsKJ7EnhCTofIW1Dqv5XNze+tA9bmJflRdXV1I7Bx46isZY2wRGo0sLMADQpygOQMb7/Mul03fgaFf0DvltU3AHhNBP+CkgWWqAVihatUM9dKZbiBTdaQMCbDGapRWsn2FLU9RPYFsT+ArXo45rYQPdNxnMN935/bC90NZSAZj+8mwj8CxebFAAA0gvgrhf+B1m83iTTGYrE1eadBYolEYoSVzY7IWtZIau0IsDMVdoXGZ0CML+FLMRgMWyD5Bk8pyiMQjCnifi3gw0rk3lQQvIjuz6zrRYsWrQSwMu/a31ofxOPxGsvCCRSeCuBoAFYRevSYpOOcLSK/7eF4GyF4guRvYlVVzxeRaOX51gcTgYogET8Yws9DcCqKXHkhYBMy07btw4MgmFPMvYbyUV9fP6R544ZHUZxzlxXIA9T4dTqT+Rdasv11JZtOp5cDWJ53bVrrg0QikZQwnEyF0yA4FAN3S8tgMPQTbT8KSce5SCB3F3Hv80J1led5b5VaKdd166D1V0hcCmBrADrtByV3CJK2fZzktjuK7ftjCm7XSt3oed6yUukzevTobYZWVV0OyFUARhd5+4ehYJ8gCJaWSp9WTB6A4knY9vdBXBv5BsFTotQ3yvH+JRKJHSQMLyNxIYAhAyCvhsFgGAAQAMaPH1/18bq1jQTsiHf9PO0F30SZs4m5rlsNrX9AhS+nvaCylH07jrOzovwTghFF3vpYrDl7+YfLlvml1Cef+vr6kU0bN95IFHf8ksBLI0aPOXL27NlNpdTHOADFUVdXNypsblqEnPNaCA3I99J+5gZ0P+PvNYlEIgkJr4PGUekgMAGJBsMnHAUA69etmxLZ+EO+m/aCr6MPUol6nrfMC4IrtHD/UvZbV1c3Son8pUjjv4aUs9N+cFo5jT8ANDY2rvJ8/0KhOhbtl3i7RYCDVq9cfnMZVTNEINvU9EVEM/4QykVpP3M9ymz8ASCdTqfSXnCeJieXeyyDwTDwaT0F8IUowoQ80zJT6VN8359Vyv7CbNMtRQZJLaalD0x5mT+WUo9CeJ73DK1wPwCRZ9Ui+Irrxo8so1qGAjDi9wmQP3he5v7yarM5pf4+GQyGwYmKx+PDADk4gqxoWldgABSn6Q1J2z4OgnOLuGV+rDn76VRqyX/LplQ3pFJL38tqORjAvIi3kMJ7q6urS3WM01AEiUQiCWK3CKJNYa6uhsFgMPQLqlKpiYh0RlleHez7u2PHjt1aiHuKuGWRUB1V7iX/QmQymSVQ1lEAPox4S31VhfWjcupk6IIw3B/R4jaeLkfApsFgMERF6ciJb9Rfy6tK+amMxb4GIBlRfG0oOM7zvEXl1Ckq6XQ6pcDTAGyMdge/4rpuXVmVMmyGRPw+kTLov08Gg2FwowBEMxIii8urSnmpq6sbBeiro8oL5UsD7Vz9Yt9/Q4ivRxSvUlr/sKwKGTZDkZG+TxQ1qL9PBoNh8KNEJNJesSIz5VamnITNzV8HODKKrEDu9bzMI+XWqSd4XnAHBP+MIivEOfF4fLty62TYhDDa90krNai/TwaDYfCjyGhpSrVIseflBwz19fVDAPlyRPFMrKLqm2VVqHeIKHUZoh3DjMWUurDcChk2ISKRvk8Mw0H7fTIYDFsGMQFXMcIRZFKcPtCnLGSb1p8CMFpmPcH/a0lZPGDxPO/NhG0/CuKMwtJyQUNDwzWlTg5k6BwKV0UJAdRq8H6fektDQ0PlmuXLJ2hyRwHqAD1UhCNIaSa5FsKVmuEHYcj3MpnMB/2tb28ZO3bs1kqpsUqp0SKyvqIiu8qytl5RROpwQyfU1NTEK5XaWSsZp8CxAgwTjUpSPgLUBogsVuQHTVrPzWQyg72AVqx+7NhqbVljmskhFVqvRFXVyt7aqhhElkfMNXcogF/0ZrD+QsAvRhR9Nx0ED5ZVmRKhyRsVJIIDgPiq5csnA3i03DoZACoslwgpfZjLz/9wufUZKNTWVrthc+wskkevWrH8MyC22pT7iCBz/8+9dwKKQkwBCcfOAHiF4OMbs9kn84qLlQXXdeuo9ae7kyGwNhUE3QZxuq67l4K+AILDBNgld1UAAjobg85uyCZs+3WI/F86k3l68/vjJ1KzYPbTrMj0vjZu8Xi8JkYeUkhOaf3m4iVLFpZwaCtp20cL5SSQR0CwvQCgbJrCtn6O2t5rCGKK2YRjvwXwOWr9UCqTeaeEOnVK0rYnSYGieqLUa57ndRkLNHbs2K0rLOtcEpMAHNTcUidGQRAqAs1NSNi2B8o/0n6my9wjyeTY8dBqkghqhHifjD3ZUkcEMQKRotwFPLK6unr4smXL1kSRHygkEokkdHhYNGn+BH2Q4bAU+L4/y3XsFwkUzuFAORHGAegjZFG0U4A8fiJQMQtoLrtK/UgiUbM/QvVtncUkElYPEh7GAZwikFMqY9Y613HuB3lTdz+cvUGJHCTEH7qTEXABgE4dANd1d6TWd0D0EQVeaQzE/iA+DWAzB4DCL4A4tZC+FVSfB9CnkxaLvATENQXERFdUlKRUeXV19fCqioorAPmyAEmAxX6MYgD2AWQfUfy269hvKPD6lO8/gXLltSFuB9Bt/BW1PgNAZ59jK+naXxfBNwGMKjCOC/BsdJF8LOE435MQYmn9UKypafmGoUPHQcJrXTf+jOdlnlSMxV6J9oqw9ZDKWNQI9AEDtZ6EaL/IS23fH1QzMgVG/OLzOPRRdcVPOhpW1O9TMrDtL5VVmX6kLh4fl3Dtp6DVqyBOQGk+f8MIuYKi5yds+/sNDQ0lrQ/SW1w3fgFFvwniiF53puU3UcSEcmavxyoSkmdHEHshnU7P7+VQynXty6oqYu8Dch2iH+HuFgJ7C+SxhGP/M5ms2b0UfZaKbaurnYRjPy+CG1DI+Bcg6cavoMgsoQ5CxYc2Dq2aAZGvDN1q66sUuFfStvdVqVQqDeD9KB2K4OqB9oYVRh8XTU4eHHSzMct6FECUvf0xruuWtJ6CoXM8z3ubwEeRhIkf2bZdX16N+hy6tn1pqPhfCD5bpjGGgLh21Ypl/xoo71/SiX+VwvtQXPnnLklnMjMECAoKCo7OHXHuG5K2vS8gEwrJkXJvb8api8fHJR37eQpuA1Ddm766YV/R6o2E43ytTP0XRW1ttZutiD0P4MDe9tXQ0FApwp1TQfBXao4U4vdpL9ifIsPXr117wohRY34ilC8qACDxWMR+h0monnJdt7a3CvYFDQ0NlQJGyosvtH5fbn1KTSqVWgEi0oyTIgX37AwlIRTgiYiyYxXxdCKRGFNWjfqI+vr6Ia7j/IG55c9u9z9LA/ewiNcT8fh+5R+raxKO8wUBb0ERlTsjkFUFtiJaqMxmN55cwnG7RUeb/S+PVQ59vKdjJBLxI0LF1wU4qKd9REZQAcgtSdu+H/24ShqPx4dJNvYsgB1K0d/KlSsbhPJ6a1tp1CZt+1CQtbCs/86ePbuJwiYFAM2h3InoeyF1EP1vx3HK/4/TSz5asWJ3RKnKRvie571Vfo1Kj2g8H0kOemKZVTG0QMEdkWWBBurw9USi5lPl1KncjBs1akTzhg3/IOSsPh66GhZn1DrO3n08LgAgmRw7AZBfobTGHwDAUH4bRU5JlNNAJSHGSIHH8vuennBI2PY50JwBINqprRIhxAUJ174Pmwrk9SkV5C83BYv2HkvrGEW1rWgLuadQbhHqX7ZuzWhAFABkMpkPBPJk1M4J2Iry94TjfG8iouUR6A8E2DOi6N/QB+VYy4FFPh9FjmC//EB+EkkFwb8BvhpVXoDtoNWrSTd+OfrpB6g3VFdXD99YVfVXED3dZtoAIAWgZxH+ghEaMi2RSJRkj7iooUPr14hY+rlYFmcy/wPweiE5AQ+3bXtsOXTIJ+k4RyIXlNktobBHy/9JxzkbxK+RC9rrCUtbtk16FsgtOC/h2tf0cOwek7Tt44S4oJR9NonMAdA26RPKX4TWZII/yeXFAUEZ0vZjE2pcDeDjyCPklk5+HNj2G7W2vU8plS8VQonmAEScRQ9E1jc3v4VozkttX/xIGHIIeTmAbBG3bCXCXyYc5yXbtks2E+gDYlWx2J+LNP4fAnILBYdWVA0ZlfaDoWk/qE37wXBasa2EameAV0Lwd0R3zGsg4Z/6ckLiuvETUYL92u4QQZRVgJhFFjwx0GtdoCMs/8srPUmhnrTt4wTyG0RdhieaAUwneFEo2M72g8q0H9R4fuCk/aAiFNRAywkA7ooUS9GmPr6btO1JxerfC5QAN5S609zRUL0mkaj5lAAbFGSD53mLIXi2ecOGMxOOc5ESPqHybvhAiOIryBG7a+KfruPcWz92rF3SV9FbNPaIIsaYHpTL/wDQciwz0lHOWIFjKYbS4XnemwB+WfydcoBFvJVw4jf3ZXBXT0na9i1FRL0vgeAraT8Yn/YzV6WC4IXGxsZV+QKpVGq953nz0r5/azoIjlSCTxN4KVLvgv182+6rgC5C+JOuVcFsED+GlhM0uDe17A6lD4BgCiA/Afh2lEFULPYQIhUAi5QTpMfkysbzpMJqFD/7d113R6H8ERFn/gL5M1XYkPaD41O+f28QBI0dArglCIKl6Uzm6bQfXAKq7UXwQwBR8iUoodzTV+XUk278TBBdBdZ/DMHDQvkSlD5AadlNg3sL5SghLif4ELpZNbP9zLXQvEQpWTliVPXvAKCiasi3AdSSuioVBNM77lvFXMd+msAxPXw9awHeQMu6OZVKre9hHyUj4dgBCi9ZbbT9YPigOwGQR8KxpwEo6LUSPC3l+1EDPttI2vahQswsJCdUOw32ktGlJJlMDpUw+wKAnq6QrSDk2rif+dVA/Hy6bvwMCqMdnSWmVa3fePb7K1eu7slYCde+FoLvRxBdB2XtlE6nUz0ZJ+k4ZwukQPAdF0DkYhD/2PwpLBTIlZ6XeRoFVi9aciQk00Hwp27lXHsqBKcXUF2rWLZ28eJlXgG5HpF042eJFDp2LKuEVsLzvMgryePHj6/6eN3aWQQaIoivEcrZnpd5Kmr/+SQSiR2gw2cAbBtB/Oa0H0QuHteRpGO/L4UmXIIzQH4VkAM6PKMp+FUWuLZQyfCxY8duXVVhfSPlBV0Wfks6zrECOQqgBcpHlsYji4JgNrD5fmN2yIaNZwD4d7eKd83WgFwnYfMC17a/0p/ndFvGjrLk/f5A/HEtCuLDKGIStfKjoSSkUqn1FdlwMoB5PexitIC3Bq49N2Hb52AA5XKwbXsshbdFkaXg9rQXnNhT4w8AaS/4ASRSJcxhovU3ejpOEVzU8QIhT2RD+VSLgSq4dZFOL/lnIeMPANT4TQR9lGStQk5CjxEpHP1P8sFijD8ArF+35vsRjX8KSh/UU+MPAOl0ej6UdSByiZwKcUlNTU3BeIfeQIWGzYw/sVqojksFweWFjD8ALF26dG13xh8AUr4/I+0HV6d9/2tpL/hBq/EHOgk4en/lytVVGzYe3bL/1kOYIHHHqhXL5yfd+Jf6I1Bw+fLlLiIFVDFddmXKjOhoe1yDuZ7DYKVx6dKgIhsehgjBXF0i2B7EbxOOPdt145/DAAgUtIibEMnBlntSQXA5SpBhMx0EPwcxtZAcIV9yXbdcZ8cBSALEKe2uAH9L+ZnTy5GWNxUEf4Og4MxehGXZBojH4zUAji44PnVRy/+5WBdGKby2UqiOTKeXRNo26Y50Op0S8syWGILuGFphWV/t7XjdIYLLO1xqUsLJnuc9U85x8+n0h+T9lStXp4PgGOa+5L2Jjt9WhPcGrj034ThfQB/OYJRS0SKCKYPeAVBkJAegUG5qQ3loXLo0qKgacjAFv+5lVztS+MeEY7+ddJyTUYajZ1FIxuO7Afh8BNHnbT9zWSnHFqhLARQqpbyVQljO44hbAWhb3SQwp2XltJigz2IIiQg5AYj9HMeJsrxdFJbFKSi8P//vYg20olwXod+sUJ9Ryq1Fz/PeJHB9QUHKeSivzWoX4yPElxf7/otlHG8zuptJhCkv+AYEZ6Knx3NaEWwPyO8Sjv1OwrZPRx/8cFHrqOVWl5VVkT5ARFZEEtQYWmZVDF3Q2Ni4IRUEXwT4ZUQK6uqWXQXyeNKxX+/jiOUcCtei0CoEsbo51GeWenvN87xlgBQMrtTCLoujlJhsVnB6b7Y3ohCSv4kgRopMKfXYBCIs/xeX+a/WcfZmlKBCyA2et+TZYvqOwsbm8MaCGTsFTm3u6GNf8DvPCx7oo7HaKLiUmA6CqRrcFcD0Eoy3M4ipCSf+ZiIeL1eaUAAAySGRBEX6PVixt4iSqAalJGlKDT0n7ft3a3BPAC/3ti8BJgoxLeHEX07a9qG9164wtm3XCzi5oKDw2iVLlhSaqfeI5lDuR4EU2AQm1tZWu+UYv904grt6cuytWHzfnwviXwX1IUpaGyCZHDsegm6rIwJYs7FZF1VHRUMuR+GJYCqrS39EDsjtnYMomP1VUwp/1nvPOlqx7/TBOJsRaS/R9/0P035wvFA+h8LLbxHgHlB8KuHY0+LxeLmOpkWc7aotoCa3RHoNQhlQxVM+qfi+PzftBwcTvBiQVYXvKAQ/I8TMhG0/tG11dVnjPCzyQhT63RC8N3L06FicoLsAABseSURBVNvLpcOSJUsyEMwoIEbJVhxeLh1yyCqxrGvKO0b+cJFWAfbKZScsDTprnYWChloeKqZMczKZHA0UPNUAgN8pZ6lj6gg5FqQEhZ0KDSH4WUtNnj6nqGAiz8s8bFVU7gziVxGCKKIwKab4v4QT/3bJTwxQR1oBEMrgPgEAQGkVpSAQKIwkZ+gTJOX798Saw10A/A6lKEtKnJmtjM11bftSlC1QsHCqXwHunj17dlk/a6IK18DQ0IVLZfcCkg+21lXvCyqqqh5GLmtit0gYK1kwIFl4+V9BFXf2XzefgsITtKUjR49+pKh+i2RxELyFwsnvdmwJgiwXWQ3cWcb+u6XoH4lFixatTHvBpVThLhA8jN6n0N0K4P+tXrH8rUQiESlxTyRERXpt1Kgq2Zj9hFY6mvOkCv94GPqWD5ct89N+cC617AFiWq87FIwgcXvCsV8r5UwQaAv+q+9WiGjOal32wlpKR1kO527l1EFDPVTO/jvS2Ni4ChKl0FRpkgK1ZHgtVJzmrcW+/0Yx/YrmCRGk/lBuJxK5oM03CwlZVpeJekrBs1GO+5WLHs8SUqml76WD4HNCtTchvT62IMAu0OGrrhsvSU5kAaLt7UeNFRjQRI536G3wmaFMpDKZd9Je8FkNHlxMHYFu2Ee09XrScU4pLBoRi4UDDgXPlmvvPx9VWfnfCLrsivIFHDd6nleKf6eiUNGCAXets+0oZ+u7JVLlP0FRs/+GhoZKEAUD64RWlEqIvYco+DmiqF3LqECfOpEd6fUyoed5b6b8zDEUHIbeBzYNpfD+hG3/OplM9ipinZHrGuhBHxlPHc0BoLAE+82GcuL7/ktp3/9MSx7z3qWoFowQyKMJ174JPS+w0oYWKRQMBhJ9coxp0aJFq1A4t8DWruuWpdQyBf9APxQQW+z7zyFXOKlbQtXrCoExQAoFFK6r2rjxj8V0umLFit1QIBiZwEee5/2nmH57CiOdAtMlP1rZioo19yLfTgnGL1VHqSB4Pu0HBwnVQQBe6FVnxPkSZp8ZO3Zsz6tsRYzuF6iyZnvqIyIlPZGI+QIM/U9LHvO9hHIUIixTdgMhuNp14lN7m5CLYMGUxqGUZPUiCgJgZSEhFYblCYpU0icGqhNCgFG2WHqVByFS5T/B1GKPP6pIabHlNZQiJiYCIiz4GQJZrtMkS8qVujkqvZ4VdMTzvJcBHJqw7eNBXAtgrx52dWBlhfWk67onFJtesoVI5/sJSfSg74GFghNlLkJgSfmVMZQSz8s8B2Af142fTuEPAezck34Inhw49kPwgzPRg4Q19fX1I5s3biiYXEsBE5OO0yMdi0UifOi1hTiAd0o9NkX1OitdTxHytxT5dvdC2N513b1ailIVP0aEYE9YxWX+AwCKNEihMwVQTDrOZqmWy4EgQsVYQVmCAIl+cyLbKLkD0Eo6CKYBmO667okUfQOAHYvuRHC4Qvhn5ArdFJVKNBaGi5pjEZI4EX1eQ7zUiNBhhB9DEelXb9PQY7TnZR4B8GjCcc4C5Dr0rK7Dqa7j/Nbz/QhlXduTzX5cF23BUG7p83Xx7ilL7ouQLPvZ/67wPO/dhOO82kkRmXYorc9AD1aPXNfdCqJPLiD2v3R6yT+L7TtaPRI5SoCjiu27jJQlg6oA/fYZaqXcOcXF87wnbD/YLXfmufisewIenbDtopMkNC5dmkGEIzMQ1LuuO6gT5BASKdo7ls32tCiNYWAQpn3/97RiO5H4FoA1xXZAyFk9mV1JMwdlIamo8TFFIp7nFV46LiNE4TPskksKVHQQpEJ4EoBut1+LzfyXd2PZ9tPLhpTnpFik7Ycy0ydFRWYBzSnfvyerpUEg96LY/R3iB8l4vGAAUgcEwKIIcpalda8jZvuZwvoTqz9ctszvA10MZSaVSq1PecFPhaqh5ShuUQjkZtd1i1uRI0cXO86AgCzHj/fHKEFxo95QuWHDIyh80qkuUfzvJgQstPy/Aaqih1H6Mvg+R0RZToqR7D4VcR/Qp1XFMpnMEs/P/P/27jxKrqrOA/j396q7k5BOIJjueksldKDJAA2ICmhAJIIcFkEckcXxREVxnaOODs44LkfHQXEcFT3jYUYRhNFxBHFw2BdlCTjIEc54kChLiJ10vaXSTRZ7SdKp937zRzUxge5693UtXZ3+fs6Bw+n+vXdvNfWq7nv33t/vA6I4FwYLePbSpjm5BllHswKjeToVSZ8HalETmd9MFgH+odF9oeYKgmCgshVX/wpAloxpCwXJ1ZkaE5mdT8k0bcZ5GiQlh3wTbNi6dbtC/zs1MONuANu2u5Ba+U9vLhaLZvVHXm7W77qqFxVtaP0IEzNSVrQYRXdZcXICNH0P5h6KY1w3nykvsyZmJVhVtcEpQxsnbm9fZRSokpo4hWanICj9l+SSkyB43vggxWlePv+6DM3wg/tFSabBVuMIrjeIuhAZPuct4CJo9d0imTP/7YvvownSAu+jGasrPrB58/M7xsdPEeAJ02NEJdNaAMu0BnslMcWM11ifDhU1y1Wtmpo6lWavYnHzk+VYTwJgXjZVpPpKcpqcSEuscwyC0v1IneYUr2Dbp5ieU6zUMs/PDIThw6bno9Y2o196W7Zs+VNud/k8mBcYOtF13SNMz78rjh+HWenVV7hud5a7odah6Vm1AAC5XOYVuzS7lEqlzZKLz4Pp4kDBuZ7nmSbKmfVVM/dDCaCpOQHUcBpgWXf3YamV/yqZ/2oZADEdeQtp2DZAUxuHhkLXzb9fVG41ibcQnwHAaDX74ODgiOvYDwhwVlqsqLUGQNNTe9bC87zjkMRpuboBxZO+76dmD6PZr1gcfK7g5j+pKiaPaS3E8ekAbkqNVN1psgKnnGhnIyu40b4kl1yvce4zqLY+SnEBgI8hJf9DYllplf/G40rhqhrozvSlXPIVPww/W1s7ZKIlHnsHQek2CB4wiVVIygKVfYnCaGAB4OKenp7ZVRcgidcYxVn4nwb3hFpIMShdBzFLfiNidj2ppUaLduelZY+juioWB9cDqZURu123+42pJ0ur/Ke4pfbCNelb30TVrq0NMtUSAwAAQGJYElFxVKbz5nK3wWzb4ZLdu3a9J9O5Z9BErYS0+ToAgMK6pcHdodaSKPA9k0BVNbqecokYJZEq5/jh3Wwqen1ajKW5qtMAyxzneKQka1NLv5+tZy8nSE9GpgK+h5qkZQYA7fPn3wezL+pMaRknHn3fbRIr0L+rNV96syTl8nth8rdQPBkEQW1FZWjWsaz4HrNAs+tJ29qMBgCW5vjh3WTj4/FNSNkGqtC39fX1TVk2PEFS/e5f8HwQlGouXKNiNJDke6hJWmYA0N/fvw1miXs6s2buU9F/N4oDVkS2fVmWc8+E3t7eeSL4lEmsWtnKddL+YeLRcPrCPcM858ViMQQwkn666dUqoOkbGhoaBpCWE2DJtqGhqaZ7cgqpXvlP9VrUo/qh6nMGUSsBGORxp1q1zABgglFyiY6OjilHspMJgtKdADYaBQu+nM/nG1L8oV52jI5+CoBJSs2Rjo75zamrTa1GATW5nkyvpQSCp1KjRGfnbprZLkmfBpgqKZDruqdLtbtuwe72cvKDafdtb4lR7pfOQqF7tmdnnRVabQBgVP63v78/9U7kJWKBfMUwdkm7ZX0r4/mbZll392GAGuVDEMXVE09WaC4SMbmezK8l1fTMmorVvb29DcmdTlPzS6UHAfRXixHIWybWDu37c63++F9Vb+8fHKxLKXHN5YyysyZl68x6tEfVtdQAoOoo9M+GMY1ypsUwvA7AsyaxCn1Hs8pRZtHb2zsvyVk/hlk2rdEy8PVG94laU6FQWADFgamBap6SWwUPGoR1jo0NZ9qpQ3WRiFTfoqfAYsTx2Xv/bGI6tWrlP8tsS6mRIAgGTDJWioW31atNmlrLDAB6urpsBRYbhJrMIU2mDMXnTYMV+u1pFCBqqB1jI98EcKJZtF5V+5Ydmq1Ux9PzQwBQwXrTcyaJ/BIGC3UF0nKD57nAivUGpMzTq+hLpgHitwBYVOWQjcUoMltQakpxn0HM6wqF7mPr2i69TMsMAHa3tb3VJE4h0y5p60fRTwV6r2H4fLXkjuW23RJzUZ7jfBaKjxiGb1TJXdnQDlFL09gyup4EalwkqjKglF+nN45zPK/7labnpfrYVCptALC2apDi7L2naARS9U5bFdcha/XWFKK4zSROy1bmMvCUjVVw7S/atp1tb31DJEZ72i3goRoa0URy7xcYV/N6RQzcO9ODAM/JfwbQK0zjVfTjQRCMNbJPNDnPtb/uOM5M1zxvE8E7TAJVMl9PJpngLMTWNzCNWvRUI00tELRo1+jo6on/boPqGVViY8nlrqtLv/ZSjKJ7FUhfUyC4yHXdk+vdPv2ZpQmOyAke82z7w5ihJwKebb8bEJP/0VpW4zv4SQVBsAmQy40PELixhV+5bt4s534d9fb2zivY9rWAfNn4IMUPgqDEzH8zRXG8BX2i4ObT0qo2jOvan0RKUpcJu3bu3G2UgfNFufb2mwCkDy4Fp7uVz5SmqrbXfS4Yj+ObkbKwU1XPBQDHcVYBctCUgYK7GpRCvGwJUmsYABDR5Lquri6jxeF1JLMlH0ytXvzC74TgatexH3Mcx7hyVD0st+0+CL5hGP5QFEX9tbZZDMNrILjB+ADFgaJyl+faX2rWG6OQzx+zY3TkYRW8N8NhT5dVP9qwTpGpV6jKf3qOfb/ruq9uZsOe171KFF80Clb8fMuWLZlq22/atGkroN81iRXBVQXbXp3l/LUoOM47t20Z+tdmtdeKBgcHRyC4uVqMCs4FgJxo1ZsahTYsh4jkyt+CWWGglR253I/RpLwAhyxd6riOfWep0NXTjPZm2j53/AIcb0HXFhx7bcG2z3np7+vN87pXxYK1AMwqkqlhumAD7R3zPwTBYxkOaYPi85FjP1aw7VPr1Y+XKhQKB7uOc6Xm5AkAJ2Q4dGusuICFWFrKatHkCc+x75z4ImzoE4GC45yFxLoPhjXXBdO7nqy2+Osw+/DuUMFtXj5/2nTaMeU4ziEFJ3+LQn8ElfSdD/s5SVKnAXoKhYIHlSrrNNSfyJ/SEAMDQwEEZtMLgvM8x/5Jg5/uWAXHeX+5ve13JsXj9heTfsErcIoK7vAcu99z8v+UpQSvie7u7rzn2lcjsdYCONjkGAUe96Pop/XqQ39//04rV34bUvbOTuJVKnjQdey7Xbf7DNRpkLSsu/sw13Gu1LjcL9BPQzM9adhlQd4aRdHv69EXqruzVfCA5zjPeI7z2Xw+v6KeJ3ddd7nn2P+h0DsALDQ87K5iFE1rPc3AwFCQYVqqEzm527Xty1HnGwrXdZe6jnOlBf29QowWPc4FxShaC2BD1aA4PkZVq61t+gGmsd06C4X1BQBDhuFv37blhUcqeVDqq2Db57iO/ZhCvwfTm9H9RFo54GWAfE40+Zxn2+shehsS3B+LPJZ1i5nrugdYqmcDuECh50HNkv5MKEuiH0U9UlHuZWBgKLBt+425yv7mTAu3BDgTap3pOfZGUdyYWMkvgLZfmS6+6+3tnTc2NnaCaHwKRM5PFK+V6b28XSp68UAQVV/92wyafMtzbbNa9HUiVtsnisWi38w2p08PB3BFmyVXuI69DorbLZEHrfb2xyqP1s0dumTJgeMLOt6sKhdAk3MAZKlkOapifSJT11/ioIMP/trWLS9cIkD6AllFuwj+xXPsd6gknw6Czb9ADdey53nHQeMPQJM1MEweNseoKm4QwT9OFZConiiCQ6f6daxybYP6tkcQBEOebf9thunYE5Kc9TvPyX8TVttVvu+/MN22u7q6Oue1W5eoyocVePVcXa0qnm3/BDJ5isgUGwA8LYoNsNSHWlsAjKlqmwILLQudAJZCtVdh9QF6KKY9j6Of8cNSw7a15fP5FW2WPAhgeU0nEuyG4o9QPAOBr4rtIjIsoh1IMD8ROVigLoBDJ/6p9ZHWCCx9q+/XXqSjmoJtr1bDcs3NlkCOCsPQeCtbo3mO/SCArFNECsh6qD4NkQ0qGlgq2yDJSAKZB2ChBSxU1TxEDp+oiNmDad5Rq+j7gqBU8+ru5bbdFwt+jexfwk8B8hMVuTMIgt8h5U6zUCgcjDg+EapvVMF5qFZvQHGjH0XV89pXa8tx3qnQlPTZ8pwfhkZ5FmaKbds9uUrCnaneI0MAlk72CwXuCcKoaY/BPSf/Q0CMdoHtZQzAzwTy80RkbRAEaU8ScoV8/ii1rJOgeg4EbwIwZU0ZycUri8XB6eacQcGxNyhQ/Umf4mI/im6abhv1kPYEoJpDARyqAqDyr8pPpTLRqXvG93v9bhoEcm0xjL5aQz9TlUqlPy5btnRVUm67BcaJdiZReWy/EoKVACBS+aEqJv4udX2AsUHFenvgs9LffkAAPRyCwwGFKKBQQGXPogHdE1ZzU1cGQVSXrV2bomidZ9uXQnAjsg1Gjgb0ClG9wnPsMSjWA9gI0e0AxiDSUXlCqA6AHo3LXqXr9ej13BBFUb/n2g9CMdX6i0m//AHAQv0y/5mQXPsHNC4fBSDLgtkDAKxR6BpRhefYmxToF0FJVbcJoFBZDAuLVNEjwAoFDqiMtRv0QmahWgYADVf58g8/iDo/+p/MwMBQ0NPTc+ruXTu/B2BNo9urieLW9vnz3808/5SFQr4ahGFdk6v4UXRzwc1/UFW+i+k9kTgAgmMBHLvnk3mfmweatgQ3QKYcAEyllA/DWxux928qxWJxh23bZ+Us/BKKY6Z5muUCLK98v0+8bybuPfkumlrLZALcR+VR+uXFMLwMQNysZvv7+3f6YfQuKN4Dw8qEzaRAJKLv9KPofH75UwY7VPDeIAz/oREnLwal70PxPgDjjTg/TU9Z9Weo1E4xporrnwB2N6hLU4qiaLAc65sy7syiGlliGa/CbBL9rcJ6rR9FprkB6s6Pohvay3EfUH0/bRONiOJr83fuOqIYlH48052hqlrqehLgYVi544Igqk851yn4UXQ9rGQ1FEEj20nxSAx8aQbbbymlUmlUFFl2TqnVFn+/YR1KUSqVNi84oPNUQeMXIFYxCsgni8XB6rso9hNWMYg+KpA1Cqyb4b5shOJSPywdHwQzP6/dPzgY+WF0IRJdpcDdM9SNEqBfVrFWFKPo7zds3bp9hvpBhvwwugSKj5hUPGuwp6G4sBhGp/q+b1QFs1a+v/nR9vnz+yYSBdU1f3xVivUCWeOH0Ru4FXZfscj1xsGCB4rFQePiUI2wfv36XcUwvAyKc5F9i3YtygK5VsU60g/Dq9DEJ88zyQKgxTD8URBGRyeQN4jiOwA2Nan9BIpfQnGhHUaH+1F0PVrsD++XSr8OwuhsUbxWFNdlqCMwXcMAfqai59thtMwPS58zWOFKraPsR9G/+UG0UsU6U6HXGOU9r1PbUNwGxbl+GPX5UXQzmrB+Zm/9/f3b/LD0IVi510BwExo3EFAIHlDRS/woOrIYhj9Ck1/rbBCG4SMTiyxTNTLzX1Z+FN2hYvUJ9G8ADDSwqc2q+OdyoiuLYXhZEASNbKvlTLk+wnGcI3OSnKyQ10NxLCpbb7LsNZ6cIoDgUYHcMx7Ht27evLlU8zmbqFAoLEiS3eeLytkAVqPWrYN/tgmJXnrQ0qWPrFu3rqXmUpfbdl9s4Qsz3Y/JzJI8AFYhn+9LRE6ByMkiegwUf4Hat4ECwCaB/EqBuySXu6NYLLbU2hXbtnvaLL1EVS4CcBxqW5O1FcCjqrgTlnVrIz6sXdd9vSD5WLUYVQmDMPx4vdtuFM9x1kD0vGoxolKev3DhpevXr9/VrH6Z6uvr69i6degsqHWxiL4ZilqyPSYQrFOVB8RKbvX90kNoQMKjgmt/R4HuqkGSXOX7mx+td9tZZLkYc4VC14okaT9aND5SgRUCWQLFEhEcpMCSibiyAMMKDEMRKTBoiT4PWM/EwB/CMNzYiBcyU/L5/Io2kdeIhcMS1cMAWS7AEkDmAboIlQRDhvkP5Eq/zqu0qWW1ua7bK0lyNIAjReQQhS6B4CAolgB7PuTGBRhVwXZViQQYVNXnYCXP5nLJukpWvtlh+fLlS+Lx8ZMg8ipRXaEWVohisUIWA1q5RgSjAEaRYFCAQRV9HirPqmU9FQTBM+Bd/lyXKxS6+zTOrQJ0pUJXCMSDYAH0xSyYEgv0Tyr4k6hECg0BeVZUnx4bH/+/rPUv9mfcIdFgnuOsAfQGGP+t5fN+GBqX/iUiIpqOplRYmsuGR0aeXLxo4Tggpxsectqizs6x4ZGR/21ox4iIaE7jAKAJhkdGH1m8qHMxgFUm8SI4Y1Fn54LhkZFfNLhrREQ0R3EA0CTDIyP3LV7ceQgqC6FSieD1ixd35oeHR+4C5z2JiKjOOABoopXDI3cOL+o8QYBew0NOOHDRwld2zF9w59jYWEvtDCAiotmNiwCbLJ/PL2yzcA8gJ5seI8Dv1cr9ZbMSuhAR0f6vNWsB7MdKpdLoeDk5S4CHTY9R4ChJ4t94jvMhcNBGRER1wC+TGdLV1dXZ0Za7Hdlrxz9kQS4fCMPHG9EvIiKaGzgAmEGV6QC5HZWMgpkocI8k+p0FixbdlzF7l3iedzinE4iI5jYOAGaY67oHSJLcCoFpnoB9CbYDuFeAJ0Tlt0gSP87ltre1tY1YO3bM293RsRhx7Kmlh1pqrQL0NAWG/DA6sb6vhIiIZhMOAFpAX19fx7YtL1wD4F1NavI3HAAQEc1tXATYAtatWzfuh9G7JypfNa+MKhERzVkcALSQYlj6NhQXA9gx030hIqL9GwcALcaPopstyBsAeW6m+0JERPsvDgBa0EAYPj5eLr8agqvBKQEiImoADgBa1ODg4IgfRH+dQE6E4HawHgAREdURBwAtLgzDJ/wgOs9K9FgAPwTXBxARUR1wADBLDJRKT/lh9K5yol1QXATFjQA2Zz6RIFTF/fXvIRERzSbMAzDLFQoFT8vl4wAcAdGDVOVAC1ioFnZBZZuIbofKVqgWY5F1YRhunOk+ExERERERERERERERERERERERERERERERERERERERERERERERERERERERERERERERERERERERERERERERERERERERERERERERERERERERERERERERERERERERERERERERERERERERERERERERERERERERERERERERERERERERERERERERERERERERERERERERERERERERERERERERERERERERERERERERERERERERERERERERERERERHtn/4fuDOZNXVuSWYAAAAASUVORK5CYII=;" vertex="1" parent="1">
          <mxGeometry x="263.27" y="120" width="110" height="110" as="geometry" />
        </mxCell>
        <mxCell id="nbEl6hGqwunhnrMHJr0G-45" value="&lt;font style=&quot;font-size: 14px;&quot;&gt;CRM&lt;/font&gt;" style="text;html=1;align=center;verticalAlign=middle;whiteSpace=wrap;rounded=0;" vertex="1" parent="1">
          <mxGeometry x="73" y="450" width="43" height="19" as="geometry" />
        </mxCell>
        <mxCell id="nbEl6hGqwunhnrMHJr0G-46" value="&lt;font style=&quot;font-size: 14px;&quot;&gt;ERP&lt;/font&gt;" style="text;html=1;align=center;verticalAlign=middle;whiteSpace=wrap;rounded=0;" vertex="1" parent="1">
          <mxGeometry x="73" y="557.63" width="43" height="19" as="geometry" />
        </mxCell>
        <mxCell id="nbEl6hGqwunhnrMHJr0G-47" value="" style="shape=image;verticalLabelPosition=bottom;labelBackgroundColor=default;verticalAlign=top;aspect=fixed;imageAspect=0;image=data:image/png,iVBORw0KGgoAAAANSUhEUgAAAgAAAAIACAYAAAD0eNT6AAAACXBIWXMAAA7DAAAOwwHHb6hkAAAAGXRFWHRTb2Z0d2FyZQB3d3cuaW5rc2NhcGUub3Jnm+48GgAAIABJREFUeJzt3Xd0FeXexfF90kMgEHrvVbABSpciSLEAoiKKAgooAip2QVTUa8MuIB2xYC8XLFRpKlVfRGyEUKSXQAIJCSHJef+IeBEhJJmZPHPOfD9ruVzrJuf37IvR2Zn2SAAAAAAAAAAAAAAAAAAAAAAAAAAAAAAAwC18pgN4WLikSyV1lNRYUj1JJSQVMRkKQEA4JGmfpN8lfS/pa0k/G02EgEMBKHxlJY2QdKukMoazAAge6yS9KOl9SZmGsyAAUAAKT5hyDvyPSYoxnAVA8FovaYhyzgwAZxRqOoBHVJL0hXJ+648wnAVAcCsnqb9yzgJ8azYK3IwC4Lz6kpZIOtdwDgDeEaKce4yqSvpSUrbZOHAjLgE4q4qk7/76OwCY8LGkPuK+AJyCMwDOiZa0WFId00EAeNo5yjkT+bk4E4CThJgOEMSeF6f9AbjDdZLeVc7NyIAkLgE4pYmk1aJgAXCXDyXdKC4HQBygnDJG/NkCcJ/rJL0nzgRAnAFwQl3lvJ2LP1sAbsWZAPBbqgP6ioM/AHfjngBQABzQ1XQAAMgDLgd4HL+p2ita0hHxeCWAwMHlAI/iDIC96oiDP4DAwuUAj6IA2Ku86QAAUABcDvAg/mHby9Iuf/XrN9DTTz+r0NCC/2OpVKmKwsP5xwoEgz///FNXXtmlsJa7RjlvCuRygEdwBsBelk7/lyxZytLBHwAs4kyAh1AAAAAnu0aUAE+gAAAATkUJ8AAKAADgdCgBQY4CAAA4E0pAEKMAAAByQwkIUhQAAMDZUAKCEAUAAJAXlIAgQwEAAOQVJSCIUAAAAPlBCQgSFAAACFKxxWJVsXxFJ0ZfIzYQCngUAAAIUtFR0Xr0/kdVuWJlJ8bz2uAARwEAgCBWPLa4Hrn3EadKAJcDAhgFAACCHCUAp0MBAAAPoATgVBQAAPAISgBORgEAAA+hBOAECgAAeAwlABIFAAA8iRIACgAAeBQlwNsoAADgYZQA76IAAIDHUQK8iQIAAKAEeBAFAAAgiRLgNRQAAMDfKAHeQQEAAPwDJcAbKAAAgH+hBAQ/CgAA4LQoAcGNAgAAOCNKQPCiAAAAckUJCE4UAADAWVECgg8FAACQJ5SA4EIBAADkGSUgeFAAAAD5QgkIDoH4B1xOUltJ50mqIamopCJGE/1PWSsf/uWXDXr00VGWAkRGRikkxGdpBhBsIiIiFRMTo4oVK6lWrdpq2rSpypUrbzpWQCseW1wjR4zUky88qd17d9s9/hpJ2ZJulJRp93DkCJQCEKGcH4RbJLWSFJRHuOTkJP300zrTMQBPaNiwkbp376kePXoqMjLKdJyAFFciTqPvG+1UCbjur79TAhwSCAfSGyQ9K6mK6SAAgk+pUqU0fPjd6t69p0JC3HVV9M8//9SVV3Yp8Odji8Xquh7Xnf0bLTqUdEifffmZsrOznRj/nqS+yjkjABu5uQCUkjRT0uWmgwAIfs2bt9DTTz+vUqVKmY7yN6sFIIi8ImmE6RDBxl1193/qSFojDv4ACsnKlSt0ww3XavPmBNNR8G93S+ptOkSwcWMBqC1pmXJu8AOAQrNnzx4NGHCTfv/9N9NR8G8TJJU2HSKYuK0AlJA0VxK35wIwIikpSYMH3+KKEhAREWE6gpuUlDTGdIhg4rYCMEVSLdMhAHhbcnKyK0pAqVKl5PO5+VatQneL+AXRNm4qAFcp59lPADDODSUgPDxccXFxxtZ3oShJN5kOESzcUgBClPOoHwC4hhtKwEUXNTO2tkv1Mh0gWLilAFwpqYHpEABwKtMloH37DkbWdbEmkoqZDhEM3FIABpgOAABnYrIEtG9/qcqUsfSW8WATJqmR6RDBwA0FIEpSZ9MhACA3pkpAVFSUhgwZWqhrBoCapgMEAzcUgGbKKQEA4GqmSkCPHlerWbPmhbqmy5UwHSAYuKEANDQdAADyykQJCA0N1dixL6tq1aqFtqbL8UujDdxQAKqZDgAA+WGiBBQvXlzTps1Uw4Zc/pa797EJGG74Q5wgaUhBP9yhQ0f17t2nwIuHhIaqZCmeswWCxdyvv9KUyZMKZa3ixYtr8uTpql+/8B5iOnYsXS++OFYff/yhsrKyCm1dl7lf0gumQwS6MNMBJIVb+XDr1m3UvHmLAn8+NCxM5SuWsxIBgIts2hRfaGudOBNQmCUgMjJKI0eOVp8+N2rKlElasmSxUlNTCmVtBBc3FAAACFgmSoAk1ahRU08//ZyOHz+uH35Yqy1bNuvAgf1KSkoqtAwFtX79T9q48Q/TMTyPAgAAFiUnJ2vgwP6aNGlaoV+jDw8PV/PmLSydCS1sL744lgLgAm64CRAAAt6RI0d022236pdfNpiOAuQJBQAAbEIJQCChAACAjSgBCBQUAACwGSUAgYACAAAOoATA7SgAAOAQSgDcjAIAAA6iBMCtKAAAcJLYYrG2zzxy5IiGDBlU6LsIArmhAADASVpc1EK9ruxl+9wTLwviTADcggIAAKe45qprHCkBXA6Am1AAAOA0KAEIdhQAADgDSgCCGQUAAHJBCUCwogAAwFlQAhCMKAAAkAeUAAQbCgAA5BElAMGEAgAA+UAJQLCgAABAPlECEAwoAABQAJQABDoKAAAUECUAgYwCAAAWUAIQqCgAAGARJQCBiAIAADagBCDQUAAAwCaUAAQSCgAA2IgSgEBBAQAAm1ECEAgoAADgAEoA3I4CAAAOoQTAzcJMBwhWBw8e1ObNCUpNSTUdBR4WFxenmrVqqWjRoqajeNY1V10jv9+vT7/41Na5R44c0ZAhgzR58nTVr9/A1tnwBgqAzb78Yo7Gv/661q5do+zsbNNxAEVEROiSS9rqnvvv18UXNzMdx5Ou7X6tJNleApKTkzV48C2UABQIlwBskpqaqpv73qh+N/XV6tWrOPjDNTIyMrRw4QJ163yZRo8aqaysLNORPOna7tfq6iuutn3uiRLw+++/2T4bwY0CYIPjx4/rhuuv01dffmE6CpCrNyaM1333jjAdw7MoAXATCoANxj73rL779lvTMYA8eXvmTH326SemY3gWJQBuwT0AFiUeOKA3Jow3HQPIl6eeGKPuPXoqJITfAU51NO2o9u3f5+gabVu21YHEA1q2Ypmtc0+UgClTZqhevfq2zkbwoQBY9NVXXyotLc10DCBftm3bpjVrVqtZs+amo7jO8hXLtXzFctMxCiw5OVlDhgzSzJmzVKVKFdNx4GLUf4vWrlljOgJQIGtXrzYdAQ5JTEzU3XcPU3p6uukocDEKgEV79+41HQEoEH52g9umTfF69dWXTMeAi1EALCpWjBesIDAVLVbMdARHhIaGmo7gGu+//57i4zeajgGXogBYVKtWbdMRgAKpXTs4f3ZLly5tOoJrZGdnafLkN0zHgEtRACzq3KWr6QhAvkVERKjDpR1Nx3BE+QoVTEdwlYULF2q/w081IDBRACy6sHFjtW7TxnQMIF9uurmfSpQoYTqGIxo0OEeRkVGmY7hGdnaW5s+fZzoGXIgCYIPnX3hRxYL0eiqCT7Vq1fTQyFGmYzgmJiZGl7RtazqGq6xcucJ0BLgQBcAGdevW08y331VsbKzpKECuKleurFkffKi4uDjTURx1Xe/epiO4yoYN601HgAtRAGxySdu2mrdwkdp36GA6CvAvISEhuva63lr4zRJPvCGue4+eOve880zHcI2DBw8qJeWI6RhwGd4EaKM6derqo08+04YNGzR/3lwlbNqk/fv3sfsajAgPC1fZcuV0TsOG6tq1m6pVr246UqEJCQnR0888q57dr1JmZqbpOK5w6FCSihblUiX+hwLggEaNGqlRo0amYwCe1qJlKz319DN66IH7TUdxhbS0o6YjwGW4BAAgaA0cNFgPPjxSPp/PdBTj/H7TCeA2FAAAQe3+Bx7U1OlvcpMucAoKAICg171HD635cZ1uH3IH7wgA/sI9AAA8oVSpUnrq6Wf08KhHtGjhQi1evEg7d+zQ7l27dTQAro/v3rVLGRkZpmMgiFAAAHhKTEyMrureXVd17246Sr60bdNKv2zYYDoGggiXAAAA8CAKAAAAHkQBAADAgygAAAB4EAUAAAAPogAAAOBBFAAAADyIAgAAgAdRAAAA8CAKAAAAHkQBAADAgygAAAB4EAUAAAAPogAAAOBBFAAAADyIAgAAgAdRAAAA8CAKAAAAHkQBAADAgygAAAB4EAUAAAAPogAAAOBBFAAAADyIAgAAgAdRAAAA8CAKAAAAHkQBAADAgygAAAB4EAUAAAAPogAAAOBBFAAAADyIAgAAgAdRAAAA8KAw0wGCzaFDh/Tu229p3rx52pyQoAMH9isrK8t0LABnER0drQoVK6pp04t0da9e6tjpMtORAEdRAGz03qx3NXrUSCUlJZmOAiCf0tLStDkhQZsTEvThB++reYuWmjRlqipVqmQ6GuAILgHY5MUXxmr40Ds4+ANBYuWK79WpQ3ttTkgwHQVwBAXABl99+YWeffo/pmMAsNm+fXt1Y5/rdSw93XQUwHYUAIsyMjI0etRI+f1+01EAOCA+fqOmTplsOgZgOwqARYu/WaRt27aZjgHAQTNmTDcdAbAdBcCipUuWmI4AwGFbt2zRtq1bTccAbEUBsGj79u2mIwAoBPy7jmBDAQAAwIMoABbxjDDgDfy7jmBDAbCobbt2piMAcFjVqlVVo2ZN0zEAW1EALOrQ4VJVrlzZdAwADrq5/wDTEQDbUQAsioyK0uNPPGU6BgCH1KhZU7fdPsR0DMB2FAAb9OjZUyPuudd0DAA2K1mypN6Z9Z6io6NNRwFsRwGwyajRj+qFl15WTEyM6SgAbNC4SRMtWLRY9erVNx0FcAQFwEb9B9yitT+u0wMPPawLLrxQRYsWNR0JQB6FhoaqfPkKuvKqqzRj5tuat2CRqlWvbjoW4Bi2A7ZZmbJl9cCDD+mBBx8yHQUAgDPiDAAAAB5EAQAAwIMoAAAAeBAFAAAAD6IAAADgQRQAAAA8iAIAAIAHUQAAAPAgCgAAAB5EAQAAwIMoAAAAeBAFAAAAD6IAAADgQRQAAAA8iAIAAIAHUQAAAPAgCgAAAB5EAQAAwIMoAAAAeBAFAAAAD6IAAADgQRQAAAA8iAIAAIAHUQAAAPAgCgAAAB5EAQAAwIMoAAAAeBAFAAAAD6IAAADgQRQAAAA8iAIAAIAHUQAAAPAgCgAAAB5EAQAAwIMoAAAAeBAFAAAAD6IAAADgQRQAAAA8KMx0gGAUH79R8+fO1eYtm5V06JDpOADyICwsXGXLllXTiy5Wx06dFBMTYzoS4CgKgI22btmiUSMf1ry5X5uOAqDAxqtEiRIacc+9uv2OoQoNDTUdCHAElwBssuL779SxQzsO/kAQSEpK0mOPjlbfG/ooPT3NdBzAERQAGyRs2qS+N/RRUlKS6SgAbLRg/jzdNXy46RiAIygANnjg/nuVnJxsOgYAB3zy8UdauGC+6RiA7SgAFv20bp2WLlliOgYAB73y8sumIwC2owBYxDV/IPitWb1KiYmJpmMAtqIAWBQfv9F0BAAOy8rK0ubNCaZjALaiAFh05EiK6QgACsGRw0dMRwBsRQGwqGzZsqYjACgEZcuVMx0BsBUFwKImTZqajgDAYbGxsapbt67pGICtKAAWdbv8ckVGRpmOAcBBV1x5lSIiIkzHAGxFAbCoTNmyum3I7aZjAHBIZGSU7nvgQdMxANtRAGzw8MhH1LJVa9MxADjg+RdeUNWqVU3HAGxHAbBBeHi43pn1njp27GQ6CgCbREZGacLESbqx702mowCOoADYJDY2Vu99+JGmTJuu884/33QcAAUUExOj3tf30fcrV+m63tebjgM4hu2AbeTz+dTz6l7qeXUv7d69S1u3bNG+fftNxwKQB5GRESpfvoIaNGigyChu7EXwowA4pEKFiqpQoaLpGAAAnBaXAAAA8CAKAAAAHkQBAADAgygAAAB4EAUAAAAPogAAAOBBFAAAADyIAgAAgAdRAAAA8CAKAAAAHkQBAADAgygAAAB4EAUAAAAPogAAAOBBFAAAADyIAgAAgAdRAAAA8CAKAAAAHkQBAADAgygAAAB4EAUAAAAPogAAAOBBFAAAADyIAgAAgAdRAAAA8CAKAAAAHkQBAADAgygAAAB4EAUAAAAPogAAAOBBFAAAADyIAgAAgAdRAAAA8CAKAAAAHkQBAADAgygAAAB4EAUAAAAPCjMdIFht2bxZCQmblJp61HQUAHng8/lUtmwZNTr3PBUtWtR0HMBxFAAbZWVlada772j8uNe1KT7edBwABRARGanOnTvroZGjVK9efdNxAMdwCcAmhw4d0jVX99CIu+7k4A8EsIxjxzRn9my1bd1KkydNNB0HcAxnAGyQnp6m3tf20o8//GA6CgCbZGZmauRDDyoyIlL9BgwwHQewHWcAbPDUE09w8AeC1MMPPaDNCQmmYwC2owBYtGfPbk2fPs10DAAOycjI0NjnnzMdA7AdBcCiL7/4QhnHjpmOAcBBX335hY6lp5uOAdiKAmARp/6B4Jeamqp4bu5FkKEAWJSYmGg6AoBCsHffXtMRAFtRACyKjY01HQFAIYgrEWc6AmArCoBFderWNR0BgMPCwsJUo2ZN0zEAW1EALOp2+RWmIwBwWPMWLRQXxxkABBcKgEUNGzZUp8s6m44BwEEj7rnPdATAdhQAGzz7/FiVKlXKdAwADrjp5n5q266d6RiA7SgANqhWrZpmvf+hypQtazoKABt179FDz419wXQMwBEUAJs0adpUixYvVc+re8nn85mOA8CCMmXL6oWXXtbU6W8qIiLCdBzAEWwGZKOKFStqyrTpemzME1q4YL42xcdr3759ysrKNB0NwFnExBRVpUqV1OSii3RJm0sUERlpOhLgKAqAAypXrqz+A24xHQMAgDPiEgAAAB5EAQAAwIMoAAAAeBAFAAAAD6IAAADgQRQAAAA8iAIAAIAHUQAAAPAgCgAAAB7EmwAB2Mrv92vL5s3644/ftXXrViUeOKCjR48q/Vi66WgBbfeuXZY+P3nyGypRooRNaaxZv/4nqyN6SapjQ5S8SJaUImm3pD8krZeUVEhrO4oCAMCyY+npmjt3rr6Y818tX75cB/bvNx0Jp1i4cL7pCHZq/tdfJmRLWidpvqR3JW0wlMMyCgCAAtu3b68mjB+vt2e+qeTkZNNxgMIQIqnxX389JGmtpOckfaqcchAwKAAA8i0tLU0vv/iCxo8bp2Oc2oe3NZX0kXLOBAyXtMRomnygAADIl5UrV2jo7bdp27ZtpqMAbtJI0jeSZiqnCKSYjXN2PAUAIM/Gvfaqelx5BQd/4PR8kvpLWiOpgdkoZ0cBAHBWfr9fo0eN1OOPParMzEzTcQC3qy/pO0mtTQfJDQUAQK78fr/uvnO43pgw3nQUIJDESZonqaXpIGdCAQCQqyefeFzvvvO26RhAICoiaY6kc0wHOR0KAIAzmv3f/+q1V14xHQMIZCUlfS6pmOkgp6IAADit7du36+47h5mOAQSDOpJeMx3iVBQAAKf18IMP6PDhw6ZjAMGiv6QOpkOcjAIA4F8WLVqouV9/ZToGEGxek4uOu64JAsA9Xho71nQEIBg1lHSN6RAnUAAA/MPKFd9r1aqVpmMAwepB0wFOoAAA+IdZ775rOgIQzBpLOs90CIm9AACcJOPYMc3+7+e2zStZsYbqteiiUpVqKjLGdU9BAaeVkSUlpvvkz85WWtJeJcb/oF3/t0BZGbZtfHWjpPV2DSsoCgCAv61Zs0YpKdb3MImJK6Pu976q8zv2ls/nsyEZUHjSMqUth//5c5t2aI9+mPGwNi14044lLpMLLgVQAAD87dvlyyzPiCtfTbdPXKy4CtWtBwJcIjquvFrfM0Nx1RppzdT7rI47T1IpSYnWkxUc9wAA+NuGDRssfT4kNEz9xn7GwR9Bq2Gve1XnsgFWx4RIOteGOJZDAIAkKWHTJkufb3p5P1Wse4FNaQB3atz/GYVGRFsdU8+OLFZQAAD8bdeunZY+37hrX5uSAO4VHVdOlZpcZnVMRTuyWEEBACApZ9vfo0ePWppRuUETm9IA7laqTlOrI2LtyGEFBQCAJOnYsXRlZ2cX+PNhEVGKiC5qYyLAvaKKl7E6IsaOHFZQAABIkvx+a5/3hfCfE3iHDT/vxp+P5d9YAAA8iAIAAIAHUQAAAPAg3gTosMOHD1u6sQrBITY2ViFcIwfgIhQAm+3cuVPTpk7WvK/nasvWLco4dsx0JLhAaGioKlasqHYdOqh//1t0/gW8LAeAWfxKYqMJ415Xs6ZN9Norr+iPP37n4I+/ZWVlafv27Xp75kx17NBOI+66k58PAEZRAGwyetRIPTr6EaWnp5mOApfz+/16+62Zuvaaq5WRkWE6DgCPogDY4MMP3tcbE8abjoEA89233+rRR0aZjgHAoygAFqWnp+nJMWNMx0CAmjF9mjZu/MN0DAAeRAGwaOGCBdq9e5fpGAhQWVlZem/WLNMxAHgQBcCi5cuWmY6AALd0yWLTEQB4EAXAol27+O0f1uzcaW0LXgAoCAqARaGh/BHCmtCQUNMRAHgQRy+LKleuYjoCAlzVqlVNRwDgQbwJ0KL2l16qiW9MMB0DAax9hw6mIyDIHT6wW3/+vEKpyQcUHhmtsjXOUaW6F7KFs8dRACy65JK2qlmrljYnJJiOggAUGRmlG/reZDoGgtSfG1Zq3qTHFL96wb++VqJ8VbW5/i61um64QkI5FHgR9c+i8PBwPf3Ms2z0ggK5a8QIVanCZSTYb9GM/2jCoDanPfhLUtKePzXnlXs1flBrpSYdKOR0cAOOWjbo2OkyPfb4GPl8PtNREEB6Xn217rv/AdMxEISWvjNW8yaOVnZ21lm/d/svqzV5aEcdP8ZrzL2GAmCTocPv1JRpM1S6TBnTUeBykZFRemjkKE2aMo0zR7DdnoSfNfeNR/L1md2b1mvuBF5L7TVc+LFRj5491bFTJ73/3izNnzdXCZs2KTk52XQsuEB0dBFVrVpV7Tp0UJ8bblTlypVNR0KQ+mbGM8rKPJ7vz634dKLa939IRePKOpAKbkQBsFnRokU1cNBgDRw02HQUAB5z7OgRbVj6eYE+m5mRrl+XzdbF3QfanApuxflHAAgSm39cqsyM9AJ/fvuva2xMA7ejAABAkIhfvdDS59NTuGTpJRQAAAgSVgtAZJFiNiVBIKAAAEAQSN6/U3u3/GppRtkaDWxKg0DATYAAkE8ph/bp12WztWvjTzqanKgiJUqrUr0L1KhdT0UXizOSadOaRZZn1GzcNs/f++cvq5Sw9hvt2fyrQsPCVaJcFdW4oLVqN72UVwwHCAoAAORRRlqKvhz3kNbMnqbMjGP/+vpnzw9Tq+uG67JBjyk8qkihZrN6+j+mRGlVqnvhWb9v+y+r9dnzQ7Xj9x9O+/VSlWup+72vqn7LbpbywHnUNADIg31bf9erNzfVio8nnPbgL+U8Srf0nbGF/npdv99v+QxA7aYdzvqb+49fv6PxA1ud8eAvSYk7EjTjnis155V78/QmQphDAQCAs4hfvVDjB7bS/j835un7d21cp+n3XKHsrEyHk+XYu3mDDh/YbWlG7YsuzfXr8asX6sMnBuTpoO73+7X8vZc1874eOnb0iKVccA4FAABysfKzSZp2dzelHTmUr89t/2W1ls16yaFU/2T19L8k1W3W6Yxfy8xI10dP3Zrv3+h/++5LjR/YWof2bLMaDw6gAADAaWRnZ2n2SyP06bNDCvyb/Lfvv1ag1/LmV/xqa6f/S1WurbgK1c/49Z8WfKCkvdsLNHtPws96fUBzbft5RQHTwSkUAAA4RUZait564Gp9+8GrluYcPrBLO35ba1Oq08s6nqHN/7fM0ozcfvuXpF+WzbY0P+XgXk26o4N+/PptS3NgLwoAAJzk0O6tGndrS/26fI4t83ZvWm/LnDPZ9vMKZaSlWJpR5yzX//ckbLA0X5IyM47pgzH9NX/y4/L7/ZbnwToKAAD85c8NK/X6LS1sOeCdYOXd/HkRb/Hu/5CQUNVs0i7X7zl+LM3SGif4/X4tnPaE3hnZW8fTj9oyEwVHAQAAST8t/FCT7rhUKQf32jo3pkQZW+edKn7VAkufr9ygqYrElsz1e+zeIvjnbz7W+EGtlbxvh61zkT8UAACe5vf7NX/yY5r1SB/bftM9WeUGTW2feULakSTL9xjUubjjWb+nyjkXWVrjdHZtXKfxA1tpd/xPts9G3lAAAHjW8WNpmvVIHy2c9qQj16WrNmymMlXr2j73hIQfFlt+2U7ti3O//i9JjbveaGmNM0nau13jB7XRr8ut3WSIgqEAAPCkwwd2a+KQ9vpp4YeOrdH59iccmy1Zf/4/PKqIqjVqcdbvq35+a53T5kpLa51JRlqKZt7fUwumPO7IfJwZBQCA5+zauE7jbmmu7b+sdmyNtn3vV52Lc3+8ziqrBaBW47YKi4jM0/f2fGC8SpSvamm9M/H7/Vow9Ql9/J9Byjqe4cga+DcKAABP+XX5bE0YfEmBX2yTF5fccI+6DXvWsfmSdGjPNh3YHm9pxtle/3uy4mUr67bxi1Sqci1La+Zm9expmnpnFx09fNCxNfA/FAAAnvHtB69q5gNXW35u/kxCQkLV477XdMVdL8jn8zmyxglW7/6Xzv4CoFOVqlxLw2esUq3G7SyvfSYJPy7R6wOaad/W3xxbAzkoAACCXnZWpj4bO0yzXxohf3a2I2tEFimmfi98rpbXDnNk/qmsPv9ftGQ5lavZKN+fKxJbUgNfm6umV/S3tH5uEnckaPzA1pZ3OETuKAAAgtrRwwc1ZXhnrfh4gmNrlKxUU8NnrFSDVpc7tsbJ/NnZ2rT2G0sz6jbrVOCzFKHhEbpu9HRddc/LZ91CuKDSjhzS1Lu66vuPxjkyHxQAAEEscccmTRjUWglBbU7OAAAaiklEQVQ/LHZsjernt9Kwad+rbPUGjq1xql3x65R6aL+lGWd7/W9etO59lwa8OFuRRYpZnnU62VmZ+vyFO/XJM7cX2tbKXkIBABCUtqxbrnG3ttS+rb87tkbTKwbotvGLbH9T3tnYsf1vfm4AzE39lt10x5Tljj0hIEmrPp+s6fdcqfSUZMfW8CIKAICgs/q/UzV5aEelJh1wZL7P51OngY/qutHTFBoe4cgaubG6/W+5GueoeNnKNqWRKtQ+T8OmrXDkjYEnbFw5TxMGt9Gh3VsdW8NrKAAAgkZ2dpa+Gv+wPn56sLIyjzuyRkR0jG5+7hN1GvS4I/PPJjMjXVt/+tbSjLy8/je/YktX0JBJS3XBZX1sn33CnoQNeq3/xZa3P0YOCgCAoJCRlqK3HuilJW8959gasaUr6vY3Fqth2x6OrXE2W9Z9a3nPArtO/58qLCJKfZ54R50GPurYY5CpSQc09c7O+vHrtx2Z7yUUAAABL3n/Tr1xWztH3ylfse4FGjZ9haOb++SF5e1/Q8NUs3Fbm9L8m8/nU6dBj6vPk+8qLCLKkTUyM47pgzH99dX4hx17rNMLKAAAAtqfG1bqtX4XaecfPzq2xrnte2nolG9VolwVx9bIK6svAKraqLmiYmJtSnNmF3S6XrdNcO4GSb/fryVvPad3Rl2v4+lHHVkj2FEAAASs9Ys+0qQ7LtWRxD2OrdG6953q+/QHCo8q4tgaeXU0OVG74tdZmlEnD7v/2aXauS00bPoKlatxjmNr/PzNx5owuI2S9+1wbI1gRQEAEHBO/Pb37qjrLV8PP5OwiEj1fuxNXXXPK4697Ca/4tcssnzKu67DGxSdqmTFGho2fYUatL7CsTV2/vF/GndLC+34/QfH1ghG7vipBoA8yrn+2y/n+q/f78gaRYqX0sBX56pJt5sdmV9QVl+NG1mkmCo7+Khebuv2G/uZWve+07E1kvfv1MTb2+uXZf91bI1gQwEAEDBSkw5o8rBO+vHrdxxbo0zVuho69TtHb5QrKMvb/zZpr9CwcJvS5E9ISKiuuucV9Xp4omMZcp4EuVoLpjzuyPxgQwEAEBD2JPys1/pdZPkZ+NzUbXaZhk1fqTJV6zq2RkEl7tikg7u2WJpRt5n9z//nV7Meg3XLy18oulgJR+b7/X4tmPqEPnpqoLKOZziyRrCgAABwvT9WzNWEQW10aM82x9Zo1mOwBrw0x7EDk1Ubbdj+t/ZF5guAJNW5uJOGz1jlaNFaM2e6Jg291PKeCcGMAgDA1b794FXNuOdKpacedmR+YZyatoPV5/+Ll6mkstXr25TGutJV6jh+qWXrT99p3MCW2rf1N8fWCGQUAACuNeeVezX7pRHKzs5yZH5U0eK65ZUvHb05zQ7Z2VlKWGttR8M6zQr37v+8KIybLRN3JGjCoDbatdHa45PBiAIAwJWWvP28lr/3smPzS1aqqWHTvlfdZpc5toZddv72g9KOHLI0w4n3/9vhxOOWXYY85djrg48ePqipd3ZR8v6djswPVGGmAwSjNWtWa/7cudqyZbMOHbL2Ly2CQ5EiMapatarad+igtu3aKzzcvaea3SBxR4LmT37csfk1Lmijm5/7RDElSju2hp3i11i7+9/n86mOQ+//t0uH/iNVplo9vf94P0fe7JdyaJ++ePU+3fjUe7bPDlQUABtt2LBBD953r1atWmk6Clxq0sQ3VL1GDf3n6WfUuUtX03Fc6/uPxiszI92R2U0u76deD01UWESkI/OdEL/KWgEoX+tcFS1ZzqY0zjm3fS/FVaiuN+/trsMHdtk+f/3CD3X5sOdUonxV22cHIi4B2GTB/Hnq1rkTB3+c1dYtW9T3hj569RXnTm8Hup+XfGr7TF9IiLre8bR6PzojoA7+GWmp2rZhhaUZbrz+fyaV6zfR8DdXqVK9xrbP9vv92rD0c9vnBioKgA02bNigWwf019GjbEiBvPH7/XpyzOP6+KMPTUdxncyMdCXv3W7rzPCoIrrp6Q/Vvt9Dts4tDFvWLVdmxjFLM9x++v9UxctU0pBJS9WoXU/bZ+//c6PtMwMVBcAGD91/Hwd/FMiohx/S4cPOPN4WqNJTD9v+it/zO/ZWQwcOJoXB6uN/YRGRqnnhJTalKTwR0TG68u4XFVW0uK1z01OSbZ0XyCgAFq1du0YrV1o7PQfvSkxM1Kx3nXutbSCKKV7a9ufx134xQ+8/dpNj9xU4yer2v9XObemKnQzz689fVmncrS1tP2DHlqpg67xARgGwaP7cuaYjIMDNm/u16Qiu4gsJUaX6TWyf+3/zZmnSHZcq5eBe22c7JeXgXu1J+NnSjMLc/tcu6xa8r4m3t3dkm+cqDQt/MyS3ogBYtGXLZtMREOA2JySYjuA6F1x2vSNzt/28Qq8PaG75oFpY4tcssnw5pI5LXv+bFznv8R+j90bf6MjZmqiYWDVodbntcwMVBcCi1FSu/cOa1NRU0xFcp3nPwSpVuZYjsw/t2abxA1vr9++/cmS+nazu/lcktqQqNbD/bIoTMjPS9d7oG7VgyhjHtnnueOvogLwc4hQKgEXlyrn/2Vq4W7ly5U1HcJ2wiCj1GfO2IqJjHJl/7OgRvXlvdy1//xVH5tvFju1/Q0JCbUrjnJSDezVxSAetW/C+Y2vUa9FFrVz+yufCRgGw6OJmzUxHQIBr1qK56QiuVLVRcw14cbbtd4GfkJ2dpTkv36NPnx2irMzjjqxhxb6tvyt53w5LM+q4YPvfs9m9ab1eH9Bcf25w7h0qdZtdppuf/djVmz2ZQAGwqEvXbipatKjpGAhg1157nekIrlWrSXsNnfqdSlaq6dgaKz+bpOkjLrf8rn27xa+2vv2v26////btF45v89yi1xDd8vIXnPo/DQqARXFxcRp2512mYyBAXda5i1q0bGU6hquVq3GOhk9boernt3ZsjfjVCzXu1pZK3LHJsTXyK361tef/S1as4dh9FHZY/t7Lmnl/Tx07esSR+Se2ee75wHiFhPLW+9OhANhgxD33qsOlgfeoDcyqVq2aXh8/wXSMgBATV0aDxy1wdNvY/dv+0Ou3tNDmH5c6tkZeZWdlavOPSyzNqHOxO1//m5V5XJ88c7vmvHKvc9s8x8Sq/4uzXb/Ns2kUABuEhobqrXfe1TWcykUeNW7SRF98PVelSpUyHSVgnNg2tusd/3Fu29jkRE25s7PWzJnuyPy8+nPDKqWnWntDpBuf/087ckjT7u6mVZ9PdmyNkhVraOjU71S/JZttnQ0FwCZRUdGaOHmKPvrkM7Vt147tXvEvPp9P551/vl5+9TV9PW+BKlSoaDpSQGrf72H1feZDx67pZh3P0EdPDdSXrz8of3a2I2ucjeXtf0NCVLtpB5vS2OPA9niNu7WlNll8tXFuqp/fSsOnr1S5mg0dWyOYcGHEZu07dFD7Dh105MgR7dixXfv37XfsmVYEjuLFi6tKlSoqVTow9p93O6e3jZWkpe+M1YE/N6rPE+849jjimVi9/l+pXmMVKe6es0sJPy7R2w9eo6OHDzq2RuOufXXNyCkBtdOjaRQAhxQrVkwNGpyjBg1MJwGCU+X6TXTnzNV6874e2vHbWkfW+GXZfzV+YCsNeHF2oe0hf+zoEW3/ZZWlGW66/r9mznR9+twdyjqe4ch8n8+njreOVseBjzl2aShYcQkAQMCKLV1Rt7+x2JFtY0/YvWm9xt3aQtt/XePYGidL+GGJ5fcSuOH6v9/v14Ipj+ujpwY6dvAPi4jS9WPeVqdBj3PwLwAKAICAFhEdo5ue/VidBj7q2BqHD+zWG7e11f/Nm+XYGidYfftfeGS0qp3bwqY0BZORlqq3HuylBVOfcGyN2NIVNGTSUl3Y+QbH1gh2FAAAAc/n86nToMd1w1OzFBYR5cgamRnpev+xm7RgyuOO3tdjtQDUuPAShUdG25Qm/5L379TE29vpl6WfO7ZGhdrnadi0FapyDjv7WUEBABA0Luh0vW4bv1BF48o6Mj9nt7onNGv0DTp+LM32+cn7d2rf1t8szTB5+n/XxnUad0sL7fj9B8fWqN+ym4ZMXlZo92QEMwoAgKBS7byWGjbte5WrcY5ja/y04ANNHtpRKQf32jo3flXgvv73528+1vhBrS3vX5Cb1r3vzNkfIibWsTW8hAIAIOiUrFRTw6avcHTv920/r9Cr/S7Sro3rbJsZb/EZ+ZgSpVWh9nk2pckbv9+vJW89p3dGXa/j6c5sjx4aHqHrRk/XVfe8Il8Ihy278CcJIChFFimmfi987ujrYJP37dCEwZfo1+VzLM/y+/1KWPuNpRl1Lu5UqAfIzIxj+vCJAfpq/MOOvTSpSGxJDXxtrppe0d+R+V5GAQAQtE5sCNPr4YmObQWbkZaitx64Wkvees7SnL2bN+jwgd2WZhTm9f+jyYmaemdn/fDVW46tUbpKHQ2d+p1qNW7n2BpeRgEAEPSa9RisAS/NUXSxEo7Mz87O0lfjH9Ynz9xW4Gf4N9pw/b+wXv+7J2GDXu13kTb/3zLH1qhzcUcNn7FKZarVc2wNr6MAAPCEus0u07DpK1Wmal3H1lj1+RRNH3G50o4k5fuzVt+RX6ZaPcVVqG5pRl5sXDVfEwa30aHdWx1bo1mPQbrl5S8dK2zIQQEA4BllqtbVHZOXq/r5rRxbI371Qr1x2yVKPbQ/z5/JOp5h+bfpwrj7/4ev3tL0uy9XekqyI/P/d8lmkmOXbPA/FAAAnhITV0aDxy1U4643ObbGnoQNmnZ3tzxfDtj28wplpKVaWtPp6/+/f/+1PnryVmVnZzkyPyomVv1fnO3oTZv4JwoAAM8Ji4hU78feVJchTzn2Dvkdv/+gZe++mKfvtfr2v5DQMNVq0t7SjNwcTz+qT58b4tjBv2TFGho69TvVb9nVkfk4PQoAAE/y+Xzq0H+k+j7zocKjijiyxrcfvJanswBWC0CVcy5SVNHilmbkZv2ij5S0509HZlc7t0XOi5tqNnRkPs6MAgDA085t30tDJi5RbOmKts8+krjnrFv7ph1JsrydcZ2Lnb3+/8uy2Y7Mbdy1r26b8I2KliznyHzkjgIAwPMqN2iq4TNWqlK9C22fvSdhQ65fT1j7jeVT604XgLP9f8gvn8+nzrc/qd6PzVRYRKSts5F3FAAAkFS8bGUNmbRMjdr1tHVu5vGMXL9u9fW/kUWKqWqj5pZmnE1mRrpts8IionT9mLd16YBRjt1/gbyhAADAXyKiY3TTMx+p3c0P2jYzpnipXL9u9fp/zQsvcfyRuZgSpW2ZE1u6ou6YvEwXdr7BlnmwhgIAACfxhYSo29BndN3o6QoNj7A8r2qjZmf82qE923Rge7yl+XWaOf/8f5VzLrY8o1K9CzV8xkpVbtDUhkSwAwUAAE6j6RX9dfuEb1Q0rmyBZ1Q/v5VKVa59xq/bsv3vxZ0szzibJpffbOnz9Vt2021vLFbxspVtSgQ7UAAA4AyqnddSQ6d+p7LV6+f7sz6fT5cNHpPr91i9/h9buqLKVm9gaUZeVDu3RYG3Vm530wMa8OJsRcXE2pwKVlEAACAXpSrX0tCp3+f7N+32/R7OdXMef3a25ff/17m4Y6HdSNdr5OR87TUQGh6h60ZPU7dhzxbqFsXIO/6pAMBZRBcroVtf+VJt+ow46wE3JCRUlw0eoy5Dnsr1+3bFr1Nq0gFLuQpz+9/Y0hU0ZNJSla917lm/t0S5Kho8boGaXjGgEJKhoCgAAJAHIaFhuvLuFzVk0lLVbd5ZIaFh//h6WESUGl7SXXfOXKOOt44+6zyrd//7fD7VLoQNgE5WolwV3fXWWl054qXTbtNbNK6sLh0wSiPe/Uk1LmhTqNmQf2Fn/xYAwAnVz2+tga9+rfSUZO1J+FlpKckqWqKMytZooMgixfI8J361tdP/5Wo2VGzpCpZmFERoWLjaXH+32lx/tw7u3KxDe7bp+LF0xVWoprLVG/BsfwChAABAAUQVLa7q57cu0Gf9fv9ZXxF8NoVx9//ZlKxUUyUr1TQdAwXEJQAAKGSHD+xSeuphSzNqX3TmGwyBvKAAAECACQ2PUK3GbU3HQICjAABAIYspXtrSJjjVGjVXRHRRGxPBiygAAFDIwiIiLW3g06DNFTamgVdRAADAgOZX31agz4VHRqtxl742p4EXUQAAwIDzLr1W1c5rme/Pte/3oIqVKu9AIngNBQAADAgJCdUNT76ruPLV8vyZhm17qMOAUQ6mgpdQAADAkLjy1TRk8jLVvPCSXL/PFxKi1r3v0k3PfKiQkNBCSodgx4uAAMCgEuWq6LY3FmvDkk+1ds6b2v7rGqUc2icpZ7e/ei26qHXv4apQ53zDSb3D7zedoHBQAADAMJ/Pp3Pb99K57XtJko6nH5V8PoVHRhtO5k3ZpgMUEgoAALhMeFQR0xE8LcMjDYAC4ICsrCz9+OMP2rJ5s/bv26esLI/8NOGMSpUupUqVKqt5i+aKiuK3OsDN0jO9saERBcBG6elpmjxxkiZMGKcD+/ebjgMXio6OVp8bbtQDDz6k0mXKmI4D4BR+SUeOm05ROHgKwCa7du1Sty6d9cSYxzj444zS0tI0fdpUXdK6ldasWW06DoBTpB2XvHLSlgJgg5SUFPW+ppfW//ST6SgIEPv27dW1V/fUb7/9ajoKgJMkHvPG6X+JAmCLR0eP4j/kyLeUlBTdcfttys72yK8bgMulZUopGaZTFB4KgEU7duzQrHfeMR0DAern9ev15RdfmI4BQNKeoz555BUAkigAln35xRxlZmaajoEANvu/n5mOAHjenlSf0jz2n3IKgEVc94dVP/EzBBh1KF06eMx0isLHY4AWJSYmmo6AAJd44IDpCIAn+SUdTJP2pXnnxr+TUQAsiouLMx0BAS6uZEnTEQDPOZ6dc9rfK8/8nw4FwKL6DRqYjoAA16DBOaYjAJ6R7c855X8g3acsL93xdxrcA2DR5ZdfIZ/Pm6ePYI/Lr7jCdAQgqGVmS8kZ0o4jPm1M8mlvGgd/iTMAltWuU0fde/TQ559xJzfyr1r16rq61zWmY9jC75fikynDcBG/lOn3zva++UUBsMHTzz6nNatXa+fOnaajIICEh4dr3PgJioiIMB3FNsezTCcAkFdcArBB2bLl9MHHn6hq1aqmoyBAxMTE6M233laLlq1MR/lbaIi1/xxkZx3nVy14RlaG5ecGjddlCoBN6tdvoIWLl2rgoMFB9Rsd7OXz+dS12+X6Zskyde7S1XScf4iIjLT0s5udeVxpSXttTAS419EDO6yOOGJHDiu4BGCjkiVL6tnnx2rkI6O1ZPFibdoUr5QU4/+M4QJRkVGqUrWq2rVvrwoVKpqOc0bFihWz9G6L3esWqWb7G21MBLjTrnULrY5IsiOHFRQAB8TGxuqq7t1NxwDyrWq1apYKwK//fU01290g8WQMgtj+31cqcdOPVsdstiOLFVwCAPC3OnXqWvr8gT9W67c542xKA7jP8bQUff/qIDvud/nDjjxWUAAA/K1J06aWZ6yZfI/i502zIQ3gLscOJ2rRmKt0aOsGq6NSJVkeYhUFAMDf2lxyieUZ2VmZ+u6VgVo0prv2/76SJwMQ8DJSk/THlxP1+ZBzteenxXaM/FZShh2DrOAeAAB/q1u3nmrWqqXNCQmWZ21fOVvbV85WVGxpFS1fQxExxW1ICBSe7OwspR3coyO7Nyk709ZNA+bYOaygKAAA/uHa63rruWeetm1e+uEDSj/MjofAX45L+sB0CIlLAABOcWPfm3iXBeCcjyW5ohFTAAD8Q8WKFdX7+j6mYwDByC/pGdMhTqAAAPiXe+67X9HR0aZjAMFmlqSfTYc4gQIA4F+qVKmiEffeZzoGEEwOS3rAdIiTUQAAnNaw4XfqwsaNTccAgsVdknaZDnEyCgCA04qIiNDU6W+qeHEe3wMsevOvv1yFAgDgjKpVq6a3352lyMgo01GAQLVU0hDTIU6HAgAgVy1btdbU6dMVERlpOgoQaNZK6i4p3XSQ06EAADirrt0u10cff6rY2FjTUYBAsUjSpZKSTQc5EwoAgDxp1bq15i/8Rg0bNjQdBXAzv6TXJHVVzp3/rkUBAJBntevU0byFi3TH0GEKC+NN4sApEiR1Uc4d/7ZuHuAECgCAfImKitYTT/1Hi5YsU8dOl8nn85mOBJh2UNJoSedKmm84S55RAAAUSMOGDfX+hx/pmyXLdGPfm1SsWDHTkYDCtkHSfZKqS3pKUprRNPnEOTwAlpx73nl69fVxem7sWC1dskTLli7VypUrtCk+XqmpqabjAXbaIWm9pMXK+U1/vdk41lAAANgiKipanbt0VecuXf/+3/bs2a2kpCSlpKQoNYUyYMU9I+7Stq1brYy4TdJme9J4hl9SknJu5tstKcVsHHtRAAA4pnz5CipfvoLpGEGhaNGiVkeskvSTDVEQJLgHAAAAD6IAAADgQRQAAAA8iAIAAIAHUQAAAPAgCgAAAB5EAQAAwIMoAAAAeBAFAAAAD3JDAci28uHdu3fZlQMAXCk1NVWJBxKtjsmyIwuChxv28XxJ0gjTIQAgyFWXtM10CLiHG84A7DYdAACCXLakfaZDwF3cUAB+Nx0AAILcVgXYXvVwnhsKwPeyeB8AACBX35oOAPdxQwFIlLTGdAgACGJfmw4A93FDAZCkt00HAIAgdVjSbNMh4D5uKQBvSjpgOgQABKGJko6aDgH3CTUd4C/H//p7J6MpACC4JEm6QVKq6SBwH7ecAZCkVyRtMB0CAILISPH4H87ADS8COllDSaslFTEdBAAC3OeSrpbkNx0E7uSmMwCS9Iuk3pIyTQcBgAC2XlJ/cfBHLtxyD8DJNirn5UBXSQoznAUAAs1qSV0kHTQdBO7mtjMAJ3wkqaOknaaDAEAAeVdSB0n7TQeB+7m1AEg5b646X9J0cRoLAHKzW1IfSX3FHf/II7fdBHgm50l6UDk3tEQZzgIAbrFZ0jhJk8WBH/kUKAXghBKSuklqr5xSUENSrKRIk6EAoBAcVs4L0zZKWilp/l9/5wwpAAAAAAAAAAAAAAAAAAAAAAAAAAAAAABAgPt/YDb+sr7dIjUAAAAASUVORK5CYII=;" vertex="1" parent="1">
          <mxGeometry x="320.43" y="318.86" width="51.14" height="51.14" as="geometry" />
        </mxCell>
        <mxCell id="nbEl6hGqwunhnrMHJr0G-48" value="Stored procedure" style="text;html=1;align=center;verticalAlign=middle;whiteSpace=wrap;rounded=0;" vertex="1" parent="1">
          <mxGeometry x="293.27" y="300" width="100" height="18.86" as="geometry" />
        </mxCell>
        <mxCell id="nbEl6hGqwunhnrMHJr0G-49" value="Stored procedure" style="text;html=1;align=center;verticalAlign=middle;whiteSpace=wrap;rounded=0;" vertex="1" parent="1">
          <mxGeometry x="534" y="300" width="100" height="20" as="geometry" />
        </mxCell>
        <mxCell id="nbEl6hGqwunhnrMHJr0G-50" value="" style="endArrow=classic;html=1;rounded=0;dashed=1;strokeColor=#606060;" edge="1" parent="1">
          <mxGeometry width="50" height="50" relative="1" as="geometry">
            <mxPoint x="582.6800000000001" y="360" as="sourcePoint" />
            <mxPoint x="582.9000000000001" y="408.28932188134524" as="targetPoint" />
          </mxGeometry>
        </mxCell>
        <mxCell id="nbEl6hGqwunhnrMHJr0G-51" value="" style="endArrow=classic;html=1;rounded=0;dashed=1;strokeColor=#606060;" edge="1" parent="1">
          <mxGeometry width="50" height="50" relative="1" as="geometry">
            <mxPoint x="342.67999999999995" y="360" as="sourcePoint" />
            <mxPoint x="342.9" y="408.28932188134524" as="targetPoint" />
          </mxGeometry>
        </mxCell>
        <mxCell id="nbEl6hGqwunhnrMHJr0G-52" value="" style="shape=image;verticalLabelPosition=bottom;labelBackgroundColor=default;verticalAlign=top;aspect=fixed;imageAspect=0;image=data:image/png,iVBORw0KGgoAAAANSUhEUgAAAgAAAAIACAYAAAD0eNT6AAAACXBIWXMAAA7DAAAOwwHHb6hkAAAAGXRFWHRTb2Z0d2FyZQB3d3cuaW5rc2NhcGUub3Jnm+48GgAAIABJREFUeJzt3Xd0FeXexfF90kMgEHrvVbABSpciSLEAoiKKAgooAip2QVTUa8MuIB2xYC8XLFRpKlVfRGyEUKSXQAIJCSHJef+IeBEhJJmZPHPOfD9ruVzrJuf37IvR2Zn2SAAAAAAAAAAAAAAAAAAAAAAAAAAAAAAAwC18pgN4WLikSyV1lNRYUj1JJSQVMRkKQEA4JGmfpN8lfS/pa0k/G02EgEMBKHxlJY2QdKukMoazAAge6yS9KOl9SZmGsyAAUAAKT5hyDvyPSYoxnAVA8FovaYhyzgwAZxRqOoBHVJL0hXJ+648wnAVAcCsnqb9yzgJ8azYK3IwC4Lz6kpZIOtdwDgDeEaKce4yqSvpSUrbZOHAjLgE4q4qk7/76OwCY8LGkPuK+AJyCMwDOiZa0WFId00EAeNo5yjkT+bk4E4CThJgOEMSeF6f9AbjDdZLeVc7NyIAkLgE4pYmk1aJgAXCXDyXdKC4HQBygnDJG/NkCcJ/rJL0nzgRAnAFwQl3lvJ2LP1sAbsWZAPBbqgP6ioM/AHfjngBQABzQ1XQAAMgDLgd4HL+p2ita0hHxeCWAwMHlAI/iDIC96oiDP4DAwuUAj6IA2Ku86QAAUABcDvAg/mHby9Iuf/XrN9DTTz+r0NCC/2OpVKmKwsP5xwoEgz///FNXXtmlsJa7RjlvCuRygEdwBsBelk7/lyxZytLBHwAs4kyAh1AAAAAnu0aUAE+gAAAATkUJ8AAKAADgdCgBQY4CAAA4E0pAEKMAAAByQwkIUhQAAMDZUAKCEAUAAJAXlIAgQwEAAOQVJSCIUAAAAPlBCQgSFAAACFKxxWJVsXxFJ0ZfIzYQCngUAAAIUtFR0Xr0/kdVuWJlJ8bz2uAARwEAgCBWPLa4Hrn3EadKAJcDAhgFAACCHCUAp0MBAAAPoATgVBQAAPAISgBORgEAAA+hBOAECgAAeAwlABIFAAA8iRIACgAAeBQlwNsoAADgYZQA76IAAIDHUQK8iQIAAKAEeBAFAAAgiRLgNRQAAMDfKAHeQQEAAPwDJcAbKAAAgH+hBAQ/CgAA4LQoAcGNAgAAOCNKQPCiAAAAckUJCE4UAADAWVECgg8FAACQJ5SA4EIBAADkGSUgeFAAAAD5QgkIDoH4B1xOUltJ50mqIamopCJGE/1PWSsf/uWXDXr00VGWAkRGRikkxGdpBhBsIiIiFRMTo4oVK6lWrdpq2rSpypUrbzpWQCseW1wjR4zUky88qd17d9s9/hpJ2ZJulJRp93DkCJQCEKGcH4RbJLWSFJRHuOTkJP300zrTMQBPaNiwkbp376kePXoqMjLKdJyAFFciTqPvG+1UCbjur79TAhwSCAfSGyQ9K6mK6SAAgk+pUqU0fPjd6t69p0JC3HVV9M8//9SVV3Yp8Odji8Xquh7Xnf0bLTqUdEifffmZsrOznRj/nqS+yjkjABu5uQCUkjRT0uWmgwAIfs2bt9DTTz+vUqVKmY7yN6sFIIi8ImmE6RDBxl1193/qSFojDv4ACsnKlSt0ww3XavPmBNNR8G93S+ptOkSwcWMBqC1pmXJu8AOAQrNnzx4NGHCTfv/9N9NR8G8TJJU2HSKYuK0AlJA0VxK35wIwIikpSYMH3+KKEhAREWE6gpuUlDTGdIhg4rYCMEVSLdMhAHhbcnKyK0pAqVKl5PO5+VatQneL+AXRNm4qAFcp59lPADDODSUgPDxccXFxxtZ3oShJN5kOESzcUgBClPOoHwC4hhtKwEUXNTO2tkv1Mh0gWLilAFwpqYHpEABwKtMloH37DkbWdbEmkoqZDhEM3FIABpgOAABnYrIEtG9/qcqUsfSW8WATJqmR6RDBwA0FIEpSZ9MhACA3pkpAVFSUhgwZWqhrBoCapgMEAzcUgGbKKQEA4GqmSkCPHlerWbPmhbqmy5UwHSAYuKEANDQdAADyykQJCA0N1dixL6tq1aqFtqbL8UujDdxQAKqZDgAA+WGiBBQvXlzTps1Uw4Zc/pa797EJGG74Q5wgaUhBP9yhQ0f17t2nwIuHhIaqZCmeswWCxdyvv9KUyZMKZa3ixYtr8uTpql+/8B5iOnYsXS++OFYff/yhsrKyCm1dl7lf0gumQwS6MNMBJIVb+XDr1m3UvHmLAn8+NCxM5SuWsxIBgIts2hRfaGudOBNQmCUgMjJKI0eOVp8+N2rKlElasmSxUlNTCmVtBBc3FAAACFgmSoAk1ahRU08//ZyOHz+uH35Yqy1bNuvAgf1KSkoqtAwFtX79T9q48Q/TMTyPAgAAFiUnJ2vgwP6aNGlaoV+jDw8PV/PmLSydCS1sL744lgLgAm64CRAAAt6RI0d022236pdfNpiOAuQJBQAAbEIJQCChAACAjSgBCBQUAACwGSUAgYACAAAOoATA7SgAAOAQSgDcjAIAAA6iBMCtKAAAcJLYYrG2zzxy5IiGDBlU6LsIArmhAADASVpc1EK9ruxl+9wTLwviTADcggIAAKe45qprHCkBXA6Am1AAAOA0KAEIdhQAADgDSgCCGQUAAHJBCUCwogAAwFlQAhCMKAAAkAeUAAQbCgAA5BElAMGEAgAA+UAJQLCgAABAPlECEAwoAABQAJQABDoKAAAUECUAgYwCAAAWUAIQqCgAAGARJQCBiAIAADagBCDQUAAAwCaUAAQSCgAA2IgSgEBBAQAAm1ECEAgoAADgAEoA3I4CAAAOoQTAzcJMBwhWBw8e1ObNCUpNSTUdBR4WFxenmrVqqWjRoqajeNY1V10jv9+vT7/41Na5R44c0ZAhgzR58nTVr9/A1tnwBgqAzb78Yo7Gv/661q5do+zsbNNxAEVEROiSS9rqnvvv18UXNzMdx5Ou7X6tJNleApKTkzV48C2UABQIlwBskpqaqpv73qh+N/XV6tWrOPjDNTIyMrRw4QJ163yZRo8aqaysLNORPOna7tfq6iuutn3uiRLw+++/2T4bwY0CYIPjx4/rhuuv01dffmE6CpCrNyaM1333jjAdw7MoAXATCoANxj73rL779lvTMYA8eXvmTH326SemY3gWJQBuwT0AFiUeOKA3Jow3HQPIl6eeGKPuPXoqJITfAU51NO2o9u3f5+gabVu21YHEA1q2Ypmtc0+UgClTZqhevfq2zkbwoQBY9NVXXyotLc10DCBftm3bpjVrVqtZs+amo7jO8hXLtXzFctMxCiw5OVlDhgzSzJmzVKVKFdNx4GLUf4vWrlljOgJQIGtXrzYdAQ5JTEzU3XcPU3p6uukocDEKgEV79+41HQEoEH52g9umTfF69dWXTMeAi1EALCpWjBesIDAVLVbMdARHhIaGmo7gGu+//57i4zeajgGXogBYVKtWbdMRgAKpXTs4f3ZLly5tOoJrZGdnafLkN0zHgEtRACzq3KWr6QhAvkVERKjDpR1Nx3BE+QoVTEdwlYULF2q/w081IDBRACy6sHFjtW7TxnQMIF9uurmfSpQoYTqGIxo0OEeRkVGmY7hGdnaW5s+fZzoGXIgCYIPnX3hRxYL0eiqCT7Vq1fTQyFGmYzgmJiZGl7RtazqGq6xcucJ0BLgQBcAGdevW08y331VsbKzpKECuKleurFkffKi4uDjTURx1Xe/epiO4yoYN601HgAtRAGxySdu2mrdwkdp36GA6CvAvISEhuva63lr4zRJPvCGue4+eOve880zHcI2DBw8qJeWI6RhwGd4EaKM6derqo08+04YNGzR/3lwlbNqk/fv3sfsajAgPC1fZcuV0TsOG6tq1m6pVr246UqEJCQnR0888q57dr1JmZqbpOK5w6FCSihblUiX+hwLggEaNGqlRo0amYwCe1qJlKz319DN66IH7TUdxhbS0o6YjwGW4BAAgaA0cNFgPPjxSPp/PdBTj/H7TCeA2FAAAQe3+Bx7U1OlvcpMucAoKAICg171HD635cZ1uH3IH7wgA/sI9AAA8oVSpUnrq6Wf08KhHtGjhQi1evEg7d+zQ7l27dTQAro/v3rVLGRkZpmMgiFAAAHhKTEyMrureXVd17246Sr60bdNKv2zYYDoGggiXAAAA8CAKAAAAHkQBAADAgygAAAB4EAUAAAAPogAAAOBBFAAAADyIAgAAgAdRAAAA8CAKAAAAHkQBAADAgygAAAB4EAUAAAAPogAAAOBBFAAAADyIAgAAgAdRAAAA8CAKAAAAHkQBAADAgygAAAB4EAUAAAAPogAAAOBBFAAAADyIAgAAgAdRAAAA8CAKAAAAHkQBAADAgygAAAB4EAUAAAAPogAAAOBBFAAAADyIAgAAgAdRAAAA8KAw0wGCzaFDh/Tu229p3rx52pyQoAMH9isrK8t0LABnER0drQoVK6pp04t0da9e6tjpMtORAEdRAGz03qx3NXrUSCUlJZmOAiCf0tLStDkhQZsTEvThB++reYuWmjRlqipVqmQ6GuAILgHY5MUXxmr40Ds4+ANBYuWK79WpQ3ttTkgwHQVwBAXABl99+YWeffo/pmMAsNm+fXt1Y5/rdSw93XQUwHYUAIsyMjI0etRI+f1+01EAOCA+fqOmTplsOgZgOwqARYu/WaRt27aZjgHAQTNmTDcdAbAdBcCipUuWmI4AwGFbt2zRtq1bTccAbEUBsGj79u2mIwAoBPy7jmBDAQAAwIMoABbxjDDgDfy7jmBDAbCobbt2piMAcFjVqlVVo2ZN0zEAW1EALOrQ4VJVrlzZdAwADrq5/wDTEQDbUQAsioyK0uNPPGU6BgCH1KhZU7fdPsR0DMB2FAAb9OjZUyPuudd0DAA2K1mypN6Z9Z6io6NNRwFsRwGwyajRj+qFl15WTEyM6SgAbNC4SRMtWLRY9erVNx0FcAQFwEb9B9yitT+u0wMPPawLLrxQRYsWNR0JQB6FhoaqfPkKuvKqqzRj5tuat2CRqlWvbjoW4Bi2A7ZZmbJl9cCDD+mBBx8yHQUAgDPiDAAAAB5EAQAAwIMoAAAAeBAFAAAAD6IAAADgQRQAAAA8iAIAAIAHUQAAAPAgCgAAAB5EAQAAwIMoAAAAeBAFAAAAD6IAAADgQRQAAAA8iAIAAIAHUQAAAPAgCgAAAB5EAQAAwIMoAAAAeBAFAAAAD6IAAADgQRQAAAA8iAIAAIAHUQAAAPAgCgAAAB5EAQAAwIMoAAAAeBAFAAAAD6IAAADgQRQAAAA8iAIAAIAHUQAAAPAgCgAAAB5EAQAAwIMoAAAAeBAFAAAAD6IAAADgQRQAAAA8KMx0gGAUH79R8+fO1eYtm5V06JDpOADyICwsXGXLllXTiy5Wx06dFBMTYzoS4CgKgI22btmiUSMf1ry5X5uOAqDAxqtEiRIacc+9uv2OoQoNDTUdCHAElwBssuL779SxQzsO/kAQSEpK0mOPjlbfG/ooPT3NdBzAERQAGyRs2qS+N/RRUlKS6SgAbLRg/jzdNXy46RiAIygANnjg/nuVnJxsOgYAB3zy8UdauGC+6RiA7SgAFv20bp2WLlliOgYAB73y8sumIwC2owBYxDV/IPitWb1KiYmJpmMAtqIAWBQfv9F0BAAOy8rK0ubNCaZjALaiAFh05EiK6QgACsGRw0dMRwBsRQGwqGzZsqYjACgEZcuVMx0BsBUFwKImTZqajgDAYbGxsapbt67pGICtKAAWdbv8ckVGRpmOAcBBV1x5lSIiIkzHAGxFAbCoTNmyum3I7aZjAHBIZGSU7nvgQdMxANtRAGzw8MhH1LJVa9MxADjg+RdeUNWqVU3HAGxHAbBBeHi43pn1njp27GQ6CgCbREZGacLESbqx702mowCOoADYJDY2Vu99+JGmTJuu884/33QcAAUUExOj3tf30fcrV+m63tebjgM4hu2AbeTz+dTz6l7qeXUv7d69S1u3bNG+fftNxwKQB5GRESpfvoIaNGigyChu7EXwowA4pEKFiqpQoaLpGAAAnBaXAAAA8CAKAAAAHkQBAADAgygAAAB4EAUAAAAPogAAAOBBFAAAADyIAgAAgAdRAAAA8CAKAAAAHkQBAADAgygAAAB4EAUAAAAPogAAAOBBFAAAADyIAgAAgAdRAAAA8CAKAAAAHkQBAADAgygAAAB4EAUAAAAPogAAAOBBFAAAADyIAgAAgAdRAAAA8CAKAAAAHkQBAADAgygAAAB4EAUAAAAPogAAAOBBFAAAADyIAgAAgAdRAAAA8CAKAAAAHkQBAADAgygAAAB4EAUAAAAPCjMdIFht2bxZCQmblJp61HQUAHng8/lUtmwZNTr3PBUtWtR0HMBxFAAbZWVlada772j8uNe1KT7edBwABRARGanOnTvroZGjVK9efdNxAMdwCcAmhw4d0jVX99CIu+7k4A8EsIxjxzRn9my1bd1KkydNNB0HcAxnAGyQnp6m3tf20o8//GA6CgCbZGZmauRDDyoyIlL9BgwwHQewHWcAbPDUE09w8AeC1MMPPaDNCQmmYwC2owBYtGfPbk2fPs10DAAOycjI0NjnnzMdA7AdBcCiL7/4QhnHjpmOAcBBX335hY6lp5uOAdiKAmARp/6B4Jeamqp4bu5FkKEAWJSYmGg6AoBCsHffXtMRAFtRACyKjY01HQFAIYgrEWc6AmArCoBFderWNR0BgMPCwsJUo2ZN0zEAW1EALOp2+RWmIwBwWPMWLRQXxxkABBcKgEUNGzZUp8s6m44BwEEj7rnPdATAdhQAGzz7/FiVKlXKdAwADrjp5n5q266d6RiA7SgANqhWrZpmvf+hypQtazoKABt179FDz419wXQMwBEUAJs0adpUixYvVc+re8nn85mOA8CCMmXL6oWXXtbU6W8qIiLCdBzAEWwGZKOKFStqyrTpemzME1q4YL42xcdr3759ysrKNB0NwFnExBRVpUqV1OSii3RJm0sUERlpOhLgKAqAAypXrqz+A24xHQMAgDPiEgAAAB5EAQAAwIMoAAAAeBAFAAAAD6IAAADgQRQAAAA8iAIAAIAHUQAAAPAgCgAAAB7EmwAB2Mrv92vL5s3644/ftXXrViUeOKCjR48q/Vi66WgBbfeuXZY+P3nyGypRooRNaaxZv/4nqyN6SapjQ5S8SJaUImm3pD8krZeUVEhrO4oCAMCyY+npmjt3rr6Y818tX75cB/bvNx0Jp1i4cL7pCHZq/tdfJmRLWidpvqR3JW0wlMMyCgCAAtu3b68mjB+vt2e+qeTkZNNxgMIQIqnxX389JGmtpOckfaqcchAwKAAA8i0tLU0vv/iCxo8bp2Oc2oe3NZX0kXLOBAyXtMRomnygAADIl5UrV2jo7bdp27ZtpqMAbtJI0jeSZiqnCKSYjXN2PAUAIM/Gvfaqelx5BQd/4PR8kvpLWiOpgdkoZ0cBAHBWfr9fo0eN1OOPParMzEzTcQC3qy/pO0mtTQfJDQUAQK78fr/uvnO43pgw3nQUIJDESZonqaXpIGdCAQCQqyefeFzvvvO26RhAICoiaY6kc0wHOR0KAIAzmv3f/+q1V14xHQMIZCUlfS6pmOkgp6IAADit7du36+47h5mOAQSDOpJeMx3iVBQAAKf18IMP6PDhw6ZjAMGiv6QOpkOcjAIA4F8WLVqouV9/ZToGEGxek4uOu64JAsA9Xho71nQEIBg1lHSN6RAnUAAA/MPKFd9r1aqVpmMAwepB0wFOoAAA+IdZ775rOgIQzBpLOs90CIm9AACcJOPYMc3+7+e2zStZsYbqteiiUpVqKjLGdU9BAaeVkSUlpvvkz85WWtJeJcb/oF3/t0BZGbZtfHWjpPV2DSsoCgCAv61Zs0YpKdb3MImJK6Pu976q8zv2ls/nsyEZUHjSMqUth//5c5t2aI9+mPGwNi14044lLpMLLgVQAAD87dvlyyzPiCtfTbdPXKy4CtWtBwJcIjquvFrfM0Nx1RppzdT7rI47T1IpSYnWkxUc9wAA+NuGDRssfT4kNEz9xn7GwR9Bq2Gve1XnsgFWx4RIOteGOJZDAIAkKWHTJkufb3p5P1Wse4FNaQB3atz/GYVGRFsdU8+OLFZQAAD8bdeunZY+37hrX5uSAO4VHVdOlZpcZnVMRTuyWEEBACApZ9vfo0ePWppRuUETm9IA7laqTlOrI2LtyGEFBQCAJOnYsXRlZ2cX+PNhEVGKiC5qYyLAvaKKl7E6IsaOHFZQAABIkvx+a5/3hfCfE3iHDT/vxp+P5d9YAAA8iAIAAIAHUQAAAPAg3gTosMOHD1u6sQrBITY2ViFcIwfgIhQAm+3cuVPTpk7WvK/nasvWLco4dsx0JLhAaGioKlasqHYdOqh//1t0/gW8LAeAWfxKYqMJ415Xs6ZN9Norr+iPP37n4I+/ZWVlafv27Xp75kx17NBOI+66k58PAEZRAGwyetRIPTr6EaWnp5mOApfz+/16+62Zuvaaq5WRkWE6DgCPogDY4MMP3tcbE8abjoEA89233+rRR0aZjgHAoygAFqWnp+nJMWNMx0CAmjF9mjZu/MN0DAAeRAGwaOGCBdq9e5fpGAhQWVlZem/WLNMxAHgQBcCi5cuWmY6AALd0yWLTEQB4EAXAol27+O0f1uzcaW0LXgAoCAqARaGh/BHCmtCQUNMRAHgQRy+LKleuYjoCAlzVqlVNRwDgQbwJ0KL2l16qiW9MMB0DAax9hw6mIyDIHT6wW3/+vEKpyQcUHhmtsjXOUaW6F7KFs8dRACy65JK2qlmrljYnJJiOggAUGRmlG/reZDoGgtSfG1Zq3qTHFL96wb++VqJ8VbW5/i61um64QkI5FHgR9c+i8PBwPf3Ms2z0ggK5a8QIVanCZSTYb9GM/2jCoDanPfhLUtKePzXnlXs1flBrpSYdKOR0cAOOWjbo2OkyPfb4GPl8PtNREEB6Xn217rv/AdMxEISWvjNW8yaOVnZ21lm/d/svqzV5aEcdP8ZrzL2GAmCTocPv1JRpM1S6TBnTUeBykZFRemjkKE2aMo0zR7DdnoSfNfeNR/L1md2b1mvuBF5L7TVc+LFRj5491bFTJ73/3izNnzdXCZs2KTk52XQsuEB0dBFVrVpV7Tp0UJ8bblTlypVNR0KQ+mbGM8rKPJ7vz634dKLa939IRePKOpAKbkQBsFnRokU1cNBgDRw02HQUAB5z7OgRbVj6eYE+m5mRrl+XzdbF3QfanApuxflHAAgSm39cqsyM9AJ/fvuva2xMA7ejAABAkIhfvdDS59NTuGTpJRQAAAgSVgtAZJFiNiVBIKAAAEAQSN6/U3u3/GppRtkaDWxKg0DATYAAkE8ph/bp12WztWvjTzqanKgiJUqrUr0L1KhdT0UXizOSadOaRZZn1GzcNs/f++cvq5Sw9hvt2fyrQsPCVaJcFdW4oLVqN72UVwwHCAoAAORRRlqKvhz3kNbMnqbMjGP/+vpnzw9Tq+uG67JBjyk8qkihZrN6+j+mRGlVqnvhWb9v+y+r9dnzQ7Xj9x9O+/VSlWup+72vqn7LbpbywHnUNADIg31bf9erNzfVio8nnPbgL+U8Srf0nbGF/npdv99v+QxA7aYdzvqb+49fv6PxA1ud8eAvSYk7EjTjnis155V78/QmQphDAQCAs4hfvVDjB7bS/j835un7d21cp+n3XKHsrEyHk+XYu3mDDh/YbWlG7YsuzfXr8asX6sMnBuTpoO73+7X8vZc1874eOnb0iKVccA4FAABysfKzSZp2dzelHTmUr89t/2W1ls16yaFU/2T19L8k1W3W6Yxfy8xI10dP3Zrv3+h/++5LjR/YWof2bLMaDw6gAADAaWRnZ2n2SyP06bNDCvyb/Lfvv1ag1/LmV/xqa6f/S1WurbgK1c/49Z8WfKCkvdsLNHtPws96fUBzbft5RQHTwSkUAAA4RUZait564Gp9+8GrluYcPrBLO35ba1Oq08s6nqHN/7fM0ozcfvuXpF+WzbY0P+XgXk26o4N+/PptS3NgLwoAAJzk0O6tGndrS/26fI4t83ZvWm/LnDPZ9vMKZaSlWJpR5yzX//ckbLA0X5IyM47pgzH9NX/y4/L7/ZbnwToKAAD85c8NK/X6LS1sOeCdYOXd/HkRb/Hu/5CQUNVs0i7X7zl+LM3SGif4/X4tnPaE3hnZW8fTj9oyEwVHAQAAST8t/FCT7rhUKQf32jo3pkQZW+edKn7VAkufr9ygqYrElsz1e+zeIvjnbz7W+EGtlbxvh61zkT8UAACe5vf7NX/yY5r1SB/bftM9WeUGTW2feULakSTL9xjUubjjWb+nyjkXWVrjdHZtXKfxA1tpd/xPts9G3lAAAHjW8WNpmvVIHy2c9qQj16WrNmymMlXr2j73hIQfFlt+2U7ti3O//i9JjbveaGmNM0nau13jB7XRr8ut3WSIgqEAAPCkwwd2a+KQ9vpp4YeOrdH59iccmy1Zf/4/PKqIqjVqcdbvq35+a53T5kpLa51JRlqKZt7fUwumPO7IfJwZBQCA5+zauE7jbmmu7b+sdmyNtn3vV52Lc3+8ziqrBaBW47YKi4jM0/f2fGC8SpSvamm9M/H7/Vow9Ql9/J9Byjqe4cga+DcKAABP+XX5bE0YfEmBX2yTF5fccI+6DXvWsfmSdGjPNh3YHm9pxtle/3uy4mUr67bxi1Sqci1La+Zm9expmnpnFx09fNCxNfA/FAAAnvHtB69q5gNXW35u/kxCQkLV477XdMVdL8jn8zmyxglW7/6Xzv4CoFOVqlxLw2esUq3G7SyvfSYJPy7R6wOaad/W3xxbAzkoAACCXnZWpj4bO0yzXxohf3a2I2tEFimmfi98rpbXDnNk/qmsPv9ftGQ5lavZKN+fKxJbUgNfm6umV/S3tH5uEnckaPzA1pZ3OETuKAAAgtrRwwc1ZXhnrfh4gmNrlKxUU8NnrFSDVpc7tsbJ/NnZ2rT2G0sz6jbrVOCzFKHhEbpu9HRddc/LZ91CuKDSjhzS1Lu66vuPxjkyHxQAAEEscccmTRjUWglBbU7OAAAaiklEQVQ/LHZsjernt9Kwad+rbPUGjq1xql3x65R6aL+lGWd7/W9etO59lwa8OFuRRYpZnnU62VmZ+vyFO/XJM7cX2tbKXkIBABCUtqxbrnG3ttS+rb87tkbTKwbotvGLbH9T3tnYsf1vfm4AzE39lt10x5Tljj0hIEmrPp+s6fdcqfSUZMfW8CIKAICgs/q/UzV5aEelJh1wZL7P51OngY/qutHTFBoe4cgaubG6/W+5GueoeNnKNqWRKtQ+T8OmrXDkjYEnbFw5TxMGt9Gh3VsdW8NrKAAAgkZ2dpa+Gv+wPn56sLIyjzuyRkR0jG5+7hN1GvS4I/PPJjMjXVt/+tbSjLy8/je/YktX0JBJS3XBZX1sn33CnoQNeq3/xZa3P0YOCgCAoJCRlqK3HuilJW8959gasaUr6vY3Fqth2x6OrXE2W9Z9a3nPArtO/58qLCJKfZ54R50GPurYY5CpSQc09c7O+vHrtx2Z7yUUAAABL3n/Tr1xWztH3ylfse4FGjZ9haOb++SF5e1/Q8NUs3Fbm9L8m8/nU6dBj6vPk+8qLCLKkTUyM47pgzH99dX4hx17rNMLKAAAAtqfG1bqtX4XaecfPzq2xrnte2nolG9VolwVx9bIK6svAKraqLmiYmJtSnNmF3S6XrdNcO4GSb/fryVvPad3Rl2v4+lHHVkj2FEAAASs9Ys+0qQ7LtWRxD2OrdG6953q+/QHCo8q4tgaeXU0OVG74tdZmlEnD7v/2aXauS00bPoKlatxjmNr/PzNx5owuI2S9+1wbI1gRQEAEHBO/Pb37qjrLV8PP5OwiEj1fuxNXXXPK4697Ca/4tcssnzKu67DGxSdqmTFGho2fYUatL7CsTV2/vF/GndLC+34/QfH1ghG7vipBoA8yrn+2y/n+q/f78gaRYqX0sBX56pJt5sdmV9QVl+NG1mkmCo7+Khebuv2G/uZWve+07E1kvfv1MTb2+uXZf91bI1gQwEAEDBSkw5o8rBO+vHrdxxbo0zVuho69TtHb5QrKMvb/zZpr9CwcJvS5E9ISKiuuucV9Xp4omMZcp4EuVoLpjzuyPxgQwEAEBD2JPys1/pdZPkZ+NzUbXaZhk1fqTJV6zq2RkEl7tikg7u2WJpRt5n9z//nV7Meg3XLy18oulgJR+b7/X4tmPqEPnpqoLKOZziyRrCgAABwvT9WzNWEQW10aM82x9Zo1mOwBrw0x7EDk1Ubbdj+t/ZF5guAJNW5uJOGz1jlaNFaM2e6Jg291PKeCcGMAgDA1b794FXNuOdKpacedmR+YZyatoPV5/+Ll6mkstXr25TGutJV6jh+qWXrT99p3MCW2rf1N8fWCGQUAACuNeeVezX7pRHKzs5yZH5U0eK65ZUvHb05zQ7Z2VlKWGttR8M6zQr37v+8KIybLRN3JGjCoDbatdHa45PBiAIAwJWWvP28lr/3smPzS1aqqWHTvlfdZpc5toZddv72g9KOHLI0w4n3/9vhxOOWXYY85djrg48ePqipd3ZR8v6djswPVGGmAwSjNWtWa/7cudqyZbMOHbL2Ly2CQ5EiMapatarad+igtu3aKzzcvaea3SBxR4LmT37csfk1Lmijm5/7RDElSju2hp3i11i7+9/n86mOQ+//t0uH/iNVplo9vf94P0fe7JdyaJ++ePU+3fjUe7bPDlQUABtt2LBBD953r1atWmk6Clxq0sQ3VL1GDf3n6WfUuUtX03Fc6/uPxiszI92R2U0u76deD01UWESkI/OdEL/KWgEoX+tcFS1ZzqY0zjm3fS/FVaiuN+/trsMHdtk+f/3CD3X5sOdUonxV22cHIi4B2GTB/Hnq1rkTB3+c1dYtW9T3hj569RXnTm8Hup+XfGr7TF9IiLre8bR6PzojoA7+GWmp2rZhhaUZbrz+fyaV6zfR8DdXqVK9xrbP9vv92rD0c9vnBioKgA02bNigWwf019GjbEiBvPH7/XpyzOP6+KMPTUdxncyMdCXv3W7rzPCoIrrp6Q/Vvt9Dts4tDFvWLVdmxjFLM9x++v9UxctU0pBJS9WoXU/bZ+//c6PtMwMVBcAGD91/Hwd/FMiohx/S4cPOPN4WqNJTD9v+it/zO/ZWQwcOJoXB6uN/YRGRqnnhJTalKTwR0TG68u4XFVW0uK1z01OSbZ0XyCgAFq1du0YrV1o7PQfvSkxM1Kx3nXutbSCKKV7a9ufx134xQ+8/dpNj9xU4yer2v9XObemKnQzz689fVmncrS1tP2DHlqpg67xARgGwaP7cuaYjIMDNm/u16Qiu4gsJUaX6TWyf+3/zZmnSHZcq5eBe22c7JeXgXu1J+NnSjMLc/tcu6xa8r4m3t3dkm+cqDQt/MyS3ogBYtGXLZtMREOA2JySYjuA6F1x2vSNzt/28Qq8PaG75oFpY4tcssnw5pI5LXv+bFznv8R+j90bf6MjZmqiYWDVodbntcwMVBcCi1FSu/cOa1NRU0xFcp3nPwSpVuZYjsw/t2abxA1vr9++/cmS+nazu/lcktqQqNbD/bIoTMjPS9d7oG7VgyhjHtnnueOvogLwc4hQKgEXlyrn/2Vq4W7ly5U1HcJ2wiCj1GfO2IqJjHJl/7OgRvXlvdy1//xVH5tvFju1/Q0JCbUrjnJSDezVxSAetW/C+Y2vUa9FFrVz+yufCRgGw6OJmzUxHQIBr1qK56QiuVLVRcw14cbbtd4GfkJ2dpTkv36NPnx2irMzjjqxhxb6tvyt53w5LM+q4YPvfs9m9ab1eH9Bcf25w7h0qdZtdppuf/djVmz2ZQAGwqEvXbipatKjpGAhg1157nekIrlWrSXsNnfqdSlaq6dgaKz+bpOkjLrf8rn27xa+2vv2v26////btF45v89yi1xDd8vIXnPo/DQqARXFxcRp2512mYyBAXda5i1q0bGU6hquVq3GOhk9boernt3ZsjfjVCzXu1pZK3LHJsTXyK361tef/S1as4dh9FHZY/t7Lmnl/Tx07esSR+Se2ee75wHiFhPLW+9OhANhgxD33qsOlgfeoDcyqVq2aXh8/wXSMgBATV0aDxy1wdNvY/dv+0Ou3tNDmH5c6tkZeZWdlavOPSyzNqHOxO1//m5V5XJ88c7vmvHKvc9s8x8Sq/4uzXb/Ns2kUABuEhobqrXfe1TWcykUeNW7SRF98PVelSpUyHSVgnNg2tusd/3Fu29jkRE25s7PWzJnuyPy8+nPDKqWnWntDpBuf/087ckjT7u6mVZ9PdmyNkhVraOjU71S/JZttnQ0FwCZRUdGaOHmKPvrkM7Vt147tXvEvPp9P551/vl5+9TV9PW+BKlSoaDpSQGrf72H1feZDx67pZh3P0EdPDdSXrz8of3a2I2ucjeXtf0NCVLtpB5vS2OPA9niNu7WlNll8tXFuqp/fSsOnr1S5mg0dWyOYcGHEZu07dFD7Dh105MgR7dixXfv37XfsmVYEjuLFi6tKlSoqVTow9p93O6e3jZWkpe+M1YE/N6rPE+849jjimVi9/l+pXmMVKe6es0sJPy7R2w9eo6OHDzq2RuOufXXNyCkBtdOjaRQAhxQrVkwNGpyjBg1MJwGCU+X6TXTnzNV6874e2vHbWkfW+GXZfzV+YCsNeHF2oe0hf+zoEW3/ZZWlGW66/r9mznR9+twdyjqe4ch8n8+njreOVseBjzl2aShYcQkAQMCKLV1Rt7+x2JFtY0/YvWm9xt3aQtt/XePYGidL+GGJ5fcSuOH6v9/v14Ipj+ujpwY6dvAPi4jS9WPeVqdBj3PwLwAKAICAFhEdo5ue/VidBj7q2BqHD+zWG7e11f/Nm+XYGidYfftfeGS0qp3bwqY0BZORlqq3HuylBVOfcGyN2NIVNGTSUl3Y+QbH1gh2FAAAAc/n86nToMd1w1OzFBYR5cgamRnpev+xm7RgyuOO3tdjtQDUuPAShUdG25Qm/5L379TE29vpl6WfO7ZGhdrnadi0FapyDjv7WUEBABA0Luh0vW4bv1BF48o6Mj9nt7onNGv0DTp+LM32+cn7d2rf1t8szTB5+n/XxnUad0sL7fj9B8fWqN+ym4ZMXlZo92QEMwoAgKBS7byWGjbte5WrcY5ja/y04ANNHtpRKQf32jo3flXgvv73528+1vhBrS3vX5Cb1r3vzNkfIibWsTW8hAIAIOiUrFRTw6avcHTv920/r9Cr/S7Sro3rbJsZb/EZ+ZgSpVWh9nk2pckbv9+vJW89p3dGXa/j6c5sjx4aHqHrRk/XVfe8Il8Ihy278CcJIChFFimmfi987ujrYJP37dCEwZfo1+VzLM/y+/1KWPuNpRl1Lu5UqAfIzIxj+vCJAfpq/MOOvTSpSGxJDXxtrppe0d+R+V5GAQAQtE5sCNPr4YmObQWbkZaitx64Wkvees7SnL2bN+jwgd2WZhTm9f+jyYmaemdn/fDVW46tUbpKHQ2d+p1qNW7n2BpeRgEAEPSa9RisAS/NUXSxEo7Mz87O0lfjH9Ynz9xW4Gf4N9pw/b+wXv+7J2GDXu13kTb/3zLH1qhzcUcNn7FKZarVc2wNr6MAAPCEus0u07DpK1Wmal3H1lj1+RRNH3G50o4k5fuzVt+RX6ZaPcVVqG5pRl5sXDVfEwa30aHdWx1bo1mPQbrl5S8dK2zIQQEA4BllqtbVHZOXq/r5rRxbI371Qr1x2yVKPbQ/z5/JOp5h+bfpwrj7/4ev3tL0uy9XekqyI/P/d8lmkmOXbPA/FAAAnhITV0aDxy1U4643ObbGnoQNmnZ3tzxfDtj28wplpKVaWtPp6/+/f/+1PnryVmVnZzkyPyomVv1fnO3oTZv4JwoAAM8Ji4hU78feVJchTzn2Dvkdv/+gZe++mKfvtfr2v5DQMNVq0t7SjNwcTz+qT58b4tjBv2TFGho69TvVb9nVkfk4PQoAAE/y+Xzq0H+k+j7zocKjijiyxrcfvJanswBWC0CVcy5SVNHilmbkZv2ij5S0509HZlc7t0XOi5tqNnRkPs6MAgDA085t30tDJi5RbOmKts8+krjnrFv7ph1JsrydcZ2Lnb3+/8uy2Y7Mbdy1r26b8I2KliznyHzkjgIAwPMqN2iq4TNWqlK9C22fvSdhQ65fT1j7jeVT604XgLP9f8gvn8+nzrc/qd6PzVRYRKSts5F3FAAAkFS8bGUNmbRMjdr1tHVu5vGMXL9u9fW/kUWKqWqj5pZmnE1mRrpts8IionT9mLd16YBRjt1/gbyhAADAXyKiY3TTMx+p3c0P2jYzpnipXL9u9fp/zQsvcfyRuZgSpW2ZE1u6ou6YvEwXdr7BlnmwhgIAACfxhYSo29BndN3o6QoNj7A8r2qjZmf82qE923Rge7yl+XWaOf/8f5VzLrY8o1K9CzV8xkpVbtDUhkSwAwUAAE6j6RX9dfuEb1Q0rmyBZ1Q/v5VKVa59xq/bsv3vxZ0szzibJpffbOnz9Vt2021vLFbxspVtSgQ7UAAA4AyqnddSQ6d+p7LV6+f7sz6fT5cNHpPr91i9/h9buqLKVm9gaUZeVDu3RYG3Vm530wMa8OJsRcXE2pwKVlEAACAXpSrX0tCp3+f7N+32/R7OdXMef3a25ff/17m4Y6HdSNdr5OR87TUQGh6h60ZPU7dhzxbqFsXIO/6pAMBZRBcroVtf+VJt+ow46wE3JCRUlw0eoy5Dnsr1+3bFr1Nq0gFLuQpz+9/Y0hU0ZNJSla917lm/t0S5Kho8boGaXjGgEJKhoCgAAJAHIaFhuvLuFzVk0lLVbd5ZIaFh//h6WESUGl7SXXfOXKOOt44+6zyrd//7fD7VLoQNgE5WolwV3fXWWl054qXTbtNbNK6sLh0wSiPe/Uk1LmhTqNmQf2Fn/xYAwAnVz2+tga9+rfSUZO1J+FlpKckqWqKMytZooMgixfI8J361tdP/5Wo2VGzpCpZmFERoWLjaXH+32lx/tw7u3KxDe7bp+LF0xVWoprLVG/BsfwChAABAAUQVLa7q57cu0Gf9fv9ZXxF8NoVx9//ZlKxUUyUr1TQdAwXEJQAAKGSHD+xSeuphSzNqX3TmGwyBvKAAAECACQ2PUK3GbU3HQICjAABAIYspXtrSJjjVGjVXRHRRGxPBiygAAFDIwiIiLW3g06DNFTamgVdRAADAgOZX31agz4VHRqtxl742p4EXUQAAwIDzLr1W1c5rme/Pte/3oIqVKu9AIngNBQAADAgJCdUNT76ruPLV8vyZhm17qMOAUQ6mgpdQAADAkLjy1TRk8jLVvPCSXL/PFxKi1r3v0k3PfKiQkNBCSodgx4uAAMCgEuWq6LY3FmvDkk+1ds6b2v7rGqUc2icpZ7e/ei26qHXv4apQ53zDSb3D7zedoHBQAADAMJ/Pp3Pb99K57XtJko6nH5V8PoVHRhtO5k3ZpgMUEgoAALhMeFQR0xE8LcMjDYAC4ICsrCz9+OMP2rJ5s/bv26esLI/8NOGMSpUupUqVKqt5i+aKiuK3OsDN0jO9saERBcBG6elpmjxxkiZMGKcD+/ebjgMXio6OVp8bbtQDDz6k0mXKmI4D4BR+SUeOm05ROHgKwCa7du1Sty6d9cSYxzj444zS0tI0fdpUXdK6ldasWW06DoBTpB2XvHLSlgJgg5SUFPW+ppfW//ST6SgIEPv27dW1V/fUb7/9ajoKgJMkHvPG6X+JAmCLR0eP4j/kyLeUlBTdcfttys72yK8bgMulZUopGaZTFB4KgEU7duzQrHfeMR0DAern9ev15RdfmI4BQNKeoz555BUAkigAln35xRxlZmaajoEANvu/n5mOAHjenlSf0jz2n3IKgEVc94dVP/EzBBh1KF06eMx0isLHY4AWJSYmmo6AAJd44IDpCIAn+SUdTJP2pXnnxr+TUQAsiouLMx0BAS6uZEnTEQDPOZ6dc9rfK8/8nw4FwKL6DRqYjoAA16DBOaYjAJ6R7c855X8g3acsL93xdxrcA2DR5ZdfIZ/Pm6ePYI/Lr7jCdAQgqGVmS8kZ0o4jPm1M8mlvGgd/iTMAltWuU0fde/TQ559xJzfyr1r16rq61zWmY9jC75fikynDcBG/lOn3zva++UUBsMHTzz6nNatXa+fOnaajIICEh4dr3PgJioiIMB3FNsezTCcAkFdcArBB2bLl9MHHn6hq1aqmoyBAxMTE6M233laLlq1MR/lbaIi1/xxkZx3nVy14RlaG5ecGjddlCoBN6tdvoIWLl2rgoMFB9Rsd7OXz+dS12+X6Zskyde7S1XScf4iIjLT0s5udeVxpSXttTAS419EDO6yOOGJHDiu4BGCjkiVL6tnnx2rkI6O1ZPFibdoUr5QU4/+M4QJRkVGqUrWq2rVvrwoVKpqOc0bFihWz9G6L3esWqWb7G21MBLjTrnULrY5IsiOHFRQAB8TGxuqq7t1NxwDyrWq1apYKwK//fU01290g8WQMgtj+31cqcdOPVsdstiOLFVwCAPC3OnXqWvr8gT9W67c542xKA7jP8bQUff/qIDvud/nDjjxWUAAA/K1J06aWZ6yZfI/i502zIQ3gLscOJ2rRmKt0aOsGq6NSJVkeYhUFAMDf2lxyieUZ2VmZ+u6VgVo0prv2/76SJwMQ8DJSk/THlxP1+ZBzteenxXaM/FZShh2DrOAeAAB/q1u3nmrWqqXNCQmWZ21fOVvbV85WVGxpFS1fQxExxW1ICBSe7OwspR3coyO7Nyk709ZNA+bYOaygKAAA/uHa63rruWeetm1e+uEDSj/MjofAX45L+sB0CIlLAABOcWPfm3iXBeCcjyW5ohFTAAD8Q8WKFdX7+j6mYwDByC/pGdMhTqAAAPiXe+67X9HR0aZjAMFmlqSfTYc4gQIA4F+qVKmiEffeZzoGEEwOS3rAdIiTUQAAnNaw4XfqwsaNTccAgsVdknaZDnEyCgCA04qIiNDU6W+qeHEe3wMsevOvv1yFAgDgjKpVq6a3352lyMgo01GAQLVU0hDTIU6HAgAgVy1btdbU6dMVERlpOgoQaNZK6i4p3XSQ06EAADirrt0u10cff6rY2FjTUYBAsUjSpZKSTQc5EwoAgDxp1bq15i/8Rg0bNjQdBXAzv6TXJHVVzp3/rkUBAJBntevU0byFi3TH0GEKC+NN4sApEiR1Uc4d/7ZuHuAECgCAfImKitYTT/1Hi5YsU8dOl8nn85mOBJh2UNJoSedKmm84S55RAAAUSMOGDfX+hx/pmyXLdGPfm1SsWDHTkYDCtkHSfZKqS3pKUprRNPnEOTwAlpx73nl69fVxem7sWC1dskTLli7VypUrtCk+XqmpqabjAXbaIWm9pMXK+U1/vdk41lAAANgiKipanbt0VecuXf/+3/bs2a2kpCSlpKQoNYUyYMU9I+7Stq1brYy4TdJme9J4hl9SknJu5tstKcVsHHtRAAA4pnz5CipfvoLpGEGhaNGiVkeskvSTDVEQJLgHAAAAD6IAAADgQRQAAAA8iAIAAIAHUQAAAPAgCgAAAB5EAQAAwIMoAAAAeBAFAAAAD3JDAci28uHdu3fZlQMAXCk1NVWJBxKtjsmyIwuChxv28XxJ0gjTIQAgyFWXtM10CLiHG84A7DYdAACCXLakfaZDwF3cUAB+Nx0AAILcVgXYXvVwnhsKwPeyeB8AACBX35oOAPdxQwFIlLTGdAgACGJfmw4A93FDAZCkt00HAIAgdVjSbNMh4D5uKQBvSjpgOgQABKGJko6aDgH3CTUd4C/H//p7J6MpACC4JEm6QVKq6SBwH7ecAZCkVyRtMB0CAILISPH4H87ADS8COllDSaslFTEdBAAC3OeSrpbkNx0E7uSmMwCS9Iuk3pIyTQcBgAC2XlJ/cfBHLtxyD8DJNirn5UBXSQoznAUAAs1qSV0kHTQdBO7mtjMAJ3wkqaOknaaDAEAAeVdSB0n7TQeB+7m1AEg5b646X9J0cRoLAHKzW1IfSX3FHf/II7fdBHgm50l6UDk3tEQZzgIAbrFZ0jhJk8WBH/kUKAXghBKSuklqr5xSUENSrKRIk6EAoBAcVs4L0zZKWilp/l9/5wwpAAAAAAAAAAAAAAAAAAAAAAAAAAAAAABAgPt/YDb+sr7dIjUAAAAASUVORK5CYII=;" vertex="1" parent="1">
          <mxGeometry x="561.7" y="318.86" width="51.14" height="51.14" as="geometry" />
        </mxCell>
        <mxCell id="nbEl6hGqwunhnrMHJr0G-53" value="&lt;span style=&quot;color: rgb(180, 180, 180); font-size: 18px;&quot;&gt;Charles Pugh&amp;nbsp;2025&lt;/span&gt;" style="text;html=1;align=center;verticalAlign=middle;whiteSpace=wrap;rounded=0;" vertex="1" parent="1">
          <mxGeometry x="973" y="90" width="170" height="30" as="geometry" />
        </mxCell>
        <mxCell id="nbEl6hGqwunhnrMHJr0G-54" value="&lt;span style=&quot;color: rgb(180, 180, 180); font-size: 18px;&quot;&gt;Data Warehouse Project&lt;span style=&quot;white-space: pre;&quot;&gt;&#x9;&lt;/span&gt;&lt;/span&gt;" style="text;html=1;align=center;verticalAlign=middle;whiteSpace=wrap;rounded=0;" vertex="1" parent="1">
          <mxGeometry x="23" y="90" width="250" height="30" as="geometry" />
        </mxCell>
        <mxCell id="nbEl6hGqwunhnrMHJr0G-55" value="" style="endArrow=none;html=1;rounded=0;" edge="1" parent="1">
          <mxGeometry width="50" height="50" relative="1" as="geometry">
            <mxPoint x="11.269999999999996" y="120" as="sourcePoint" />
            <mxPoint x="1163" y="120" as="targetPoint" />
          </mxGeometry>
        </mxCell>
        <mxCell id="nbEl6hGqwunhnrMHJr0G-56" value="&lt;font style=&quot;font-size: 24px;&quot;&gt;&lt;b style=&quot;&quot;&gt;Sources&lt;/b&gt;&lt;/font&gt;" style="rounded=0;whiteSpace=wrap;html=1;strokeColor=none;fillColor=default;" vertex="1" parent="1">
          <mxGeometry x="53.269999999999996" y="220" width="100" height="40" as="geometry" />
        </mxCell>
        <mxCell id="nbEl6hGqwunhnrMHJr0G-57" value="" style="shape=flexArrow;endArrow=classic;html=1;rounded=0;endWidth=24;endSize=8.33;width=18;fillColor=#b1ddf0;strokeColor=#10739e;exitX=1;exitY=0.35;exitDx=0;exitDy=0;exitPerimeter=0;" edge="1" parent="1">
          <mxGeometry width="50" height="50" relative="1" as="geometry">
            <mxPoint x="907.27" y="506.88" as="sourcePoint" />
            <mxPoint x="999" y="506.88" as="targetPoint" />
            <Array as="points">
              <mxPoint x="957.27" y="506.88" />
            </Array>
          </mxGeometry>
        </mxCell>
        <mxCell id="nbEl6hGqwunhnrMHJr0G-58" value="" style="shape=flexArrow;endArrow=classic;html=1;rounded=0;endWidth=24;endSize=8.33;width=18;fillColor=#b1ddf0;strokeColor=#10739e;exitX=1;exitY=0.35;exitDx=0;exitDy=0;exitPerimeter=0;" edge="1" parent="1">
          <mxGeometry width="50" height="50" relative="1" as="geometry">
            <mxPoint x="170" y="510" as="sourcePoint" />
            <mxPoint x="261.73" y="510" as="targetPoint" />
            <Array as="points">
              <mxPoint x="220" y="510" />
            </Array>
          </mxGeometry>
        </mxCell>
        <mxCell id="nbEl6hGqwunhnrMHJr0G-59" value="" style="shape=flexArrow;endArrow=classic;html=1;rounded=0;endWidth=24;endSize=8.33;width=18;fillColor=#b1ddf0;strokeColor=#10739e;exitX=1;exitY=0.35;exitDx=0;exitDy=0;exitPerimeter=0;" edge="1" parent="1">
          <mxGeometry width="50" height="50" relative="1" as="geometry">
            <mxPoint x="658.27" y="510" as="sourcePoint" />
            <mxPoint x="750" y="510" as="targetPoint" />
            <Array as="points">
              <mxPoint x="708.27" y="510" />
            </Array>
          </mxGeometry>
        </mxCell>
      </root>
    </mxGraphModel>
  </diagram>
</mxfile>
